<svg viewBox="0 0 32 43" xmlns="http://www.w3.org/2000/svg" fill-rule="evenodd" clip-rule="evenodd" stroke-linejoin="round" stroke-miterlimit="1.414"><path d="M30.262 27.062c-1.04.99-2.473 1.23-3.74 1.44-.198.033-.395.066-.588.101-.143.038-.325.08-.51.123-1.688.392-2.881.775-2.885 2.157-.004.91.297 1.752.613 2.646.363 1.023.739 2.083.68 3.316-.115 2.198-1.047 4.11-2.498 5.118a3.387 3.387 0 0 1-2.063.736c-1.077 0-1.881-.586-2.208-1.606-.23-.688-.191-1.357-.15-2.065.008-.174.02-.353.025-.539.04-.975-.076-1.78-.361-2.542-.54-1.52-1.623-2.938-2.507-4.006l-.483-.607c-.676-.853-1.374-1.735-2.168-2.443-.39-.308-.806-.42-1.341-.535-.151-.01-9.345-.1-9.345-.1V14.742s7.21.01 7.616.033c.356.021.699.041 1.013.041h.146c.297-.063.597-.095.91-.13.278-.029.566-.06.868-.118.339-.065.69-.396 1.03-.718.196-.186.389-.364.58-.5.195-.137.383-.274.576-.414.589-.428 1.2-.874 1.892-1.184.854-.367 1.797-.488 2.71-.605.445-.059.886-.112 1.308-.197l.754-.086c.714-.08 1.454-.166 2.196-.166.5 0 .94.04 1.349.121 1.46.415 2.39 1.6 2.392 2.96.742.296 1.406.916 1.826 1.71.375.71.5 1.47.365 2.143 1.41.922 2.139 2.652 1.746 4.137.623.43 1.053 1.146 1.2 2.02.208 1.21-.165 2.494-.948 3.272zm-.952-2.707c-.048-.416-.238-.93-.871-1.045-.341-.098-.57-.297-.68-.575-.132-.337-.083-.759.136-1.12.229-.27.265-.84.129-1.335-.186-.588-.615-1.005-1.28-1.229-.282-.035-.536-.232-.675-.53-.158-.343-.123-.712.094-.968.188-.27.152-.877-.106-1.377-.206-.395-.5-.632-.784-.632a.495.495 0 0 0-.121.015l-.045.01h-.047c-.35 0-.804-.153-1.028-.502a.797.797 0 0 1-.057-.764c.139-.373.124-.799-.05-1.084-.124-.209-.323-.33-.593-.365-.478-.127-.953-.127-1.414-.127-1.371.123-2.826.256-4.231.51l-.67.15c-.348.078-.692.153-.998.23-.503.248-1.066.673-1.61 1.085-.18.136-.356.271-.53.396-.14.116-.275.237-.405.363-.358.336-.76.715-1.26.853-.47.29-.97.29-1.376.29-1.31.121-1.928.595-2.247 1.742-.314 1.156-.325 2.477-.307 3.621l.004.256c.01 1.078.027 2.427.58 3.406.275.467.823.566 1.458.688.878.143 1.569.432 2.215.928a.475.475 0 0 1 .256.23c.263.18.478.442.674.68a32.583 32.583 0 0 1 2.748 3.387c.175.26.35.51.524.758.799 1.142 1.627 2.323 1.979 3.778.25 1.071.226 1.998.17 3.097l-.008.164c-.043.67-.053 1.39.324 1.442a.654.654 0 0 0 .088.008c.612 0 1.385-.772 1.844-1.487.479-.908.729-1.859.703-2.72-.025-.894-.316-1.74-.625-2.637-.364-1.059-.741-2.156-.654-3.349.125-1.625 1.415-3.03 3.21-3.496a17.912 17.912 0 0 1 1.618-.314c1.002-.163 2.037-.332 2.883-.806.55-.277 1.139-.86 1.035-1.625z" fill-rule="nonzero"/></svg>