<svg viewBox="0 0 2913 800" xmlns="http://www.w3.org/2000/svg"><title>MotoViaggiatori.it</title><path fill="none" d="M-.003 0H2912.85v800H-.003z"/><path d="M1147.98 484.13l-96.138-337.004h-2.634c4.61 57.042 6.585 101.626 6.585 133.752V484.13h-112.6V15.997h169.23l98.112 332.413h2.634l96.138-332.413h169.229v468.132h-116.551V278.911c0-10.49 0-22.292.659-35.405 0-13.112 1.316-45.24 3.95-95.724h-2.634l-94.82 336.347h-121.16zM2019.672 249.407c0 78.678-19.096 138.998-57.946 179.648-38.85 41.305-95.479 61.63-170.545 61.63-73.75 0-130.379-20.98-169.888-61.63-38.85-41.306-58.604-101.626-58.604-180.303 0-78.022 19.096-137.03 58.604-178.336 38.85-41.306 96.138-61.631 170.546-61.631 75.066 0 131.696 20.325 169.887 60.975 38.85 40.65 57.946 100.97 57.946 179.647zm-323.312 0c0 90.48 31.607 135.72 94.82 135.72 32.266 0 55.971-11.147 71.775-32.783C1878.1 330.052 1886 295.958 1886 249.407c0-46.55-7.901-81.3-23.705-103.592-15.803-22.292-39.509-33.438-70.457-33.438-63.872 0-95.48 45.895-95.48 137.03zM2292.349 484.13h-127.086V119.59h-114.576V15.996h356.237v103.592h-114.575v364.54zM2900.635 249.407c0 78.678-19.096 138.998-57.946 179.648-38.85 41.305-95.48 61.63-170.546 61.63-73.75 0-130.378-20.98-169.887-61.63-38.85-41.306-58.604-101.626-58.604-180.303 0-78.022 19.095-137.03 58.604-178.336 38.85-41.306 96.138-61.631 170.546-61.631 75.066 0 131.695 20.325 169.887 60.975 38.85 40.65 57.946 100.97 57.946 179.647zm-323.312 0c0 90.48 31.606 135.72 94.82 135.72 32.266 0 55.97-11.147 71.774-32.783 15.145-22.292 23.047-56.386 23.047-102.937 0-46.55-7.902-81.3-23.705-103.592-15.804-22.292-39.509-33.438-70.457-33.438-63.873 0-95.48 45.895-95.48 137.03zM1047.646 571.125h65.987l-71.486 217.186H972.8l-71.18-217.186h66.292l29.633 110.114c6.11 24.335 9.47 41.369 10.082 51.103.61-6.997 2.138-15.514 4.276-26.16 2.139-10.342 3.972-18.555 5.5-24.335l30.243-110.722zM1137.109 571.125h59.266v217.186h-59.266zM1377.276 788.311l-10.693-40.76h-70.875l-10.997 40.76h-64.765l71.18-218.098h78.512l72.097 218.098h-64.46zm-22.913-88.821l-9.47-35.59a1301.614 1301.614 0 01-7.943-30.722c-3.055-12.775-5.193-21.597-6.11-27.072-.916 4.867-2.75 13.384-5.499 24.943-2.444 11.559-8.248 34.373-17.413 68.44h46.435zM1546.842 661.163h94.093v117.11c-25.662 8.517-53.767 13.08-84.317 13.08-33.604 0-59.571-9.734-77.901-29.202-18.33-19.467-27.495-47.148-27.495-83.041 0-34.981 10.082-62.358 29.939-81.825 20.162-19.468 48.268-29.202 84.622-29.202 13.747 0 26.578 1.217 38.798 3.955 12.22 2.433 22.912 5.78 31.771 9.733l-18.635 45.932c-15.58-7.605-32.993-11.559-51.629-11.559-17.413 0-30.55 5.475-40.02 16.73-9.47 11.255-14.052 27.072-14.052 47.757 0 20.38 4.277 35.893 12.83 46.54 8.554 10.646 20.774 15.817 36.66 15.817 8.86 0 16.802-.913 24.134-2.433v-34.069h-38.798v-45.323zM1772.976 661.163h94.093v117.11c-25.662 8.517-53.767 13.08-84.317 13.08-33.604 0-59.571-9.734-77.901-29.202-18.33-19.467-27.495-47.148-27.495-83.041 0-34.981 10.082-62.358 29.939-81.825 20.163-19.468 48.268-29.202 84.622-29.202 13.747 0 26.578 1.217 38.798 3.955 12.22 2.433 22.912 5.78 31.771 9.733l-18.635 45.932c-15.58-7.605-32.993-11.559-51.628-11.559-17.414 0-30.55 5.475-40.02 16.73-9.47 11.255-14.053 27.072-14.053 47.757 0 20.38 4.277 35.893 12.83 46.54 8.555 10.646 20.774 15.817 36.66 15.817 8.86 0 16.802-.913 24.134-2.433v-34.069h-38.798v-45.323zM1911.434 571.125h59.266v217.186h-59.266zM2151.603 788.311l-10.692-40.76h-70.875l-10.997 40.76h-64.765l71.18-218.098h78.512l72.097 218.098h-64.46zm-22.912-88.821l-9.47-35.59a1301.614 1301.614 0 01-7.943-30.722c-3.055-12.775-5.193-21.597-6.11-27.072-.916 4.867-2.75 13.384-5.499 24.943-2.444 11.559-8.248 34.373-17.413 68.44h46.435zM2314.5 788.311h-58.96V619.186h-53.156v-48.06h165.272v48.06H2314.5V788.31zM2596.727 679.414c0 36.502-8.86 64.487-26.884 83.346-18.024 19.163-44.297 28.593-79.123 28.593-34.216 0-60.488-9.734-78.818-28.593-18.024-19.164-27.189-47.148-27.189-83.65 0-36.198 8.86-63.574 27.19-82.738 18.023-19.163 44.601-28.593 79.122-28.593 34.827 0 61.1 9.43 78.818 28.29 18.024 18.858 26.884 46.843 26.884 83.345zm-149.998 0c0 41.977 14.663 62.966 43.99 62.966 14.97 0 25.968-5.171 33.3-15.21 7.026-10.342 10.692-26.16 10.692-47.756 0-21.597-3.666-37.719-10.998-48.06-7.332-10.343-18.33-15.514-32.688-15.514-29.633 0-44.296 21.293-44.296 63.574zM2695.062 709.224v79.087h-58.96V571.125h71.485c59.266 0 88.9 21.293 88.9 64.183 0 25.247-12.22 44.714-36.965 58.402l63.543 94.601h-66.904l-46.13-79.087h-14.969zm0-44.107h10.998c20.774 0 30.855-9.125 30.855-27.072 0-14.905-10.081-22.51-30.244-22.51h-11.609v49.582zM2842.837 571.125h59.266v217.186h-59.266z"/><g><path d="M125.532 791.278C76.74 704.991 54.98 599.411 78.018 513.582c0 0 50.104 127.242 150.315 68.626 80.73-47.221 161.46-171.457 52.836-247.12l-.004.002c-12.036-8.346-25.008-15.253-38.424-21.106-15.098-6.586-30.741-11.847-46.6-16.273l-.04-.01H10.731s30.064-55.76 117.39-77.206c0-28.425 23.072-51.468 51.536-51.468h29.336C275.814 68.913 388.6 8.72 509.434 8.72c51.424 0 100.348 10.73 144.624 30.056 84.766 36.884 151.62 104.826 187.354 188.443l.006-.01c17.643 41.241 27.74 86.418 28.569 133.828l.043 3.256.012 2 .002 1.1c0 85.022-30.368 167.266-85.66 232.072L125.532 791.278zM637.427 61.807v2.069l-2.53 1.529.844 1.527-2.529.764-.842-2.291h-1.686l-1.686 5.345-1.686 3.056 2.528 2.292-1.684 1.527-2.53-.763-2.527-2.292 1.685-1.528h-9.272l3.371 2.291 1.686 2.292 3.372 1.528 1.686 3.055-3.372-.763h-1.686l-1.686 5.346 4.216 2.293-.844 1.527-7.585-1.527v2.291l2.528 1.527.843 2.292h-2.53l-4.213-.764-3.372-4.583-.842-1.528-5.9-2.291.843-.764 11.8.764 2.528-2.292.843-3.055-2.528-2.292-3.372-1.527-10.957-2.292h-5.9l-5.057-1.528-.843 1.528-3.37-1.528 1.684-1.527-7.586-1.527-2.528 1.527h-3.371l-1.686 3.818h-3.372l-4.213 2.292-4.216 6.111-3.37 3.055-4.215 8.403-3.372 6.11-5.057 4.583-6.742 5.347-2.53 3.056.844 10.693 1.686 5.347 5.058 2.292 4.213-1.527 5.9-6.112 2.53 3.056 3.37 6.874 3.371 5.347 1.686 4.583 4.215-.764.842-3.819h4.214l.844-4.582-.844-8.403 3.372-1.528 1.686-5.347-4.214-2.291-3.372-3.056v-6.875l4.214-4.583 2.53-3.818-1.686-2.292.842-3.055 3.371-1.528 4.215 1.528.843 1.528-.843 1.527-1.685 4.583-1.686 3.056v3.054l2.528 3.82.843 4.583 3.37 1.528 2.53 2.291 4.214-1.527 4.215-2.292 5.056-1.528 4.215 1.528-1.686 3.056-3.371.763h-3.372l-6.743 3.056 1.686 3.056 2.53 1.527.841-.764.844 3.055.842 3.819h-2.528l-4.215-3.054-1.686 1.527-.842 3.056.842 3.818 1.686 3.819-4.214 2.291v2.292h-3.371l-.843-1.527-3.371-.765-4.215 3.82-7.586 4.583-1.685-1.527-4.214-1.528-1.686 1.528-4.214.763v-1.527l-4.215-.764v-2.292l-.842-2.291 2.528-3.819.843.763.843-2.292-1.686-.763-.842-1.528.842-1.527v-2.292l-2.528 1.527-.844 1.529-3.371.763-1.686 3.056.843 5.347 1.686 3.054v3.056l.842 2.292-2.528 2.291-.843-.763h-3.37l-.844.763h-3.372l-5.057 2.292-3.372 7.638-1.684 1.527-6.743 1.529-1.686 4.583-10.115 3.819-3.371-2.292.843 6.112-5.9-3.056-5.057.763v3.82l5.9 2.291 2.528 3.056 4.215 6.11-1.686 11.458-2.53 3.055h-10.956l-5.057-1.528h-5.9l-5.057-1.527-6.744 3.818 1.686 2.293-.842 3.819v2.291l.842 2.292v2.291l-1.686 3.056-.842 2.292-2.528 2.291-.843 3.819.843 2.291 1.686.765v3.818l-1.686 4.583 2.528-.763 2.528.763 2.53-1.527 4.213 1.527.844 3.82 1.686 2.292 2.528.763 2.528-2.292 3.371-1.527h11.8l4.215-4.583 4.215-.764 1.686-3.819 3.37-2.291-1.685-3.056 1.685-4.583 3.371-3.056.844-2.291 5.9-.763 4.213-3.82v-3.055l.844-3.82 6.743-1.527 9.271 1.527 4.214-3.056 1.686-.763 2.53-3.055 1.685-.765 4.214 1.529 2.528.763 1.686 5.347 7.585 6.875 4.215 2.291h3.372l3.371 4.583 1.686.764 1.685 3.056 2.53 3.054-.844 1.529-.843 3.054v1.529l1.686-.764 1.686-5.348 1.686-.762v-3.056l-3.372-1.527 1.686-3.82 4.214.764 3.371 2.291.844-2.291v-.764l-4.215-2.292-3.372-1.527-4.214-1.527.843-1.529-1.686-1.527h-3.37l-5.901-4.583-2.528-4.583-4.214-2.291-1.686-3.056v-1.527l-.844-3.056 3.372-2.292 3.372.765-.844.763v2.291l1.686 1.529.843-2.292 2.528.763v1.529l2.53 2.291v1.527l4.213 3.819 4.214 1.528 3.372 1.528 4.215 1.528 2.528.763 1.686 1.529h.842l.844.763v5.347l.842 3.056 2.53 1.527v1.527h.841l.844 1.529 5.9 5.345 1.685 3.82 2.528 4.583 4.216 2.292 3.371-.764-2.53-3.819 2.53-.764-1.686-3.056 5.056.764-.842-3.056-3.371-1.527-3.372-2.291 1.686-1.527-2.528-2.292-1.686-3.056.842-1.527 3.372 2.292h2.53l1.685-1.529-4.215-2.291 5.057-2.292h5.058v1.529l2.528 2.291 2.529-3.82 1.686-2.291 5.056-1.528v-1.527l-4.214-1.528-.842-1.528-2.53-3.055v-4.583l1.686-2.292-.842-6.874h1.686l1.686-1.527-1.686-.765 1.686-4.583V183.8l3.37-1.528.843 2.292h6.743l1.686.764-2.53 2.292v1.527l5.058.764v3.055l2.528.764 4.215-4.583 3.372-1.527v-2.292l-3.372 1.527-2.529-.764-1.686-3.054 2.53-3.056 3.371-.764 1.686-2.292 2.528-.764 2.53-1.527.842.764-4.214 3.819 3.371 1.527-.843 5.347-2.528 1.529 5.056 2.291 5.057.763 6.743 3.056 2.528 1.527h2.53l3.371 1.529 2.528 3.054.844 2.291-3.372 3.82-3.371.763-4.214 2.292-6.743-.763-8.43-2.291-6.742 1.527-4.214 2.291-3.372 4.583-8.429.764-.842 4.583-6.743 1.528-3.372 6.111 3.372 2.292-2.528 3.818 4.214 2.292 4.214 5.347 5.057-.764 5.057 2.291 3.372-1.527v-2.291l5.057-.765 4.214 2.292 6.743-2.292 1.686-3.818 4.214.762 2.53-.762-.844 2.291 2.529 2.292v2.291l1.684 4.583-.842 4.583v11.457l-.842 3.056-.844 2.292-1.685 2.291-3.372.763-4.214-.763-.843 2.292-1.686-3.056h-3.37l-4.216 1.527-1.685 1.529-3.372 2.291-2.528-.764-5.057-.765h-5.058l-6.741.765-1.686-1.527h-5.058l-1.685-.765h-1.686l-2.53-2.291H623.1l-3.372 1.527-3.372 3.056-.843 3.055 1.686 4.583-1.686 3.056-2.528 1.527-5.9-2.291-8.429-2.292-5.057-.764-3.372-5.347-7.585-2.292-3.372-.762-2.528.762-5.9-1.527-1.685-.764-1.686-3.054h-2.53l-1.685-3.056 3.372-3.056V255.6l-1.686-1.528v-3.055l2.53-3.056-.844-.764-4.214 2.292v-3.055l-3.372-.764-5.9 3.056h-3.371l-1.686-.765h-5.057l-5.058 2.292-2.528-.764-16.858 1.528-5.056 1.527-3.371 2.292-5.901.764-5.056 3.055h-2.53l-5.057-1.528h-5.057l-2.571-2.95-3.329-.105-1.686 3.82-4.213 6.11-4.216 2.291-5.9 2.292-3.37 3.056-.843 3.054-2.53 4.584v7.638l-5.055 4.583-2.53 1.528-5.057 3.819h-5.056l-3.372 2.291-4.215 5.348-4.214 1.527-2.528 3.82-.843 3.054-1.686 3.056-5.057 4.583-2.528 4.583v2.291l-2.53 2.292-2.528 1.527-.842 3.056-.844 2.291 2.53 3.056.842 3.056-.842 3.054v9.166l-1.686 5.347-1.686 3.056v3.055l-3.371 6.111v3.056l1.685 5.346-.843 2.291.843 6.112 1.686 2.291.842 1.527 2.53.765 5.056 4.583.843 1.527.843 3.056 1.685 1.527 1.686.764 2.53 2.292 2.527 3.818.843 4.583.843 2.292 3.372 3.82 4.214 3.054 1.685.764 4.214 3.82 5.058 3.82 5.057 4.582 5.9 3.056h2.529l5.9-1.529 4.213-1.527 7.587-.764h4.214l4.214 1.528h2.53l5.899 1.528 5.9-1.528 3.37-1.528 10.116-3.055 10.114-1.528h10.957l4.214 3.82 1.686 3.819 3.372 3.818h5.057l2.528-1.527h2.53l6.741-2.291v1.527l1.686.764 1.686 2.292 2.53.764 2.527 3.818-3.371 5.348-1.686 6.874.843.763-.843 3.82-1.686 3.819-1.686 1.528v1.528l4.215 5.347 4.214 4.583 6.743 5.346 5.058 5.347 1.685 3.82v2.291l3.37 3.055.844 3.056 1.686 4.583-1.686 2.291v.764l3.372 6.11 1.686 1.528v3.055l-2.53 6.112-1.685 2.291-3.37 3.055-1.687 2.291-2.529 4.583-.842 2.292-2.53 4.583-.842 3.82v6.874l4.214 3.819.844 3.056 2.528 5.347 2.528 3.054 1.686 1.529.843 2.291v5.346l.842 6.112.844 3.055.842 3.82 1.686 2.29 3.371 2.292 3.372 4.583 1.686 3.056 2.528 3.054 1.686 2.292-1.686.764.843 2.291-.843 2.292.843.764v-.764l1.686 1.529h1.686l1.686.762h2.528l3.371-1.527 4.214-.764 5.901-2.292h1.686l3.37-.764h5.058l2.529-.763h2.528l.844-.764 2.528-.764 5.9-2.292 4.214-2.291 4.214-3.055 6.743-4.583 3.372-3.055 1.686-2.292 3.37-3.056 4.215-2.291 1.686-2.292 1.686-3.055 2.528-3.055.843-2.291h-.843v-1.529l2.529-2.291 6.742-3.819 4.215-2.291 2.528-2.292 1.686-2.291-.842-.765 1.684-2.291 1.686-4.583-.842.764v-6.111l.842-3.055 2.53-1.528 4.213-3.819 2.53-1.527 6.741-6.112 5.901-3.818 5.056-3.056 3.372-3.819 5.057-7.639v-2.291l.844-7.639v-4.583l.842-5.346v-2.291l-1.686-.764-1.686-4.583-1.685-3.056.843-2.292v-1.527l1.686-3.82v-1.527l-3.372-.764v-3.055l2.528-7.638 2.53-2.292.842-3.82 1.686-2.291.843-3.82 1.685-.763 1.685-2.292 3.372-3.054.844-1.529.842-3.054 5.057-8.403 4.214-5.347 13.486-15.277 5.058-9.93 3.371-7.638 3.372-9.93 1.686-8.402 1.684-7.638v-6.875l.844-2.292-.844-3.054v-5.348l-1.684.765-1.686 3.054-2.53 1.529-1.685 2.291-1.686.763-2.528.764-3.372 3.056-4.213 3.056-5.058 2.291-4.215 3.055-2.528.764-2.528-1.527-.844-2.292-1.685-.764-2.528-.764 2.528-2.292v-2.291l-4.214-2.292-1.686-1.527-6.743-4.583-7.585-3.82-3.372-2.291-2.528-5.346-3.372-6.875-3.371-1.528-2.53-.765-2.528-6.874-1.685-6.11.843-1.527-2.53-5.348-1.685-.764-6.743-3.819-.842-3.818.842-1.529-5.9-5.347-5.057-6.11-5.9-8.402-4.214-5.347-3.775-5.823-.216-2.164 6.52 8.751 4.213 3.819.844-.764.842-3.055-.838-4.34 1.682-2.534.797 8.013 1.73-.376 3.372 3.82 4.214 3.819 3.372 3.819 1.685.764 1.686 3.056v1.527l2.53 3.056 2.528.762 2.528 1.529 4.215 6.11.842 3.82 1.686 3.819 4.215 4.583h2.528l4.214 3.056 2.53 4.583 3.37 4.583 2.529 1.527.843 2.291 1.685 1.529 1.685 4.583v1.527l.844 2.291-.844.765 1.686 2.291 1.686 3.819.844 1.527v3.056l1.883 2.702 3.174-.41 1.686-1.528 2.528-.764.842-1.527.844-.765.842-1.527.843-.764 3.372-1.527 2.528-2.292 2.53-3.056h1.684l1.686-.764 3.371-5.346 5.901-5.347 3.372-3.82v-5.346l2.528-3.056 1.686-.764 2.528-3.054 2.529-.765 1.686-2.291-.844-2.292.844-2.291 2.528-.764.843-1.528v-3.055l1.685-3.056 1.686-.763v-.764l-1.686-3.819v-4.583l1.686-.764v-4.583l.843-2.292v-5.347l-.843-1.527h-1.686l-.842-3.819-2.528-2.291h-2.53l-2.528.763-2.53-.763-3.37-3.056-2.529-4.583v-1.529l-.842-2.291h-.844v6.112l-1.685 4.582-.843 5.348-2.529.763-3.372 1.528-2.528 2.292-.843-1.529-.842.764-1.686-1.527v-3.82l-.842-3.054-1.686-1.529-.844.764v3.82l-2.528-.764-.843-1.528v-2.292l-.843-2.291-4.215-1.527-1.684-1.529-2.53-.763-3.371-4.583-2.528-3.82v-1.527l-1.686-2.292 2.528-.764.844-3.054 3.371.763 1.686-1.528 5.9 6.11 4.213 5.348h4.216l5.056 3.056h5.057l2.53-4.583 2.527-2.292h1.686l4.214 6.11 4.215-1.527 4.214-.764 6.743-1.527 8.43-6.112 4.213-4.583s2.433-3.132 4.357-5.497C783.61 152.068 717.136 86.363 637.427 61.807zm146.657 434.401l-.843-1.527-1.686-1.528-1.686 3.055-.842 3.056-2.53 3.819-1.685.764v1.527l-1.685 3.056-4.215 4.583-3.371 3.819h-2.528l-4.214 3.82-2.53.763-3.371 6.111-.842 4.583v4.583l-.844 3.056-3.372 4.583-.842 1.527-1.686.764-2.528 3.819v6.11l-.843 3.82v1.527l2.53.765h2.527l4.214-3.056 4.215-2.292 3.372-5.347 4.214-6.874 5.9-9.93 4.214-6.874 3.37-6.111.844-4.583 1.686-1.527.842-2.292 1.686-2.291 1.686-1.529.843-3.054-.843-1.529.843-6.11v-3.056zM635.741 254.072l6.744-1.528.842-2.291-2.528 1.527v-1.527h-4.215l-3.372 1.527-3.372-2.291v3.055h5.901v1.528zm39.614-5.346l4.214-3.056-.842-.764v-.765l1.686-3.054-3.372 2.291-3.371.763v1.529l-2.528.764 1.685 2.292h2.528zm-92.714-1.529l4.214 1.529.843-3.056-.843-1.529.843-4.583-3.371.765-5.058.764h-5.9v3.054l6.744 2.293 2.528.763zm-29.5-11.457l1.686 1.527 1.686-2.292h2.528v-7.637l-3.371-3.82-1.686 2.292-3.372-.763 1.686 3.818.844 6.875zm1.966-14.136l1.82-4.513-1.82-4.513-2.73 2.257-.91 1.504 1.82 3.76 1.82 1.505zm196.949-11.07l-4.216 3.818-5.9.764-3.37-1.527h-4.214l-3.372-3.82-1.686-2.291.844-1.527v-2.292l-1.686-4.583 2.528-1.528-1.686-.763h-1.686l-3.371-3.056-10.114-6.875-1.685-3.818-5.901-3.82v-6.11l2.529-2.292-.844-3.82 2.53-2.291 1.686-3.82h3.371l2.528-1.526 2.528 3.054 2.53 5.347h-3.372l-1.686 1.527 2.528 3.82-3.371.763.843 1.529 2.528.763 4.215 3.82h5.058l1.684 1.527.844 2.292.842 1.528 3.372 3.055-1.686-3.82 1.686-2.29 2.529 2.29 4.214 2.292-1.686 3.056h-3.372l1.686 4.583 2.53-.764 1.685 3.819 3.37.764 2.53 6.11 2.528 3.82-.842 2.291zm-239.372-60.345l-2.528-6.11v-.764l-4.215-.763 4.215-3.82.842-4.583h-3.372l-3.371.764 4.215-5.347h-6.743l-3.372 3.82-1.685 4.583.843 3.054-.843 4.583 2.529-2.291.842 1.528-1.686 2.292.844 1.527 4.214.764v.763l2.528 3.056-1.686 3.056-5.056-.764-.844 3.055 1.686 3.056-5.057 1.527.843 2.292 5.9.764h.842l-4.214 1.527-6.743 5.348 2.53.762 2.528-1.527 4.213.765 2.53-2.292 1.685.763 6.744-1.527 5.9.764 3.37-3.056-1.685-2.291 2.528-1.527.844-3.82-5.058-.763-.843-2.292-1.686-6.111-2.528-.765zm-19.386 3.056l2.53-3.819-3.372-3.055h-2.53l-3.371 2.291-5.9 3.056.844 5.347-4.215 5.346 5.057 1.529 7.585-2.292 3.372-4.583v-3.82zm-14.616-55.757l-.91-3.01 1.82-3.009-4.549-.752-5.46 1.505-2.729-1.505-4.548 1.505-2.73-3.009h-3.64l-3.638 2.256 4.548 2.257-.91.752h-4.548l3.639 3.01-3.639 1.504 7.278 3.009 2.73.752h2.73l10.007-2.256 4.549-3.009zm25.474-57.17h.911l1.82-.752 5.458-1.504v-1.505l-1.82-.752h-5.458l-3.64.752v-1.504l-.91-1.504-2.729-.752v-.752l4.549.752 2.73.752 2.73-.752-1.82-3.01-4.55-1.504-2.729-.753-1.82.753-1.819-.753-5.46.753-1.819.752-.91.752-.91-.752.91-1.505h-2.729l-1.82-1.504h-2.73l-1.819-.752-2.729 1.504-1.82-.752h-5.459l-2.73.752-.909 1.505h-7.279l-4.548-1.505-2.73.752-1.82 2.257.91 2.258-1.82-.753-2.729-.752-3.639 2.257-.91.752.91 1.504 1.82.752.91 1.505-.91 3.008-2.73.752-.91 1.505-5.459 3.762-4.55 3.76-6.368 1.505v1.504h1.82l-.91 1.504-.91 3.01-2.729-2.258-7.279 3.01v2.257h7.28l-4.55 2.256-2.73.752h-4.548l-7.28 3.009-.91 2.256-4.549 1.506-2.73 4.513-4.548 3.009-8.188 13.54-.91 3.008 3.639 1.506v5.265l3.64.752 5.458-3.76 4.549-3.01 2.73-3.01 6.368-2.256 4.55-2.256 2.73-2.257 4.548-2.256h9.098l7.28-.752 7.278-3.762 3.639-.752 1.82.752h7.278l14.573-3.885-5.474-2.133 3.639-1.504 1.819-3.01v2.258l.91 2.256h3.64l1.82-3.762-.91-2.256-1.821-1.504 1.82-.752 2.73 2.256.91-1.504v-3.009h5.458l1.82-.752-.91-2.256 3.64.752v-3.761h1.819l1.82-3.01-.91-2.256 3.639-.753 1.82.753v-2.257l2.73-3.76 2.729-2.258 3.638-2.257z"/></g></svg>