<svg viewBox="0 0 800 800" xmlns="http://www.w3.org/2000/svg"><title>MotoViaggiatori.it</title><path d="M188.012 704.668l-27.033-94.763h-.74c1.295 16.04 1.85 28.576 1.85 37.61v57.153h-31.662V573.032h47.586l27.59 93.473h.74l27.033-93.473h47.586v131.636H248.19v-57.706c0-2.95 0-6.268.185-9.956 0-3.687.37-12.72 1.111-26.917h-.74l-26.663 94.579h-34.07zM433.127 638.666c0 22.123-5.37 39.085-16.294 50.515-10.924 11.615-26.848 17.33-47.956 17.33-20.738 0-36.662-5.899-47.772-17.33-10.924-11.615-16.479-28.576-16.479-50.7 0-21.939 5.37-38.532 16.48-50.147 10.924-11.615 27.033-17.33 47.956-17.33 21.108 0 37.032 5.715 47.771 17.146 10.925 11.43 16.294 28.392 16.294 50.516zm-90.913 0c0 25.442 8.887 38.163 26.663 38.163 9.073 0 15.738-3.134 20.182-9.218 4.259-6.269 6.48-15.855 6.48-28.945s-2.221-22.861-6.665-29.13c-4.444-6.268-11.11-9.402-19.812-9.402-17.96 0-26.848 12.905-26.848 38.532zM509.8 704.668h-35.735V602.162h-32.218v-29.13h100.172v29.13H509.8v102.506zM680.851 638.666c0 22.123-5.37 39.085-16.294 50.515-10.924 11.615-26.848 17.33-47.956 17.33-20.738 0-36.662-5.899-47.772-17.33-10.924-11.615-16.479-28.576-16.479-50.7 0-21.939 5.37-38.532 16.48-50.147 10.924-11.615 27.033-17.33 47.956-17.33 21.108 0 37.032 5.715 47.771 17.146 10.925 11.43 16.294 28.392 16.294 50.516zm-90.913 0c0 25.442 8.887 38.163 26.663 38.163 9.073 0 15.738-3.134 20.182-9.218 4.259-6.269 6.48-15.855 6.48-28.945s-2.221-22.861-6.665-29.13c-4.444-6.268-11.11-9.402-19.812-9.402-17.96 0-26.848 12.905-26.848 38.532zM159.799 729.13h18.555l-20.101 61.072h-19.5l-20.016-61.071h18.641l8.333 30.963c1.718 6.843 2.663 11.633 2.835 14.37.171-1.968.6-4.362 1.202-7.356.602-2.908 1.117-5.218 1.546-6.843l8.505-31.134zM184.956 729.13h16.665v61.072h-16.665zM252.488 790.202l-3.006-11.462h-19.93l-3.092 11.462h-18.212l20.016-61.328h22.077l20.273 61.328h-18.126zm-6.442-24.976l-2.663-10.007a366.003 366.003 0 01-2.234-8.64c-.859-3.592-1.46-6.072-1.718-7.612-.258 1.369-.773 3.764-1.546 7.014-.687 3.25-2.32 9.665-4.897 19.245h13.058zM300.17 754.449h26.458v32.93c-7.216 2.395-15.119 3.678-23.71 3.678-9.449 0-16.75-2.737-21.905-8.21-5.154-5.475-7.73-13.259-7.73-23.352 0-9.836 2.834-17.534 8.418-23.008 5.67-5.474 13.572-8.212 23.795-8.212 3.866 0 7.474.343 10.91 1.112 3.436.685 6.442 1.626 8.934 2.737l-5.24 12.916c-4.382-2.138-9.278-3.25-14.518-3.25-4.897 0-8.59 1.54-11.254 4.704-2.663 3.165-3.951 7.613-3.951 13.429 0 5.73 1.203 10.093 3.608 13.087 2.405 2.993 5.841 4.447 10.308 4.447 2.491 0 4.725-.256 6.787-.684v-9.58h-10.91V754.45zM363.758 754.449h26.458v32.93c-7.216 2.395-15.119 3.678-23.71 3.678-9.449 0-16.75-2.737-21.905-8.21-5.154-5.475-7.73-13.259-7.73-23.352 0-9.836 2.834-17.534 8.418-23.008 5.67-5.474 13.572-8.212 23.795-8.212 3.866 0 7.474.343 10.91 1.112 3.436.685 6.442 1.626 8.934 2.737l-5.24 12.916c-4.382-2.138-9.278-3.25-14.518-3.25-4.897 0-8.59 1.54-11.254 4.704-2.663 3.165-3.951 7.613-3.951 13.429 0 5.73 1.203 10.093 3.608 13.087 2.405 2.993 5.841 4.447 10.308 4.447 2.491 0 4.725-.256 6.787-.684v-9.58h-10.91V754.45zM402.693 729.13h16.665v61.072h-16.665zM470.225 790.202l-3.006-11.462h-19.93l-3.092 11.462h-18.212l20.016-61.328h22.077l20.273 61.328h-18.126zm-6.442-24.976l-2.663-10.007a366.003 366.003 0 01-2.234-8.64c-.859-3.592-1.46-6.072-1.718-7.612-.258 1.369-.773 3.764-1.546 7.014-.687 3.25-2.32 9.665-4.897 19.245h13.058zM516.033 790.202h-16.58v-47.557h-14.946v-13.514h46.473v13.514h-14.947v47.557zM595.391 759.58c0 10.265-2.491 18.134-7.56 23.437-5.068 5.389-12.455 8.04-22.248 8.04-9.622 0-17.01-2.737-22.163-8.04-5.069-5.388-7.646-13.258-7.646-23.522 0-10.178 2.491-17.876 7.646-23.265 5.068-5.389 12.541-8.04 22.249-8.04 9.793 0 17.18 2.651 22.163 7.955 5.068 5.303 7.56 13.172 7.56 23.436zm-42.178 0c0 11.805 4.123 17.706 12.37 17.706 4.209 0 7.301-1.454 9.363-4.276 1.976-2.908 3.007-7.356 3.007-13.43 0-6.072-1.031-10.605-3.093-13.513-2.061-2.909-5.154-4.363-9.191-4.363-8.333 0-12.456 5.988-12.456 17.877zM623.041 767.963v22.239h-16.58v-61.071h20.102c16.665 0 24.998 5.987 24.998 18.047 0 7.1-3.436 12.574-10.394 16.423l17.868 26.601h-18.813l-12.972-22.239h-4.209zm0-12.402h3.093c5.84 0 8.676-2.566 8.676-7.613 0-4.19-2.835-6.33-8.505-6.33h-3.264v13.943zM664.598 729.13h16.665v61.072h-16.665z"/><path d="M117.117 617.48C99.016 573.314 78.92 501.716 98.113 430.117c0 0 41.741 106.145 125.227 57.247 67.256-39.391 134.51-143.028 44.017-206.145h-.003c-10.027-6.962-20.834-12.723-32.011-17.606-12.578-5.494-25.61-9.883-38.822-13.575l-.034-.01H42.057s25.046-46.513 97.797-64.404c0-23.712 19.222-42.934 42.935-42.934h24.44C262.896 59.175 356.857 8.962 457.523 8.962c42.842 0 83.6 8.95 120.486 25.073 70.619 30.768 126.314 87.446 156.084 157.2l.004-.01c14.699 34.403 23.111 72.09 23.801 111.639l.036 2.717.01 1.667.002.918c0 70.926-25.3 139.534-71.363 193.595l-198.821 57.96h-59.27v17.278l-3.028.883c-13.052-13.116-31.721-20.232-56.415-20.232-25.292 0-44.36 7.54-57.622 21.47-8.048 8.451-13.84 19.161-17.1 32.22v-51.619h-71.011l-17.49 60.461-17.843-60.461h-70.866v57.76zM564.154 53.247v1.726l-2.107 1.275.703 1.274-2.108.638-.701-1.912h-1.405l-1.404 4.46-1.405 2.55 2.107 1.91-1.404 1.275-2.107-.637-2.106-1.911 1.404-1.275h-7.725l2.81 1.911 1.404 1.912 2.809 1.275 1.404 2.548-2.809-.637h-1.404l-1.405 4.46L552.217 76l-.703 1.274-6.32-1.274v1.912l2.107 1.274.703 1.912h-2.108l-3.51-.638-2.809-3.823-.702-1.274-4.916-1.912.703-.637 9.831.637 2.106-1.911.702-2.55-2.106-1.91-2.809-1.275-9.128-1.911h-4.915l-4.213-1.275-.703 1.275-2.808-1.275 1.403-1.274-6.319-1.274-2.106 1.274h-2.809l-1.404 3.185h-2.81l-3.51 1.912-3.511 5.098-2.808 2.548-3.512 7.01-2.809 5.097-4.213 3.823-5.616 4.46-2.108 2.55.703 8.92 1.405 4.46 4.213 1.912 3.51-1.274 4.915-5.098 2.108 2.549 2.807 5.734 2.81 4.461 1.404 3.823 3.511-.637.702-3.186h3.51l.703-3.823-.703-7.01 2.81-1.274 1.404-4.46-3.51-1.912-2.81-2.549V91.93l3.51-3.823 2.108-3.185-1.404-1.912.701-2.549 2.809-1.274 3.512 1.274.701 1.275-.701 1.274-1.405 3.823-1.404 2.55v2.547l2.106 3.187.703 3.823 2.807 1.274 2.108 1.912 3.51-1.274 3.512-1.912 4.212-1.275 3.511 1.275-1.404 2.55-2.809.636h-2.809l-5.617 2.549 1.404 2.549 2.107 1.274.702-.638.703 2.55.701 3.185h-2.106l-3.511-2.548-1.405 1.274-.701 2.549.701 3.186 1.405 3.185-3.51 1.912v1.911h-2.81l-.701-1.274-2.81-.637-3.51 3.186-6.32 3.823-1.405-1.274-3.51-1.275-1.405 1.275-3.51.637v-1.274l-3.512-.638v-1.911l-.701-1.912 2.106-3.185.703.636.701-1.911-1.404-.637-.702-1.275.702-1.274v-1.912l-2.106 1.274-.703 1.276-2.809.636-1.404 2.55.702 4.46 1.405 2.548v2.549l.701 1.911-2.106 1.912-.702-.636h-2.808l-.703.636h-2.809l-4.213 1.911-2.809 6.373-1.403 1.274-5.618 1.275-1.404 3.823-8.427 3.185-2.809-1.911.703 5.098-4.916-2.549-4.212.636v3.187l4.915 1.912 2.106 2.549 3.512 5.097-1.405 9.558-2.107 2.549h-9.128l-4.214-1.275h-4.915l-4.213-1.274-5.618 3.185 1.405 1.913-.702 3.185v1.912l.702 1.911v1.912l-1.405 2.55-.701 1.91-2.106 1.912-.703 3.186.703 1.911 1.404.638v3.185l-1.404 3.823 2.106-.636 2.106.636 2.107-1.274 3.51 1.274.703 3.187 1.405 1.912 2.106.636 2.106-1.911 2.809-1.274h9.83l3.511-3.824 3.512-.637 1.404-3.186 2.808-1.911-1.403-2.55 1.403-3.822 2.809-2.55.703-1.911 4.915-.636 3.51-3.187v-2.548l.703-3.187 5.618-1.274 7.723 1.274 3.51-2.549 1.405-.636 2.108-2.55 1.404-.637 3.51 1.275 2.107.637 1.404 4.46 6.32 5.735 3.51 1.911h2.81l2.809 3.823 1.404.638 1.403 2.55 2.108 2.547-.703 1.275-.702 2.548v1.275l1.405-.637 1.404-4.46 1.404-.637v-2.55l-2.808-1.273 1.404-3.187 3.51.638 2.81 1.911.702-1.911v-.638l-3.512-1.912-2.808-1.274-3.51-1.274.7-1.275-1.404-1.274h-2.807l-4.916-3.823-2.106-3.823-3.511-1.911-1.404-2.55v-1.274l-.703-2.549 2.809-1.911 2.809.637-.703.637v1.911l1.404 1.275.703-1.911 2.106.636v1.275l2.107 1.912v1.274l3.51 3.186 3.511 1.275 2.81 1.274 3.51 1.275 2.107.636 1.404 1.275h.702l.703.637v4.46l.701 2.55 2.107 1.274v1.273h.702l.703 1.276 4.915 4.46 1.404 3.186 2.106 3.823 3.512 1.911 2.809-.637-2.107-3.186 2.107-.637-1.405-2.55 4.213.638-.702-2.549-2.809-1.274-2.809-1.911 1.405-1.274-2.106-1.912-1.405-2.549.702-1.274 2.809 1.912h2.107l1.404-1.276-3.511-1.911 4.213-1.912h4.213v1.275l2.106 1.912 2.107-3.187 1.405-1.911 4.212-1.274v-1.274l-3.51-1.275-.702-1.274-2.107-2.55v-3.823l1.404-1.911-.702-5.735h1.405l1.404-1.274-1.404-.637 1.404-3.823v-2.55l2.808-1.273.703 1.911h5.617l1.405.638-2.107 1.911v1.274l4.213.638v2.548l2.106.637 3.512-3.823 2.809-1.274v-1.911l-2.81 1.274-2.107-.638-1.404-2.548 2.107-2.549 2.81-.638 1.404-1.911 2.106-.638 2.107-1.274.701.638-3.51 3.185 2.809 1.274-.703 4.461-2.106 1.275 4.212 1.912 4.213.636 5.618 2.55 2.106 1.273h2.107l2.81 1.275 2.105 2.548.703 1.912-2.809 3.187-2.809.636-3.51 1.912-5.618-.637-7.022-1.911-5.618 1.274-3.51 1.911-2.809 3.823-7.022.638-.702 3.823-5.618 1.274-2.808 5.098 2.808 1.912-2.106 3.185 3.51 1.912 3.511 4.46 4.214-.637 4.213 1.911 2.809-1.274v-1.911l4.213-.638 3.51 1.912 5.618-1.912 1.405-3.185 3.51.636 2.107-.636-.702 1.911 2.107 1.912v1.911l1.403 3.823-.701 3.824v9.557l-.702 2.55-.703 1.91-1.404 1.912-2.81.637-3.51-.637-.702 1.912-1.405-2.55h-2.808l-3.511 1.275-1.405 1.275-2.809 1.912-2.106-.638-4.213-.638h-4.213l-5.617.638-1.404-1.274h-4.213l-1.405-.638h-1.404l-2.107-1.911h-5.617l-2.809 1.274-2.809 2.549-.703 2.55 1.405 3.822-1.405 2.55-2.106 1.273-4.915-1.911-7.022-1.912-4.213-.637-2.809-4.461-6.32-1.912-2.808-.636-2.106.636-4.915-1.274-1.404-.637-1.405-2.548h-2.107l-1.404-2.55 2.808-2.548v-4.46l-1.404-1.275v-2.548l2.107-2.549-.703-.638-3.51 1.912v-2.548l-2.809-.638-4.915 2.55h-2.809l-1.404-.638h-4.213l-4.214 1.912-2.106-.638-14.044 1.275-4.212 1.274-2.81 1.912-4.915.637-4.212 2.548h-2.107l-4.214-1.274h-4.213l-2.142-2.461-2.773-.088-1.404 3.187-3.51 5.097-3.513 1.911-4.914 1.912-2.81 2.549-.7 2.548-2.108 3.824v6.371l-4.212 3.823-2.107 1.276-4.214 3.185h-4.212l-2.809 1.912-3.511 4.46-3.51 1.274-2.107 3.187-.703 2.548-1.404 2.549-4.213 3.823-2.107 3.823v1.912l-2.107 1.911-2.106 1.274-.701 2.55-.703 1.91 2.107 2.55.702 2.55-.702 2.547v7.646l-1.404 4.461-1.405 2.55v2.547l-2.809 5.098v2.55l1.405 4.459-.703 1.911.703 5.099 1.404 1.911.702 1.274 2.107.638 4.212 3.823.703 1.274.702 2.549 1.404 1.274 1.404.637 2.108 1.912 2.106 3.186.701 3.823.703 1.911 2.809 3.187 3.51 2.548 1.405.637 3.51 3.186 4.214 3.187 4.213 3.823 4.915 2.549h2.107l4.915-1.275 3.51-1.274 6.321-.638h3.51l3.511 1.275h2.107l4.915 1.274 4.915-1.274 2.809-1.275 8.426-2.548 8.427-1.275h9.128l3.51 3.187 1.405 3.185 2.809 3.186h4.213l2.106-1.274h2.108l5.616-1.912v1.274l1.405.638 1.404 1.911 2.107.638 2.106 3.185-2.809 4.461-1.404 5.735.703.636-.703 3.187-1.404 3.185-1.405 1.276v1.274l3.512 4.46 3.51 3.823 5.618 4.46 4.213 4.46 1.405 3.187v1.912l2.807 2.548.703 2.549 1.405 3.823-1.405 1.911v.638l2.809 5.097 1.404 1.274v2.55l-2.107 5.097-1.404 1.912-2.808 2.548-1.404 1.911-2.108 3.824-.701 1.911-2.107 3.823-.702 3.187v5.734l3.51 3.186.703 2.55 2.106 4.46 2.106 2.548 1.405 1.275.703 1.911v4.46l.701 5.098.703 2.55.702 3.185 1.404 1.911 2.809 1.912 2.809 3.823 1.404 2.55 2.106 2.547 1.405 1.912-1.405.637.703 1.912-.703 1.911.703.638v-.638l1.404 1.275h1.405l1.404.637h2.106l2.81-1.274 3.51-.638 4.916-1.911h1.404l2.808-.638h4.213l2.107-.636h2.106l.703-.638 2.106-.637 4.915-1.912 3.512-1.911 3.51-2.548 5.618-3.824 2.809-2.549 1.404-1.911 2.808-2.55 3.512-1.91 1.404-1.912 1.405-2.55 2.106-2.548.702-1.911h-.702v-1.275l2.107-1.912 5.616-3.185 3.512-1.912 2.106-1.911 1.405-1.912-.702-.637 1.403-1.912 1.405-3.823-.702.637v-5.098l.702-2.548 2.107-1.275 3.51-3.185 2.108-1.274 5.616-5.099 4.916-3.185 4.212-2.55 2.81-3.185 4.212-6.372v-1.912l.703-6.372v-3.823l.702-4.46v-1.91l-1.405-.638-1.404-3.824-1.404-2.549.702-1.911v-1.274l1.405-3.187v-1.274l-2.809-.637v-2.548l2.106-6.373 2.107-1.911.702-3.187 1.404-1.911.703-3.186 1.403-.637 1.405-1.912 2.809-2.548.702-1.275.702-2.548 4.213-7.01 3.51-4.46 11.236-12.744 4.214-8.284 2.808-6.372 2.81-8.282 1.404-7.01 1.403-6.371V307.3l.703-1.911-.703-2.548v-4.461l-1.403.637-1.405 2.548-2.107 1.276-1.404 1.911-1.405.637-2.106.637-2.809 2.55-3.51 2.548-4.214 1.912-3.511 2.548-2.106.637-2.106-1.274-.703-1.911-1.404-.638-2.107-.637 2.107-1.912v-1.911l-3.511-1.912-1.404-1.274-5.618-3.823-6.32-3.187-2.808-1.911-2.106-4.46-2.81-5.734-2.808-1.276-2.107-.637-2.106-5.735-1.405-5.097.703-1.274-2.107-4.46-1.405-.638-5.617-3.186-.702-3.185.702-1.275-4.915-4.46-4.214-5.098-4.914-7.009-3.511-4.46-3.145-4.858-.18-1.805 5.431 7.3 3.51 3.186.703-.638.702-2.548-.698-3.62 1.4-2.114.665 6.684 1.442-.313 2.809 3.186 3.51 3.186 2.81 3.186 1.403.637 1.405 2.55v1.273l2.107 2.55 2.106.636 2.106 1.275 3.512 5.097.702 3.187 1.404 3.185 3.512 3.823h2.106l3.51 2.55 2.107 3.822 2.81 3.823 2.105 1.274.703 1.912 1.403 1.275 1.405 3.823v1.274l.703 1.912-.703.637 1.404 1.912 1.405 3.185.702 1.274v2.55l1.569 2.254 2.645-.343 1.404-1.274 2.106-.637.702-1.274.703-.638.701-1.274.703-.638 2.809-1.274 2.106-1.911 2.107-2.55h1.403l1.405-.637 2.809-4.46 4.916-4.46 2.809-3.187v-4.46l2.106-2.548 1.404-.638 2.106-2.548 2.107-.637 1.405-1.912-.703-1.911.703-1.912 2.106-.638.703-1.274v-2.549l1.403-2.549 1.404-.636v-.638l-1.404-3.185v-3.823l1.404-.638v-3.823l.703-1.912v-4.46l-.703-1.274h-1.404l-.702-3.186-2.106-1.911h-2.107l-2.106.636-2.107-.636-2.809-2.55-2.106-3.823v-1.275l-.702-1.911h-.703v5.098l-1.404 3.823-.702 4.46-2.107.637-2.809 1.275-2.106 1.912-.703-1.275-.701.637-1.405-1.274V235.3l-.701-2.548-1.405-1.275-.702.637v3.186l-2.107-.637-.702-1.275v-1.911l-.702-1.912-3.512-1.274-1.403-1.275-2.107-.637-2.809-3.823-2.106-3.186v-1.274l-1.404-1.912 2.106-.637.702-2.548 2.81.636 1.404-1.274 4.915 5.097 3.51 4.46h3.512l4.212 2.55h4.213l2.107-3.823 2.106-1.912h1.405l3.51 5.097 3.512-1.274 3.51-.637 5.618-1.274 7.022-5.098 3.51-3.823s2.028-2.614 3.63-4.586C685.94 128.543 630.56 73.731 564.155 53.247zm122.18 362.377l-.703-1.274-1.405-1.275-1.404 2.549-.702 2.55-2.107 3.185-1.405.637v1.274l-1.403 2.55-3.511 3.822-2.81 3.186h-2.105l-3.51 3.187-2.108.636-2.809 5.098-.702 3.823v3.823l-.702 2.55-2.81 3.823-.7 1.274-1.405.637-2.106 3.186v5.097l-.703 3.186v1.274l2.107.638h2.106l3.51-2.55 3.512-1.91 2.81-4.461 3.51-5.735 4.915-8.283 3.511-5.734 2.808-5.098.703-3.824 1.404-1.274.702-1.911 1.404-1.912 1.405-1.275.702-2.548-.702-1.275.702-5.097v-2.549zM562.75 213.634l5.617-1.274.702-1.911-2.106 1.274v-1.274h-3.512l-2.809 1.274-2.808-1.912v2.55h4.916v1.273zm33.002-4.46l3.51-2.549-.701-.637v-.638l1.404-2.548-2.809 1.912-2.809.636v1.275l-2.106.638 1.405 1.912h2.106zm-77.24-1.275l3.51 1.276.703-2.55-.703-1.275.703-3.823-2.809.638-4.213.637h-4.915v2.548l5.618 1.913 2.106.636zm-24.576-9.557l1.405 1.274 1.404-1.912h2.106v-6.37l-2.809-3.188-1.404 1.912-2.81-.636 1.405 3.185.703 5.735zm1.637-11.792l1.516-3.765-1.516-3.765-2.273 1.883-.758 1.255 1.516 3.137 1.515 1.255zm164.077-9.235l-3.511 3.185-4.915.638-2.809-1.274h-3.51l-2.81-3.187-1.404-1.911.703-1.274v-1.912l-1.404-3.823 2.106-1.275-1.405-.637h-1.404l-2.809-2.549-8.425-5.734-1.405-3.186-4.916-3.187v-5.097l2.107-1.911-.703-3.187 2.108-1.911 1.404-3.186h2.809l2.106-1.274 2.106 2.548 2.107 4.46h-2.809l-1.404 1.275 2.106 3.186-2.809.637.703 1.275 2.106.636 3.512 3.187h4.213l1.403 1.274.703 1.912.702 1.275 2.809 2.548-1.405-3.186 1.405-1.911 2.107 1.911 3.51 1.912-1.404 2.549h-2.809l1.404 3.823 2.108-.638 1.404 3.186 2.808.637 2.107 5.097 2.106 3.187-.702 1.912zm-199.419-50.34l-2.106-5.096v-.638l-3.512-.636 3.512-3.187.702-3.823h-2.81l-2.808.637 3.512-4.46h-5.618l-2.81 3.186-1.403 3.824.702 2.548-.702 3.823 2.107-1.912.701 1.275-1.404 1.912.703 1.274 3.51.637v.637l2.106 2.549-1.404 2.549-4.212-.638-.703 2.55 1.404 2.549-4.213 1.274.703 1.911 4.915.638h.701l-3.51 1.274-5.618 4.46 2.107.637 2.107-1.274 3.51.637 2.107-1.911 1.405.636 5.617-1.274 4.915.638 2.81-2.55-1.405-1.91 2.106-1.275.703-3.187-4.214-.636-.702-1.911-1.405-5.099-2.106-.637zm-16.15 2.55l2.107-3.186-2.809-2.549h-2.107l-2.809 1.912-4.915 2.549.703 4.46-3.512 4.46 4.213 1.275 6.32-1.911 2.809-3.823v-3.187zm-12.177-46.513l-.758-2.51 1.516-2.51-3.79-.628-4.548 1.255-2.273-1.255-3.79 1.255-2.274-2.51h-3.032l-3.031 1.883 3.789 1.882-.758.628h-3.79l3.032 2.51-3.031 1.255 6.063 2.51 2.274.627h2.274l8.338-1.882 3.79-2.51zm21.223-47.69h.759l1.516-.628 4.547-1.255v-1.255l-1.516-.627h-4.547l-3.033.627V30.93l-.758-1.254-2.273-.628v-.627l3.789.627 2.275.628 2.273-.628-1.515-2.51-3.79-1.256-2.274-.627-1.516.627-1.516-.627-4.548.627-1.516.628-.758.627-.758-.627.758-1.255h-2.274l-1.516-1.255h-2.274l-1.516-.627-2.273 1.255-1.516-.628h-4.548l-2.274.628-.758 1.254h-6.064l-3.79-1.254-2.274.627-1.516 1.882.758 1.884-1.516-.628-2.273-.627-3.032 1.882-.759.628.76 1.254 1.515.628.758 1.255-.758 2.51-2.275.627-.758 1.255-4.547 3.138-3.79 3.137-5.306 1.255v1.255h1.516l-.758 1.255-.758 2.51-2.273-1.883-6.064 2.511v1.883h6.064l-3.79 1.882-2.274.627h-3.79l-6.064 2.51-.758 1.882-3.79 1.256-2.274 3.765-3.79 2.51-6.821 11.295-.758 2.51 3.032 1.256v4.392l3.032.627 4.547-3.137 3.79-2.51 2.274-2.51 5.306-1.883 3.79-1.882 2.274-1.883 3.789-1.882h7.58l6.064-.627 6.064-3.139 3.032-.627 1.515.627h6.064l12.141-3.24-4.56-1.78 3.03-1.254 1.517-2.511v1.883l.757 1.883h3.033l1.516-3.139-.758-1.882-1.517-1.255 1.517-.627 2.273 1.882.758-1.255v-2.51h4.548l1.516-.627-.757-1.882 3.031.627V48.5h1.516l1.516-2.51-.758-1.883 3.031-.628 1.517.628v-1.883l2.274-3.137 2.273-1.883 3.032-1.882z"/></svg>