<svg viewBox="0 0 512 512" xmlns="http://www.w3.org/2000/svg" fill-rule="evenodd" clip-rule="evenodd" stroke-linejoin="round" stroke-miterlimit="2"><path d="M512 100.531C512 45.046 466.954 0 411.469 0H100.531C45.046 0 0 45.046 0 100.531v310.938C0 466.954 45.046 512 100.531 512h310.938C466.954 512 512 466.954 512 411.469V100.531zM362.281 274.02c6.324-3.731 10.098-10.36 10.098-17.707 0-7.348-3.781-13.969-10.106-17.708l-152.054-89.839c-6.434-3.813-14.149-3.875-20.653-.168-6.492 3.711-10.375 10.382-10.375 17.867v179.703c0 7.484 3.883 14.156 10.375 17.867 3.204 1.828 6.692 2.731 10.192 2.731 3.601 0 7.191-.961 10.461-2.891l152.062-89.855z"/></svg>