<svg viewBox="0 0 512 512" xmlns="http://www.w3.org/2000/svg" fill-rule="evenodd" clip-rule="evenodd" stroke-linejoin="round" stroke-miterlimit="1.414"><path d="M450.645 66.012l-28.629-5.922c-110.164-22.785-221.868-22.785-332.032 0l-28.629 5.922C25.805 73.355 0 105.043 0 141.352v229.929c0 36.309 25.805 67.992 61.355 75.34l28.629 5.922c55.082 11.395 110.551 17.094 166.016 17.094 55.465 0 110.934-5.7 166.016-17.094l28.629-5.922C486.203 439.273 512 407.59 512 371.281V141.352c0-36.309-25.805-67.985-61.355-75.34zM362.281 274.02l-152.062 89.855c-3.27 1.93-6.86 2.891-10.461 2.891-3.5 0-6.988-.903-10.192-2.731-6.492-3.711-10.375-10.383-10.375-17.867V166.465c0-7.485 3.883-14.156 10.375-17.867 6.504-3.707 14.219-3.645 20.653.168l152.054 89.839c6.325 3.739 10.106 10.36 10.106 17.708 0 7.347-3.774 13.976-10.098 17.707z" fill-rule="nonzero"/></svg>