<svg viewBox="0 0 1398 1024" xmlns="http://www.w3.org/2000/svg" fill-rule="evenodd" clip-rule="evenodd" stroke-linejoin="round" stroke-miterlimit="1.414"><g fill="#57ffad"><path d="M317.764 532.17c.124-.15.237-.312.343-.49 1.546-2.308 2.834-1.539 5.41 2.823 1.804 3.335 7.73 12.058 13.141 19.241 5.411 7.184 9.792 15.394 9.792 18.216 0 6.157 17.005 16.163 27.827 16.163 4.38 0 8.76 1.282 9.791 2.822.773 1.539 5.669 4.618 10.564 6.67 4.896 2.053 9.534 5.644 10.307 8.21 1.546 5.9 14.686 13.597 19.84 11.545 6.441-2.31 8.245 11.032 3.092 20.78-2.577 4.362-5.411 12.315-6.7 17.446-1.546 7.697-1.03 10.776 4.123 17.703 3.607 4.618 7.73 12.827 9.276 18.215 1.803 6.414 5.668 11.288 11.595 14.88 4.638 2.822 8.502 7.184 8.502 9.493 0 4.874-6.183 51.567-10.048 75.94-1.546 8.466-2.062 16.162-1.289 17.189 2.062 3.591-33.496 38.483-51.532 50.54-42.256 28.222-98.942 39.51-149.701 30.018-72.66-13.598-131.665-66.448-153.824-137.257-4.896-15.906-5.926-24.886-5.926-53.106 0-24.373-.773-34.122-3.092-34.122-3.35 0-10.05 6.157-11.853 10.775-.773 2.566-1.803 2.566-4.38.257-2.319-2.053-2.834-7.697-1.546-20.525 1.03-9.492 2.061-22.32 2.319-28.22.258-7.44 2.577-12.828 7.214-17.96 8.76-9.235 23.448-35.404 21.129-37.456-2.062-2.31 6.699-12.058 10.821-12.058 1.804 0 9.534-6.67 17.006-14.88 17.521-18.729 18.036-18.986 27.828-15.65 8.502 3.078 10.048 6.927 4.895 12.058-1.546 1.54-2.319 3.592-1.804 4.361 1.804 1.796 28.086-16.42 28.086-19.241 0-1.54-5.154-5.131-11.338-8.21l-11.337-5.388 6.7-19.241c5.668-17.446 5.926-19.498 2.06-21.55-2.576-1.54-4.122-5.645-4.122-11.802 0-12.572 3.092-16.933 10.05-14.624 4.122 1.283 7.471-.256 13.14-5.9 4.122-4.362 12.883-9.75 19.067-12.059l11.337-4.361 75.237 47.719v13.597c0 15.394 7.215 32.326 15.46 36.688 2.834 1.539 5.153 4.36 5.153 6.413 0 .59.072 1.147.206 1.665.528 2.923 5.504 10.301 8.472 15.663 2.231 4.682 7.833 11.973 9.874 12.176 1.03 0 0-4.105-2.32-8.98a41.75 41.75 0 0 0-2.274-4.22c-.25-.51-.542-1.051-.871-1.634-1.446-2.537-4.821-7.486-5.7-10.331zM294.917 831.85c0-1.54-4.638-11.801-10.306-23.09-8.76-17.446-11.337-20.524-16.748-20.524-3.607 0-12.883-2.31-20.613-4.875l-13.914-4.874-2.576 11.801c-1.289 6.67-3.092 17.446-4.123 23.86l-1.804 11.801 13.914 4.105c15.46 4.618 56.17 5.9 56.17 1.796zm37.361-10.006c8.503-4.104 20.355-11.801 26.54-17.189l11.079-10.005-18.552-11.289-18.294-11.288-9.533 5.388c-5.154 2.822-14.687 6.67-21.386 8.21-6.957 1.795-12.368 3.591-12.368 3.848 0 .513 3.607 10.262 7.988 21.55 9.018 23.86 7.214 23.09 34.526 10.775zm-112.083-26.168l3.092-23.09-12.883-13.34c-6.957-7.44-13.913-15.907-15.46-18.73-2.06-4.104-5.668-5.13-20.097-5.643-9.533-.257-19.325 0-21.901.77-4.123 1.539-4.38 2.308-.773 12.314 5.41 15.136 15.717 31.813 27.827 44.897 11.853 12.827 29.116 26.168 33.754 26.168 2.061 0 4.38-8.466 6.441-23.346zm171.345-30.53c3.092-6.414 7.73-17.702 9.791-24.886 4.638-15.65 5.67-15.137-20.87-11.801-11.853 1.282-14.171 2.565-17.779 9.492-2.319 4.362-7.472 12.315-11.852 17.702-8.503 10.776-8.76 10.263 11.08 23.347l14.17 9.236 4.896-5.644c2.577-3.336 7.215-11.032 10.564-17.446zm-206.644-60.803c-.773-12.572-1.546-22.834-1.804-23.09-.257-.257-8.503 1.54-18.294 4.105l-18.036 4.361-.773 14.88c-1.03 21.807-1.03 22.064 21.128 22.064h19.325l-1.546-22.32zm211.282 13.084l9.534-1.796v-15.65c0-16.42-4.38-36.687-10.564-48.232l-3.608-6.927-10.821 10.262-10.822 10.006 2.576 14.11c1.546 8.98 1.804 18.729.258 26.938l-2.319 12.828h7.988c4.38 0 12.367-.77 17.778-1.54zm-215.147-44.897c9.276-3.592 6.441-8.723-7.988-14.624-7.472-3.078-14.429-5.644-15.46-5.644-2.06 0-5.668 8.466-8.502 19.755l-1.804 6.414 13.914-1.796c7.73-1.026 16.49-2.822 19.84-4.105zm194.019-24.63c3.35-3.591 4.638-5.9 2.834-4.874-1.803 1.026-6.957-.513-11.852-3.335-12.11-7.44-12.883-6.927-6.184 4.874 3.35 5.645 6.7 10.263 7.472 10.263.773 0 4.123-3.079 7.73-6.927zm-183.455-21.55c-10.049-9.749-10.822-10.005-15.46-5.9-6.957 6.157-6.441 7.183 6.184 11.8 18.81 7.184 21.128 5.902 9.276-5.9zm47.925-19.241c10.564-4.875 21.386-7.44 35.815-8.467l20.87-1.539-10.306-6.67c-27.054-17.19-25.25-16.676-44.318-11.802-17.778 4.618-39.422 15.393-39.422 19.755 0 2.309 17.779 15.393 20.87 15.393 1.031 0 8.504-3.079 16.491-6.67z"/><path d="M799.182 589.775l.028.084c.678 3.338 3.272 11.625 10.515 9.809l.886-.254c9.598-3.028 32-17.931 36.99-24.889 5.154-7.44 4.896-10.005-2.834-15.393-5.153-3.848-7.215-4.105-10.049-1.796-4.638 3.848-8.245 1.283-14.944-10.006-3.092-5.387-3.607-8.21-1.546-9.492 1.546-1.026 4.122 0 5.41 2.309 4.381 8.21 10.307 12.315 15.203 10.775 2.834-1.026 4.895-.513 4.895 1.026 0 1.796 5.669 2.823 13.656 2.823 11.08 0 14.945 1.282 19.325 5.9 3.092 3.336 5.669 7.44 5.669 9.236 0 1.796 1.546 2.822 3.607 2.053 2.576-1.027 4.122 1.539 5.153 8.98 2.061 12.314 11.595 35.404 14.687 35.404 3.35 0 7.472-9.236 7.472-17.19 0-5.644 2.834-9.749 12.11-17.445 19.325-16.163 21.901-16.933 27.312-8.467 2.32 4.105 4.38 9.75 4.38 12.572 0 3.848 1.289 4.874 4.896 3.591 3.865-1.282 5.41 0 6.7 6.414 1.288 6.158 2.833 7.697 6.698 6.414 3.608-1.283 5.154 0 6.442 4.875 1.804 7.953 8.245 8.722 16.49 2.052 5.411-4.361 5.669-5.644 3.092-13.34-4.122-11.033 1.804-21.295 17.521-29.761 13.399-7.184 23.705-22.577 21.386-31.556-1.03-4.362.515-7.44 5.669-12.058 5.153-4.362 7.987-5.388 9.275-3.335 2.577 4.361 7.473.256 7.473-6.158 0-3.592 3.35-7.696 9.018-11.545 5.41-3.335 9.018-7.696 9.018-10.775 0-2.822 4.123-10.262 9.018-16.933 4.896-6.413 9.018-13.34 9.018-15.393 0-2.052 1.289-3.592 2.577-3.592 1.546 0 2.577 1.796 2.577 3.849 0 2.309 3.607 7.44 7.987 11.801 7.73 7.697 8.245 7.697 26.281 5.644 10.307-1.026 33.754-1.795 52.048-1.795 32.723.513 56.686 4.618 79.875 13.853l7.73 3.08-18.036 7.696 13.14 5.387c26.282 11.545 44.06 23.603 65.704 45.154 25.251 25.399 37.876 45.41 49.471 78.505 7.73 22.064 9.64 42.504 9.812 62.6.167 19.613-2.597 39.509-8.781 57.98-10.307 30.53-27.828 58.239-51.79 82.098-30.92 30.274-57.974 44.384-102.807 53.62-27.055 5.644-67.765 5.131-91.985-1.283-65.704-16.676-121.874-68.5-142.745-130.842-7.214-21.294-12.625-59.777-10.049-71.835 1.546-7.697 1.546-7.697 14.687-5.901 11.595 1.54 12.626 1.283 9.791-2.31-2.061-2.308-7.73-4.36-12.883-4.874-7.987-.513-9.533-1.54-8.76-6.157.773-5.9-24.993-35.661-29.631-34.122-1.804.513 1.546 7.953 8.502 18.216 12.11 17.958 12.626 22.576 2.577 22.576-4.38 0-15.717 9.75-40.453 35.661-28.085 28.991-36.33 36.175-44.833 38.227-8.245 2.309-91.212 8.21-113.886 8.21-6.957 0-7.988-7.953-1.804-13.085 2.834-2.309 3.607-5.644 2.319-11.801-1.288-7.697-.773-8.98 7.73-14.11l9.533-5.388-1.803-22.32-1.804-22.064 12.883-14.11c11.853-13.085 23.705-32.07 23.705-38.227 0-2.053-3.865-2.31-11.595-1.026-6.619.916-9.696.916-10.907-.288l-.061-.048-.044-.057-.075-.077-.06-.097-.115-.147c-2.888-4.592-6.04-10.236-8.256-12.85a2.358 2.358 0 0 1-.193-.27c-2.27-2.868-5.096-7.404-6.313-10.795-1.546-3.592-5.926-13.085-9.79-21.551-3.866-8.21-6.185-15.65-5.412-16.676 2.577-2.309 11.338 9.492 13.141 17.446 1.03 3.591 4.38 11.031 7.988 16.163 2.556 3.635 4.465 8.045 5.174 11.4zm424.09 240.535c5.41-.77 9.533-2.31 9.018-3.336-.515-1.026-5.41-9.492-11.08-18.985l-10.048-17.189h-17.264c-9.275 0-22.159-1.796-28.085-3.848-5.926-2.052-11.337-3.848-11.852-3.848-.515 0-1.03 9.749-1.03 21.55 0 24.373-1.031 23.347 24.477 27.195 12.368 2.052 24.736 1.54 45.864-1.54zm45.606-17.703c16.49-10.005 37.103-29.503 34.269-32.069-1.03-1.026-9.534-5.9-18.81-10.775l-17.005-8.98-10.049 8.467c-5.668 4.874-16.233 11.288-23.705 14.11l-13.398 5.644 4.122 7.954c2.32 4.361 6.957 12.314 10.307 17.702 5.41 8.723 7.214 9.749 13.14 8.21 3.866-1.027 13.399-5.645 21.129-10.263zm-124.193-13.34c.773-19.755.258-21.294-5.41-25.143-5.412-3.335-5.927-5.387-4.896-17.445 1.03-11.802 0-15.137-7.215-26.939-4.638-7.183-9.276-13.34-10.306-13.34-1.031 0-2.835-2.822-3.608-6.414-1.03-3.592-3.865-10.006-6.441-14.367l-4.896-7.953-1.803 10.518c-1.804 10.776-2.835 11.802-10.05 8.98-5.925-2.31-5.152-4.875 2.062-8.21 4.123-1.796 6.7-5.388 7.215-9.75 1.288-10.518 7.987-13.596 17.52-7.952 7.988 4.874 10.822 2.309 3.866-3.335-2.062-1.54-3.35-3.849-3.092-4.875.257-1.026-2.577-5.388-6.442-10.006-5.41-6.413-8.76-8.21-16.233-8.21-5.153 0-11.594-1.282-14.429-2.565-2.834-1.796-7.987-1.796-13.14-.513-9.276 2.309-11.853 8.21-13.656 32.07-1.289 17.702-10.05 30.53-26.024 37.456-9.018 4.105-10.822 6.157-11.853 13.598-.515 4.874.516 12.314 2.32 16.419 1.803 4.105 3.091 10.519 3.349 14.367 0 3.848 1.03 7.44 2.319 8.21 2.061 1.283 15.46-2.31 23.962-6.414 2.32-1.283 8.76-2.822 14.172-3.848 8.245-1.283 10.821-.514 15.975 5.13 3.607 3.592 5.153 6.671 4.122 6.671-4.638 0 23.705 26.425 38.65 36.43 21.385 13.855 22.931 13.085 23.962-12.57zm172.633-34.635c8.76-14.11 15.975-35.148 17.779-50.798l1.546-14.623-20.355 2.822c-11.338 1.795-21.644 3.848-23.19 4.874-1.546.77-3.607 6.157-4.638 11.545-.773 5.388-4.38 15.393-8.245 22.32-3.607 6.927-5.669 13.085-4.38 13.341 1.03.513 9.018 4.875 17.52 9.75 8.504 4.874 16.233 8.979 17.264 8.979.773 0 3.865-3.849 6.7-8.21zM702.133 429.77c-.077-.454-.11-1.034-.11-1.737 0-2.566-1.546-4.105-3.092-3.335-2.062.513-3.092 4.361-2.577 9.236.258 5.387-.515 7.953-3.092 7.953-2.061 0-5.41 1.54-7.215 3.335-6.183 5.9-24.22 17.19-27.312 17.19-4.638 0-3.607 3.847 2.062 8.978 8.495 7.69 5.416 12.818-7.473 12.828h-11.079l-.773 11.802c-1.03 10.262-.258 12.058 4.638 14.367 7.472 3.335 18.036.513 21.128-5.901 5.669-11.032 13.399-18.215 21.386-19.755 7.472-1.539 9.791-.513 17.779 7.184 9.79 9.492 12.368 10.519 14.944 6.67.773-1.283-2.061-4.874-6.441-7.953-6.957-4.874-10.565-13.084-5.669-12.828 4.123.257 17.779 14.624 22.417 23.86 5.668 10.519 10.306 11.288 10.306 1.54 0-7.44 7.215-8.467 8.503-1.027 1.804 8.723 5.926 11.545 17.52 11.545 12.111 0 13.4 1.796 8.761 13.854-2.06 5.644-4.122 6.67-12.11 6.67-5.41-.256-14.429-1.796-20.097-3.848-9.018-3.335-10.564-3.335-13.141 0-3.865 5.131-9.276 4.874-20.098-1.54-6.699-3.848-9.275-7.183-9.275-11.8 0-6.158-.258-6.415-15.976-5.132-28.342 2.309-35.3 4.361-41.998 12.571-3.608 4.105-6.442 9.493-6.442 12.058 0 2.566-3.092 7.184-6.7 10.775-3.606 3.336-8.244 8.98-10.048 12.572-4.38 8.722-3.607 41.561 1.288 47.462 2.062 2.31 4.896 6.67 6.442 9.75 1.288 2.821 5.41 7.183 9.018 9.748 6.184 4.618 7.472 4.618 25.766.77 16.748-3.592 19.325-3.592 21.902-.257 1.545 2.053 4.895 4.105 7.73 4.875 4.122.77 4.895 2.565 4.38 10.006-.516 6.67 1.03 12.058 5.668 18.985 7.215 10.518 8.503 23.346 3.865 36.943-2.319 6.414-2.061 10.262 1.288 18.216 2.32 5.644 4.123 11.031 4.123 11.545 0 .77-19.044 1.282-42.514 1.282h-42.257l-4.122 7.44c-4.38 8.723-7.73 9.236-67.508 11.802-35.815 1.54-36.845 1.54-36.845-3.592 0-3.592 3.35-6.927 10.564-10.519 11.595-5.9 20.098-20.78 20.355-34.89 0-4.875 2.32-10.007 6.442-13.855 3.607-3.335 6.441-8.466 6.441-11.545 0-5.9-10.306-14.88-20.613-17.959-17.778-5.13-24.735-9.749-29.63-20.267-3.608-7.44-6.958-10.776-11.595-11.289-3.35-.513-10.565-4.361-15.718-8.466-5.668-4.361-12.625-7.44-17.006-7.44-4.122 0-8.76-1.283-10.564-3.079-2.319-2.309-3.35-1.796-4.638 1.796-1.803 4.618-2.06 4.618-3.607.257-1.288-4.362-2.319-4.105-9.276 1.796-5.153 4.361-9.018 5.9-11.337 4.361-1.803-1.026-5.153-1.54-7.214-.77-4.896 2.053-8.245-3.591-8.245-13.854 0-4.874-1.289-8.722-3.092-8.979-1.804 0-5.154-.513-7.215-.513-4.122-.513-4.38-3.592-1.288-14.88 2.319-9.493-4.123-9.75-10.049-.77-9.276 14.11-22.674 3.335-21.644-17.702.773-21.294 13.657-24.373 38.134-8.98 6.442 3.849 12.883 7.44 14.687 7.954 1.546.513 7.73-6.67 13.656-15.65l10.822-16.676-6.7-4.875c-6.183-4.361-10.048-16.932-4.122-13.34 1.546.77 2.577.513 2.577-.77 0-2.822 22.932-26.169 25.766-26.169 1.288 0 2.577 1.283 3.092 3.079.773 2.052 3.607 1.54 9.276-1.796 7.987-4.874 11.594-10.775 4.895-8.21-5.41 2.053-10.822-2.565-11.337-9.749-.258-5.13.773-6.414 5.669-6.414 6.441 0 21.9-7.696 21.9-10.775 0-1.026-3.606-4.361-7.729-7.696-4.38-3.08-10.306-10.776-13.398-16.933-4.896-10.519-5.669-11.032-8.76-6.927-3.608 4.875-11.338 3.592-11.338-2.309 0-4.874-11.08-11.801-19.067-11.801-4.895 0-6.441 1.539-7.472 8.466-.515 4.361 0 10.775 1.546 13.854 2.061 4.618 1.546 6.927-1.804 10.518-2.319 2.823-3.865 7.44-3.607 10.776 1.03 8.723-5.41 9.492-7.215.77-1.288-6.158-4.38-8.723-17.005-14.624-16.748-7.44-22.674-12.058-22.674-17.446.257-3.848 14.429-20.011 17.778-20.011 1.289 0 2.835-1.796 3.865-3.848 2.32-6.414 6.184-4.362 4.638 2.565-.515 3.592 0 6.414 1.546 6.414 3.35 0 5.926-6.67 4.123-11.288-.773-2.053.773-4.362 3.865-5.388 4.122-1.283 4.895-3.079 3.607-10.006-1.289-7.696-.516-8.722 5.668-10.262 5.927-1.54 8.503-.256 14.687 5.901 9.018 8.98 7.988 19.498-2.061 21.807-3.35 1.026-6.184 2.822-6.184 4.361 0 1.796 2.319 2.31 5.668 1.54 3.092-1.026 7.473 0 9.792 1.796 2.06 1.796 7.214 4.105 11.337 5.13 5.926 1.54 6.957 1.027 5.926-2.052-1.03-2.565-.258-4.105 2.061-4.105 4.38 0 5.153-4.104 1.289-6.413-5.154-3.079-2.577-6.67 2.834-3.849 4.38 2.31 5.926 2.053 8.76-1.539 2.835-4.105 2.32-5.131-3.092-7.953-3.607-1.796-8.245-3.335-10.048-3.335-2.062 0-3.608-2.566-3.608-6.158 0-4.361-2.576-7.44-8.245-10.262-11.852-5.9-18.294-10.005-21.386-13.597-1.803-2.053-7.73-2.566-18.551-1.54-12.884 1.283-16.49 2.566-17.78 6.414-1.545 5.388 2.835 12.315 8.246 12.315 5.153 0 6.442 4.105 3.35 11.288-3.865 7.953-7.472 8.723-7.472 1.283 0-3.592-1.289-4.874-3.608-4.105-3.865 1.54-11.08-4.874-8.503-7.44.773-1.026-1.03-3.592-3.865-6.157l-5.668-4.362 5.668-3.078c7.473-3.849 7.215-7.953-.515-7.953-5.153 0-6.184 1.539-7.472 10.775-.773 6.157-2.834 11.288-4.38 11.801-1.546.513-3.865 3.849-5.153 7.184-2.835 7.183-8.503 7.696-19.067 2.309-7.215-3.848-13.141-3.079-10.565 1.283.773 1.282.258 2.822-1.03 3.591-1.289 1.027-3.092.513-3.865-.513-.773-1.283-4.38-1.796-7.988-1.026-3.607.513-6.441 0-6.441-1.54 0-3.334-14.172-8.209-23.963-8.209-4.38 0-10.048-2.052-12.625-4.361-3.092-2.566-5.669-3.336-6.7-2.053-3.864 5.644-24.992 5.9-59.777 1.026-26.281-3.848-43.802-2.565-43.802 3.336 0 2.565-24.478 14.88-30.147 14.88-7.73.256-22.932 15.906-27.57 28.99-4.38 11.545-20.87 35.405-29.373 42.332-2.319 1.539-7.472 3.078-11.337 3.078-6.184 0-8.245 1.796-11.08 8.723-3.349 7.953-18.036 21.55-20.612 18.985-.516-.513 8.76-20.78 20.613-45.41 12.11-24.373 22.158-45.666 22.416-47.462 1.288-5.131-13.14-20.012-20.097-20.781-9.276-1.026-13.141-5.388-9.792-11.032 2.062-3.079 1.546-6.927-1.803-14.624-5.669-12.058-6.184-23.346-1.546-25.142 5.926-2.052 0-4.618-17.779-7.44-13.398-2.309-17.778-2.309-18.551 0-1.289 4.105-9.534 3.848-13.141-.513-2.32-2.566-1.804-5.644 1.288-12.058 2.577-4.875 5.153-10.519 6.184-12.571 1.03-2.053 6.7-5.388 12.625-7.44 10.05-3.08 16.233-2.566 71.63 6.157 33.239 5.131 60.808 8.98 61.324 8.466.257-.513 2.576-4.361 4.895-8.98 10.307-20.267 15.975-21.55 61.581-13.853 15.975 2.565 40.71 6.157 55.14 7.696 29.631 3.336 108.99 19.242 116.463 23.09 2.834 1.54 23.447 7.184 45.864 12.828 81.936 20.011 128.83 20.524 164.645 1.54 9.019-4.875 14.945-6.414 20.871-5.388 7.472 1.026 9.018 0 18.552-12.571 17.778-23.603 49.213-52.337 77.04-70.553 30.618-20.25 42.046-25.252 67.737-25.38 15.728.033 35.62 1.605 56.346 4.864 3.674.72 8.353 1.552 14.282 2.557 21.128 3.849 42.514 9.75 47.152 13.598 2.061 1.54 5.926 7.44 9.018 13.084l5.41 10.519 2.577-16.163c1.289-8.723 20.047-45.533-2.576-32.583-13.909 7.964-45.253-1.595-71.888-4.412-19.729-2.802-23.527-3.305-30.146-7.389-3.363-2.781-3.819-5.883-3.819-15.337 0-19.241 3.304-16.732 20.567-18.272 13.398-1.026 41.999-13.084 43.802-18.471.516-1.54.516-13.598-.257-26.426l-1.031-23.86h-14.944V.358l7.472 3.848c3.865 2.053 11.08 8.21 15.717 13.341 15.975 18.472 19.84 37.457 9.791 49.515-5.41 6.414-5.926 8.723-5.153 35.661.773 22.834 1.546 28.734 4.638 28.734 2.061 0 3.607-1.796 3.607-3.848 0-3.079 3.608-3.848 17.006-3.848 14.687 0 17.263.77 18.294 5.13.773 2.566 3.607 5.645 6.184 6.415 2.576 1.026 4.895 3.335 4.895 5.644 0 2.052 4.123 11.288 9.276 20.268 4.896 8.979 8.503 17.445 7.472 18.728-2.576 4.361 10.564 10.775 24.478 11.801 15.718 1.027 26.54 8.467 37.876 25.4l7.73 11.544 7.215-7.44c6.184-6.414 6.699-7.696 3.092-9.236-3.092-1.026-4.38-4.618-4.38-11.545 0-7.953 2.318-12.57 12.625-24.629 6.7-8.21 15.46-17.702 19.325-21.037 5.926-5.644 13.14-8.723 13.14-23.347 0-19.498 2.577-25.399-26.797-64.395-18.551-24.886-41.998-31.43-40.968-41.692.258-3.849 45.864-21.677 56.17-7.823 24.736 32.84 31.693 37.2 49.987 68.5 30.404 51.568 58.231 117.502 58.231 137.77 0 17.702-5.668 49.002-9.533 52.85-2.32 2.052-3.607 4.105-3.092 4.618.515.256 11.595 6.67 24.735 14.11 42.257 23.86 76.784 50.285 90.44 69.27 11.594 16.163 11.08 20.78-2.835 20.78-13.913 0-40.452-7.44-58.489-16.675-7.73-4.105-16.748-8.466-19.84-10.006-2.834-1.54-10.822-6.157-17.52-10.262-12.368-7.697-29.632-11.032-41.484-8.21l-6.957 1.796 5.668 5.9c2.835 3.08 5.411 6.415 5.411 7.441 0 3.335-9.018 1.796-14.944-2.309-3.35-2.309-8.245-3.592-11.08-2.822-2.576.77-5.668.256-6.441-1.026-2.061-3.592-13.914-2.822-18.036 1.539-2.577 2.309-6.442 3.079-11.595 2.052-5.411-1.026-8.76-.256-10.307 2.053-1.803 2.822-3.091 3.079-6.699.256-2.576-1.795-6.699-3.848-9.018-4.618-2.577-1.026-4.638-3.848-4.638-6.413 0-2.822-1.803-4.875-4.122-4.875-2.577 0-3.608 1.54-2.577 3.848 1.804 4.875-4.123 4.875-13.914 0-4.638-2.309-10.306-3.078-15.202-2.309-8.245 1.796-11.337-2.309-4.122-5.13 9.79-3.592-.258-15.394-10.822-12.828-3.092.77-6.184.256-6.957-1.283-2.834-4.362-11.595-3.335-19.582 2.309-4.123 2.822-7.988 4.105-8.76 2.822-2.32-3.335-27.828 3.848-30.405 8.723-1.288 2.052-4.895 3.848-8.245 3.848-7.987 0-14.171 6.927-8.245 9.236 2.576 1.026 4.122 4.361 3.865 8.466l-.258 6.67-1.804-6.413c-2.06-7.697-10.821-9.75-16.748-3.848-2.318 2.309-4.122 3.078-4.122 1.539 0-1.54-1.03-2.822-2.577-2.822-1.288 0-2.576 2.822-2.576 6.414 0 3.591 1.03 6.414 2.319 6.414 3.865 0 .257 9.492-5.669 14.623-5.153 4.618-5.153 4.618-1.288-1.283 3.092-4.361 3.607-8.21 2.061-15.136-1.288-4.875-1.546-10.776-.773-12.572 2.061-5.9-6.7-7.183-12.368-2.052-4.122 3.592-5.153 6.927-4.122 13.084l1.546 8.21-9.276-4.361c-8.245-3.849-9.276-3.849-12.11-.257-2.062 3.079-6.442 4.105-15.46 3.592-9.276-.257-14.687 1.026-21.128 5.387-8.245 5.645-8.76 5.645-8.76 1.027 0-7.697-4.896-8.723-6.7-1.283-.773 3.592-3.35 6.414-5.153 6.414-2.061 0-4.38 1.54-5.153 3.592-.773 2.052-3.092 3.078-5.154 2.309-2.318-.77-3.607.513-3.607 3.335-.257 4.361-.773 4.105-5.153-1.283-6.957-8.21-6.442-9.236 4.38-9.236 15.46 0 12.883-5.644-7.73-15.393-13.656-6.158-22.416-8.723-29.888-8.467-5.927.257-10.564 1.283-10.564 2.566 0 1.026-2.32 2.052-5.154 2.052-3.35 0-6.184 2.566-7.987 7.184-3.092 8.466-15.975 22.064-27.312 28.99-6.184 3.849-8.503 7.184-8.503 12.059 0 10.518 3.35 13.854 11.08 12.058 5.152-1.283 7.214-.77 8.502 2.565.523 1.17.515 3.782.515 3.782-.01 4.148 4.311 5.046 6.988 4.461.69-.149 1.015-.346 1.515-.546 2.577-1.026 4.896-3.848 4.896-6.414 0-2.822 2.061-5.9 4.638-7.44 3.607-2.053 3.865-3.079 1.288-5.644-4.896-4.875-4.123-11.032 2.577-17.19 3.092-2.822 7.214-7.183 9.275-9.492 2.32-3.079 4.123-3.592 6.184-1.54 2.062 2.053 1.031 4.619-3.35 9.237-5.152 5.387-5.668 7.183-3.091 12.57 2.576 5.645 4.122 6.158 12.368 4.875 6.956-1.026 9.018-.77 7.73 1.283-1.031 1.796-4.639 3.079-8.246 3.079-4.38 0-6.184 1.283-6.184 5.13 0 2.823-1.288 5.132-3.092 5.132-1.803 0-5.41 3.079-8.502 6.67-3.608 4.618-8.503 6.927-16.748 7.954-2.842.413-4.976.697-6.517.813l-.507.067c-4.015.348-5.468-.662-5.37-2.658.072-1.43-.428-5.098-.379-7.004zm115.322 289.195c7.472-23.86 6.184-28.22-5.669-18.985-6.699 5.388-9.018 9.493-10.306 18.216-1.546 12.058 1.803 22.32 6.957 20.524 1.546-.513 5.668-9.493 9.018-19.755zm508.881-28.477c8.76-2.31 9.534-3.079 9.534-12.058 0-17.19-15.46-59.52-21.644-59.52-1.546 0-9.79 6.926-18.551 15.649l-15.718 15.65 4.38 11.801c2.577 6.67 5.411 17.19 6.442 23.09l1.804 11.288 12.11-1.795c6.441-.77 16.233-2.823 21.643-4.105zM1024.1 656.109c1.804-2.309 3.608-8.466 4.123-14.11.258-5.644 1.288-11.288 2.061-12.571 3.865-6.157-4.638-5.131-12.367 1.54-4.638 3.847-10.565 8.465-13.141 9.748-8.76 5.131.515 18.472 13.14 18.985 1.547.257 4.38-1.54 6.184-3.592zm98.942-20.78c5.411-6.414 9.534-12.058 9.019-12.572-2.32-2.052-41.742-19.241-44.576-19.241-1.803 0-6.699 6.157-11.08 13.597-13.398 21.807-13.398 21.55 3.608 24.886 8.245 1.54 16.233 3.335 17.521 3.848 9.276 3.335 15.975.513 25.508-10.518zm181.91-30.787c0-5.388-28.859-28.99-45.091-37.2l-15.46-7.697-1.804 9.75c-1.03 5.387-1.803 17.445-1.803 26.937l-.258 17.19 11.08 7.44c5.926 4.104 13.14 10.005 15.717 13.084l5.153 5.644 16.233-16.163c9.018-8.723 16.232-17.446 16.232-18.985zm-162.843 9.493c-4.122-10.776-19.067-41.05-20.355-41.306-2.576 0-22.932 15.394-22.932 17.446.258 2.052 38.65 25.912 42 26.169 1.287 0 1.803-1.027 1.287-2.31zm89.151-30.274c1.03-13.597.773-25.655-.515-26.938-1.03-1.026-8.245-2.309-15.975-2.822l-13.656-.513-8.503 25.142-8.503 24.886 14.687.256c7.987.257 17.52 1.283 21.128 2.31 3.607 1.026 7.215 2.052 7.988 2.308.773.257 2.319-11.031 3.35-24.629zm-47.667-5.13c4.38-13.598 7.214-25.4 6.441-26.17-1.803-1.795-34.784 4.105-37.103 6.671-2.061 2.309 17.521 44.384 20.87 44.384 1.031 0 5.67-11.289 9.792-24.886zm-96.88-56.186c6.698-2.31 12.11-5.644 12.11-7.44 0-1.796.772-6.927 1.545-11.289 2.062-9.492-2.834-11.032-5.153-1.796-.773 3.592-3.865 7.184-6.7 7.954-2.833.77-5.152 2.565-5.152 3.848 0 1.026-2.32 2.565-5.154 3.335s-5.153 3.079-5.153 5.388c0 4.874-1.03 4.874 13.656 0zm22.158-34.122c3.092-2.052 3.092-3.079.515-6.414-4.38-5.13-7.987-5.13-7.987-.256 0 2.052-1.03 3.848-2.577 3.848-1.288 0-2.576 1.283-2.576 2.565 0 3.08 7.73 3.336 12.625.257zm-439.313-35.148c5.669-2.052 5.153-5.644-2.061-14.88-3.35-4.618-6.442-10.262-6.957-12.828-.515-2.822-2.319-5.387-3.865-5.9-5.153-1.796-6.441 7.44-2.319 13.853 2.32 3.336 3.35 7.184 2.577 8.467-.773 1.54-2.062 4.874-2.577 7.696-.773 3.849.515 5.131 5.153 5.131 3.35 0 7.73-.77 10.05-1.539zm-22.159-6.67c3.35-3.335 4.123-12.315 1.289-12.315-4.123 0-7.73 4.105-9.019 9.75-1.803 6.156 2.577 7.696 7.73 2.565zM99.095 318.997c0-2.309-41.742-10.775-43.545-8.98-2.32 2.053 2.576 4.106 20.613 8.467 18.809 4.362 22.932 4.618 22.932.513z"/></g><text x="59.159" y="52.863" font-family="'OpenSans-Extrabold','Open Sans',sans-serif" font-weight="800" font-size="18" fill="#61ffb6" transform="matrix(8.12158 0 0 8.08667 -491.741 594.742)">MO<tspan x="90.369px 100.643px 114.811px 127.3px 133.567px 146.276px 159.6px" y="52.863px 52.863px 52.863px 52.863px 52.863px 52.863px 52.863px">TOVIAGG</tspan>IA<tspan x="191.004px 201.278px 215.622px" y="52.863px 52.863px 52.863px">TOR</tspan>I</text></svg>