<svg xmlns="http://www.w3.org/2000/svg" fill-rule="evenodd" stroke-linejoin="round" stroke-miterlimit="1.414" clip-rule="evenodd" viewBox="0 0 1258 939"><path fill="#57ffad" d="M297.662 478.192a3.61 3.61 0 0 0 .298-.425c1.343-2.007 2.463-1.338 4.703 2.452 1.567 2.899 6.718 10.48 11.42 16.723 4.703 6.244 8.51 13.379 8.51 15.832 0 5.351 14.78 14.047 24.186 14.047 3.807 0 7.614 1.115 8.51 2.453.671 1.338 4.926 4.014 9.181 5.797 4.255 1.784 8.286 4.906 8.958 7.136 1.343 5.128 12.764 11.817 17.243 10.034 5.598-2.007 7.166 9.587 2.687 18.06-2.24 3.791-4.703 10.703-5.822 15.163-1.344 6.69-.896 9.365 3.583 15.385 3.135 4.014 6.718 11.15 8.062 15.832 1.567 5.574 4.926 9.81 10.077 12.932 4.03 2.453 7.39 6.244 7.39 8.25 0 4.237-5.375 44.818-8.734 66.001-1.343 7.358-1.791 14.048-1.12 14.94 1.792 3.121-29.112 33.446-44.787 43.926-36.727 24.527-85.993 34.338-130.11 26.088-63.15-11.818-114.433-57.75-133.692-119.292-4.255-13.825-5.15-21.629-5.15-46.156 0-21.183-.672-29.656-2.688-29.656-2.91 0-8.733 5.351-10.3 9.365-.673 2.23-1.568 2.23-3.808.223-2.015-1.784-2.463-6.69-1.343-17.838.895-8.25 1.791-19.399 2.015-24.527.224-6.467 2.24-11.15 6.27-15.609 7.614-8.027 20.379-30.77 18.363-32.554-1.791-2.007 5.823-10.48 9.406-10.48 1.567 0 8.286-5.797 14.78-12.933 15.228-16.277 15.676-16.5 24.185-13.601 7.39 2.675 8.734 6.02 4.255 10.48-1.343 1.337-2.015 3.121-1.567 3.79 1.567 1.561 24.41-14.27 24.41-16.723 0-1.338-4.48-4.46-9.854-7.135l-9.854-4.683 5.823-16.723c4.927-15.162 5.15-16.946 1.791-18.73-2.239-1.338-3.583-4.905-3.583-10.257 0-10.926 2.688-14.716 8.734-12.71 3.583 1.115 6.494-.222 11.421-5.128 3.583-3.79 11.197-8.473 16.572-10.48l9.853-3.79 65.39 41.473v11.818c0 13.378 6.27 28.095 13.437 31.885 2.463 1.338 4.479 3.791 4.479 5.575 0 .513.062.997.179 1.447.459 2.54 4.783 8.952 7.363 13.613 1.94 4.069 6.808 10.406 8.581 10.582.896 0 0-3.567-2.015-7.804a36.285 36.285 0 0 0-1.978-3.668c-.217-.444-.47-.914-.756-1.42-1.257-2.206-4.19-6.507-4.954-8.98zm-19.857 260.456c0-1.337-4.03-10.256-8.957-20.067-7.614-15.163-9.854-17.838-14.557-17.838-3.135 0-11.197-2.007-17.915-4.237l-12.092-4.237-2.24 10.257c-1.12 5.798-2.687 15.163-3.583 20.737l-1.567 10.257 12.092 3.568c13.437 4.013 48.82 5.128 48.82 1.56zm32.471-8.696c7.39-3.567 17.692-10.257 23.066-14.939l9.63-8.696-16.124-9.811-15.9-9.811-8.285 4.683c-4.48 2.452-12.765 5.797-18.587 7.135-6.047 1.56-10.75 3.121-10.75 3.344 0 .446 3.136 8.92 6.943 18.73 7.837 20.737 6.27 20.068 30.007 9.365zm-97.413-22.743l2.687-20.068-11.197-11.595c-6.047-6.466-12.093-13.824-13.437-16.277-1.791-3.568-4.926-4.46-17.467-4.905-8.286-.223-16.795 0-19.035.668-3.583 1.338-3.807 2.007-.672 10.703 4.703 13.156 13.66 27.65 24.186 39.021 10.301 11.149 25.305 22.744 29.336 22.744 1.792 0 3.807-7.359 5.599-20.291zm148.92-26.534c2.687-5.575 6.718-15.386 8.51-21.629 4.03-13.602 4.926-13.156-18.14-10.257-10.301 1.115-12.316 2.23-15.452 8.25-2.015 3.79-6.494 10.703-10.3 15.386-7.39 9.365-7.615 8.919 9.629 20.29l12.316 8.028 4.255-4.906c2.24-2.899 6.27-9.588 9.182-15.162zm-179.6-52.846c-.672-10.925-1.344-19.844-1.568-20.067-.224-.223-7.39 1.337-15.9 3.567l-15.675 3.79-.672 12.933c-.896 18.953-.896 19.176 18.363 19.176h16.795l-1.343-19.399zm183.63 11.372l8.286-1.56v-13.602c0-14.27-3.807-31.886-9.181-41.92l-3.135-6.02-9.406 8.919-9.405 8.696 2.24 12.264c1.343 7.804 1.567 16.277.223 23.412l-2.015 11.149h6.942c3.807 0 10.749-.669 15.452-1.338zm-186.99-39.02c8.063-3.122 5.6-7.582-6.941-12.71-6.495-2.676-12.541-4.906-13.437-4.906-1.791 0-4.927 7.358-7.39 17.17l-1.567 5.574 12.092-1.561c6.719-.892 14.332-2.453 17.244-3.568zm168.628-21.406c2.91-3.122 4.03-5.129 2.463-4.237-1.568.892-6.047-.446-10.301-2.899-10.526-6.466-11.197-6.02-5.375 4.237 2.911 4.905 5.823 8.919 6.494 8.919.672 0 3.583-2.676 6.719-6.02zm-159.446-18.73c-8.733-8.473-9.405-8.696-13.436-5.129-6.047 5.352-5.599 6.244 5.374 10.257 16.348 6.243 18.363 5.129 8.062-5.128zm41.653-16.724c9.182-4.236 18.587-6.466 31.128-7.358l18.139-1.338-8.958-5.797c-23.513-14.94-21.946-14.493-38.517-10.257-15.452 4.014-34.263 13.379-34.263 17.17 0 2.006 15.452 13.378 18.139 13.378.896 0 7.39-2.676 14.332-5.798z"/><path fill="#57ffad" d="M716.074 528.257l.024.074c.59 2.9 2.844 10.103 9.14 8.524l.77-.22c8.341-2.632 27.81-15.584 32.148-21.631 4.48-6.467 4.255-8.697-2.463-13.379-4.479-3.345-6.27-3.568-8.734-1.56-4.03 3.344-7.166 1.114-12.988-8.697-2.687-4.682-3.135-7.135-1.344-8.25 1.344-.892 3.583 0 4.703 2.007 3.807 7.135 8.958 10.703 13.213 9.365 2.463-.892 4.254-.446 4.254.892 0 1.56 4.927 2.452 11.87 2.452 9.629 0 12.988 1.115 16.795 5.129 2.687 2.898 4.926 6.466 4.926 8.027 0 1.56 1.344 2.453 3.136 1.784 2.239-.892 3.583 1.338 4.478 7.804 1.792 10.703 10.078 30.77 12.765 30.77 2.911 0 6.494-8.027 6.494-14.939 0-4.905 2.464-8.473 10.525-15.162 16.796-14.048 19.035-14.717 23.738-7.358 2.015 3.567 3.807 8.473 3.807 10.925 0 3.345 1.12 4.237 4.255 3.122 3.359-1.115 4.703 0 5.822 5.575 1.12 5.35 2.464 6.689 5.823 5.574 3.135-1.115 4.479 0 5.598 4.236 1.568 6.913 7.166 7.582 14.332 1.784 4.703-3.79 4.927-4.905 2.688-11.594-3.583-9.588 1.567-18.507 15.228-25.866 11.644-6.243 20.602-19.622 18.587-27.426-.896-3.79.447-6.466 4.926-10.48 4.48-3.79 6.942-4.682 8.062-2.898 2.24 3.79 6.494.223 6.494-5.352 0-3.121 2.912-6.689 7.838-10.034 4.703-2.898 7.838-6.689 7.838-9.365 0-2.452 3.583-8.919 7.838-14.716 4.255-5.574 7.838-11.595 7.838-13.379 0-1.783 1.12-3.121 2.24-3.121 1.343 0 2.239 1.56 2.239 3.344 0 2.007 3.135 6.467 6.942 10.257 6.718 6.69 7.166 6.69 22.842 4.906 8.957-.892 29.336-1.561 45.236-1.561 28.44.446 49.266 4.013 69.421 12.04l6.718 2.676-15.676 6.69 11.421 4.682c22.842 10.034 38.294 20.514 57.105 39.244 21.946 22.074 32.92 39.467 42.997 68.23 6.718 19.176 8.377 36.941 8.527 54.407.146 17.046-2.257 34.338-7.632 50.392-8.957 26.534-24.185 50.616-45.012 71.353-26.872 26.31-50.386 38.574-89.352 46.602-23.513 4.905-58.896 4.46-79.946-1.115-57.105-14.494-105.924-59.535-124.063-113.718-6.27-18.507-10.973-51.954-8.734-62.433 1.344-6.69 1.344-6.69 12.765-5.129 10.077 1.338 10.973 1.115 8.51-2.007-1.792-2.006-6.719-3.79-11.197-4.236-6.942-.446-8.286-1.338-7.614-5.352.672-5.128-21.722-30.993-25.753-29.655-1.568.446 1.343 6.912 7.39 15.83 10.525 15.61 10.973 19.623 2.239 19.623-3.807 0-13.66 8.473-35.159 30.993-24.409 25.197-31.575 31.44-38.965 33.224-7.166 2.007-79.275 7.135-98.982 7.135-6.046 0-6.942-6.912-1.567-11.372 2.463-2.006 3.135-4.905 2.015-10.257-1.12-6.689-.672-7.804 6.718-12.263l8.286-4.683-1.567-19.399-1.568-19.176 11.197-12.263c10.301-11.372 20.603-27.872 20.603-33.224 0-1.783-3.36-2.006-10.078-.892-5.753.796-8.427.796-9.48-.25l-.053-.042-.038-.049-.065-.067-.051-.084-.101-.127c-2.51-3.992-5.25-8.897-7.175-11.17a2.05 2.05 0 0 1-.168-.233c-1.973-2.493-4.43-6.436-5.487-9.383-1.343-3.122-5.15-11.372-8.51-18.73-3.358-7.135-5.374-13.602-4.702-14.494 2.24-2.006 9.853 8.25 11.42 15.163.897 3.121 3.808 9.588 6.943 14.047 2.221 3.16 3.88 6.993 4.497 9.91zm368.587 209.054c4.703-.67 8.286-2.007 7.838-2.9-.448-.891-4.703-8.25-9.63-16.5l-8.733-14.939h-15.004c-8.062 0-19.259-1.56-24.41-3.344-5.15-1.784-9.853-3.345-10.3-3.345-.449 0-.897 8.473-.897 18.73 0 21.183-.895 20.29 21.275 23.635 10.749 1.784 21.498 1.338 39.861-1.337zm39.637-15.386c14.333-8.696 32.248-25.642 29.784-27.872-.895-.892-8.285-5.128-16.347-9.365l-14.78-7.804-8.734 7.358c-4.927 4.237-14.108 9.811-20.602 12.264l-11.645 4.905 3.583 6.913c2.015 3.79 6.046 10.703 8.957 15.385 4.703 7.581 6.27 8.473 11.421 7.135 3.36-.892 11.645-4.905 18.363-8.919zM1016.36 710.33c.672-17.169.224-18.507-4.702-21.851-4.703-2.899-5.151-4.683-4.255-15.163.895-10.256 0-13.155-6.27-23.412-4.032-6.243-8.062-11.595-8.958-11.595-.896 0-2.464-2.452-3.135-5.574-.896-3.122-3.36-8.696-5.599-12.487l-4.255-6.912-1.567 9.142c-1.568 9.365-2.464 10.257-8.734 7.804-5.15-2.007-4.479-4.236 1.792-7.135 3.583-1.561 5.822-4.683 6.27-8.473 1.12-9.142 6.942-11.818 15.228-6.912 6.942 4.236 9.405 2.006 3.359-2.9-1.792-1.337-2.911-3.344-2.687-4.236.224-.892-2.24-4.682-5.599-8.696-4.703-5.574-7.614-7.135-14.108-7.135-4.479 0-10.077-1.115-12.54-2.23-2.464-1.56-6.943-1.56-11.422-.446-8.062 2.007-10.3 7.136-11.868 27.872-1.12 15.386-8.734 26.534-22.618 32.555-7.838 3.567-9.406 5.351-10.302 11.818-.448 4.236.448 10.702 2.016 14.27 1.567 3.568 2.687 9.142 2.911 12.487 0 3.344.896 6.466 2.015 7.135 1.792 1.115 13.437-2.007 20.827-5.575 2.015-1.114 7.614-2.452 12.317-3.344 7.166-1.115 9.405-.446 13.884 4.46 3.135 3.121 4.479 5.797 3.583 5.797-4.031 0 20.602 22.966 33.59 31.662 18.588 12.041 19.932 11.372 20.827-10.926zm150.04-30.101c7.614-12.264 13.884-30.548 15.452-44.15l1.344-12.71-17.692 2.454c-9.853 1.56-18.81 3.344-20.154 4.236-1.344.67-3.135 5.352-4.031 10.034-.672 4.683-3.807 13.379-7.166 19.399-3.135 6.02-4.927 11.372-3.807 11.595.896.446 7.838 4.236 15.228 8.473 7.39 4.236 14.108 7.804 15.004 7.804.671 0 3.359-3.345 5.822-7.135zM631.727 389.194c-.067-.395-.097-.899-.097-1.51 0-2.23-1.343-3.567-2.687-2.898-1.791.445-2.687 3.79-2.24 8.027.225 4.682-.447 6.912-2.687 6.912-1.791 0-4.702 1.338-6.27 2.899-5.374 5.128-21.05 14.939-23.738 14.939-4.03 0-3.135 3.345 1.792 7.804 7.383 6.683 4.707 11.14-6.494 11.149h-9.63l-.672 10.257c-.895 8.919-.223 10.48 4.031 12.487 6.495 2.898 15.676.445 18.364-5.129 4.926-9.588 11.644-15.831 18.587-17.17 6.494-1.337 8.51-.445 15.451 6.244 8.51 8.25 10.75 9.142 12.989 5.798.672-1.115-1.792-4.237-5.599-6.913-6.046-4.236-9.181-11.371-4.926-11.148 3.583.223 15.452 12.71 19.483 20.736 4.926 9.142 8.957 9.811 8.957 1.338 0-6.466 6.27-7.358 7.39-.892 1.568 7.581 5.15 10.034 15.228 10.034 10.525 0 11.645 1.561 7.614 12.04-1.792 4.906-3.583 5.798-10.525 5.798-4.703-.223-12.54-1.56-17.468-3.344-7.837-2.899-9.181-2.899-11.42 0-3.36 4.46-8.062 4.236-17.468-1.338-5.822-3.345-8.062-6.244-8.062-10.257 0-5.352-.224-5.575-13.884-4.46-24.633 2.007-30.68 3.791-36.502 10.926-3.135 3.568-5.599 8.25-5.599 10.48 0 2.23-2.687 6.243-5.822 9.365-3.135 2.899-7.166 7.804-8.734 10.926-3.807 7.581-3.135 36.122 1.12 41.25 1.792 2.007 4.255 5.798 5.598 8.474 1.12 2.452 4.703 6.243 7.838 8.473 5.375 4.013 6.495 4.013 22.394.669 14.556-3.122 16.796-3.122 19.035-.223 1.344 1.783 4.255 3.567 6.718 4.236 3.584.669 4.255 2.23 3.807 8.696-.447 5.798.896 10.48 4.927 16.5 6.27 9.142 7.39 20.291 3.36 32.109-2.016 5.574-1.792 8.919 1.119 15.831 2.015 4.906 3.583 9.588 3.583 10.034 0 .67-16.551 1.115-36.95 1.115h-36.726l-3.583 6.466c-3.807 7.582-6.719 8.027-58.673 10.257-31.127 1.338-32.023 1.338-32.023-3.121 0-3.122 2.911-6.02 9.182-9.142 10.077-5.129 17.467-18.061 17.69-30.325 0-4.237 2.016-8.696 5.6-12.04 3.134-2.9 5.598-7.36 5.598-10.035 0-5.128-8.958-12.932-17.915-15.608-15.452-4.46-21.499-8.473-25.754-17.615-3.135-6.467-6.046-9.365-10.077-9.811-2.911-.446-9.181-3.79-13.66-7.358-4.927-3.791-10.973-6.467-14.78-6.467-3.583 0-7.614-1.115-9.182-2.675-2.015-2.007-2.91-1.561-4.03 1.56-1.568 4.014-1.792 4.014-3.136.223-1.12-3.79-2.015-3.567-8.062 1.561-4.478 3.79-7.838 5.129-9.853 3.79-1.568-.891-4.479-1.337-6.27-.668-4.255 1.784-7.166-3.122-7.166-12.04 0-4.237-1.12-7.582-2.688-7.805-1.567 0-4.478-.446-6.27-.446-3.583-.446-3.807-3.122-1.12-12.933 2.016-8.25-3.583-8.473-8.733-.668-8.062 12.263-19.707 2.898-18.811-15.386.671-18.507 11.868-21.183 33.143-7.804 5.598 3.345 11.197 6.466 12.764 6.912 1.344.446 6.719-5.797 11.87-13.601l9.405-14.494-5.823-4.236c-5.374-3.79-8.733-14.717-3.583-11.595 1.344.669 2.24.446 2.24-.669 0-2.453 19.93-22.743 22.394-22.743 1.12 0 2.239 1.114 2.687 2.675.672 1.784 3.135 1.338 8.062-1.56 6.942-4.237 10.077-9.366 4.255-7.136-4.703 1.784-9.406-2.23-9.854-8.473-.224-4.46.672-5.574 4.927-5.574 5.598 0 19.035-6.69 19.035-9.365 0-.892-3.135-3.79-6.718-6.69-3.807-2.675-8.958-9.365-11.645-14.716-4.255-9.142-4.927-9.588-7.614-6.02-3.135 4.236-9.854 3.121-9.854-2.007 0-4.237-9.629-10.257-16.571-10.257-4.255 0-5.599 1.338-6.494 7.358-.448 3.79 0 9.365 1.343 12.04 1.792 4.014 1.344 6.021-1.567 9.143-2.016 2.453-3.36 6.466-3.136 9.365.896 7.581-4.702 8.25-6.27.669-1.12-5.352-3.807-7.581-14.78-12.71-14.556-6.466-19.707-10.48-19.707-15.162.224-3.345 12.541-17.392 15.452-17.392 1.12 0 2.464-1.561 3.36-3.345 2.015-5.574 5.374-3.79 4.03 2.23-.448 3.122 0 5.574 1.344 5.574 2.911 0 5.15-5.797 3.583-9.81-.672-1.785.672-3.791 3.36-4.683 3.582-1.115 4.254-2.676 3.134-8.696-1.12-6.69-.448-7.581 4.927-8.92 5.15-1.337 7.39-.222 12.764 5.13 7.838 7.803 6.943 16.945-1.791 18.952-2.911.892-5.375 2.453-5.375 3.79 0 1.562 2.016 2.007 4.927 1.339 2.687-.892 6.494 0 8.51 1.56 1.791 1.561 6.27 3.568 9.853 4.46 5.15 1.338 6.047.892 5.15-1.784-.895-2.23-.223-3.568 1.792-3.568 3.807 0 4.48-3.567 1.12-5.574-4.479-2.676-2.24-5.797 2.463-3.345 3.807 2.007 5.151 1.784 7.614-1.337 2.464-3.568 2.016-4.46-2.687-6.913-3.135-1.56-7.166-2.898-8.734-2.898-1.791 0-3.135-2.23-3.135-5.352 0-3.79-2.24-6.466-7.166-8.919-10.301-5.128-15.9-8.696-18.587-11.818-1.567-1.783-6.718-2.23-16.124-1.337-11.197 1.114-14.332 2.23-15.451 5.574-1.344 4.682 2.463 10.703 7.166 10.703 4.478 0 5.598 3.567 2.91 9.81-3.358 6.913-6.493 7.582-6.493 1.116 0-3.122-1.12-4.237-3.136-3.568-3.359 1.338-9.629-4.236-7.39-6.466.672-.892-.895-3.122-3.359-5.352l-4.926-3.79 4.926-2.676c6.495-3.345 6.27-6.912-.448-6.912-4.478 0-5.374 1.338-6.494 9.365-.672 5.351-2.463 9.81-3.807 10.257-1.343.446-3.359 3.344-4.479 6.243-2.463 6.243-7.39 6.69-16.571 2.007-6.27-3.345-11.421-2.676-9.182 1.115.672 1.115.224 2.452-.895 3.121-1.12.892-2.688.446-3.36-.446-.671-1.115-3.807-1.56-6.942-.892-3.135.446-5.598 0-5.598-1.337 0-2.9-12.317-7.136-20.827-7.136-3.807 0-8.733-1.783-10.973-3.79-2.687-2.23-4.926-2.899-5.822-1.784-3.36 4.905-21.722 5.128-51.954.892-22.842-3.345-38.07-2.23-38.07 2.899 0 2.23-21.274 12.932-26.201 12.932-6.718.223-19.93 13.825-23.962 25.196-3.807 10.034-18.139 30.771-25.529 36.791-2.015 1.338-6.494 2.676-9.853 2.676-5.375 0-7.166 1.561-9.63 7.581-2.91 6.913-15.675 18.73-17.915 16.5-.448-.445 7.614-18.06 17.915-39.466 10.526-21.183 19.26-39.69 19.483-41.25 1.12-4.46-11.42-17.393-17.467-18.062-8.062-.892-11.421-4.682-8.51-9.588 1.792-2.675 1.344-6.02-1.567-12.71-4.927-10.48-5.375-20.29-1.344-21.851 5.15-1.784 0-4.014-15.452-6.466-11.645-2.007-15.452-2.007-16.124 0-1.12 3.567-8.285 3.344-11.42-.446-2.016-2.23-1.568-4.906 1.12-10.48 2.239-4.237 4.478-9.142 5.374-10.926.896-1.784 5.822-4.682 10.973-6.466 8.734-2.676 14.108-2.23 62.255 5.351 28.888 4.46 52.85 7.804 53.298 7.358.224-.446 2.24-3.79 4.255-7.804 8.957-17.615 13.884-18.73 53.521-12.04 13.885 2.23 35.383 5.35 47.924 6.689 25.753 2.898 94.726 16.723 101.22 20.068 2.464 1.337 20.379 6.243 39.862 11.148 71.213 17.393 111.97 17.839 143.097 1.338 7.838-4.236 12.989-5.574 18.14-4.682 6.494.892 7.837 0 16.123-10.926 15.452-20.514 42.773-45.487 66.958-61.318 26.611-17.6 36.543-21.948 58.872-22.06 13.67.03 30.957 1.396 48.971 4.228 3.193.627 7.26 1.35 12.413 2.223 18.363 3.345 36.95 8.473 40.981 11.818 1.792 1.338 5.15 6.466 7.838 11.372l4.703 9.142 2.24-14.048c1.119-7.58 17.422-39.574-2.24-28.318-12.089 6.921-39.33-1.387-62.48-3.835-17.147-2.435-20.447-2.872-26.2-6.422-2.923-2.417-3.32-5.112-3.32-13.33 0-16.722 2.872-14.542 17.876-15.88 11.644-.891 36.502-11.371 38.07-16.054.447-1.338.447-11.817-.225-22.966l-.895-20.737h-12.989V15.983l6.494 3.345c3.36 1.784 9.63 7.135 13.66 11.595 13.885 16.054 17.244 32.554 8.51 43.034-4.702 5.574-5.15 7.581-4.478 30.994.672 19.845 1.343 24.973 4.03 24.973 1.792 0 3.136-1.56 3.136-3.345 0-2.675 3.135-3.344 14.78-3.344 12.764 0 15.004.669 15.9 4.46.671 2.229 3.135 4.905 5.374 5.574 2.24.892 4.255 2.898 4.255 4.905 0 1.784 3.583 9.811 8.062 17.615 4.255 7.804 7.39 15.163 6.494 16.277-2.24 3.791 9.182 9.365 21.274 10.257 13.66.892 23.066 7.359 32.92 22.075l6.718 10.034 6.27-6.466c5.375-5.575 5.823-6.69 2.687-8.028-2.687-.891-3.807-4.013-3.807-10.033 0-6.913 2.016-10.926 10.973-21.406 5.823-7.135 13.437-15.386 16.796-18.284 5.15-4.906 11.42-7.581 11.42-20.291 0-16.946 2.24-22.075-23.289-55.967-16.124-21.629-36.502-27.317-35.606-36.236.224-3.344 39.861-18.84 48.819-6.798 21.498 28.54 27.544 32.331 43.444 59.534 26.425 44.818 50.61 102.123 50.61 119.738 0 15.386-4.926 42.589-8.285 45.933-2.016 1.784-3.136 3.568-2.688 4.014.448.223 10.078 5.797 21.499 12.264 36.726 20.736 66.734 43.703 78.603 60.203 10.077 14.048 9.629 18.061-2.464 18.061s-35.158-6.466-50.834-14.493c-6.718-3.568-14.556-7.358-17.244-8.696-2.463-1.338-9.405-5.352-15.228-8.92-10.749-6.689-25.753-9.587-36.054-7.135l-6.046 1.561 4.926 5.129c2.464 2.675 4.703 5.574 4.703 6.466 0 2.899-7.838 1.56-12.988-2.007-2.912-2.007-7.166-3.121-9.63-2.453-2.24.67-4.926.223-5.598-.891-1.792-3.122-12.093-2.453-15.676 1.337-2.24 2.007-5.599 2.676-10.077 1.784-4.703-.892-7.614-.223-8.958 1.784-1.568 2.453-2.687 2.676-5.822.223-2.24-1.56-5.823-3.345-7.838-4.014-2.24-.891-4.031-3.344-4.031-5.574 0-2.453-1.568-4.236-3.583-4.236-2.24 0-3.135 1.337-2.24 3.344 1.568 4.237-3.583 4.237-12.092 0-4.031-2.007-8.958-2.676-13.213-2.007-7.166 1.561-9.853-2.006-3.583-4.46 8.51-3.12-.224-13.378-9.405-11.148-2.688.669-5.375.223-6.047-1.115-2.463-3.79-10.077-2.899-17.02 2.007-3.582 2.453-6.941 3.568-7.613 2.453-2.016-2.899-24.186 3.344-26.425 7.58-1.12 1.785-4.255 3.346-7.166 3.346-6.942 0-12.317 6.02-7.166 8.027 2.24.892 3.583 3.79 3.359 7.358l-.224 5.797-1.568-5.574c-1.791-6.69-9.405-8.473-14.556-3.345-2.015 2.007-3.583 2.676-3.583 1.338s-.896-2.453-2.24-2.453c-1.119 0-2.239 2.453-2.239 5.575 0 3.121.896 5.574 2.016 5.574 3.359 0 .224 8.25-4.927 12.71-4.479 4.013-4.479 4.013-1.12-1.115 2.688-3.79 3.136-7.135 1.792-13.156-1.12-4.236-1.344-9.365-.672-10.926 1.792-5.128-5.822-6.243-10.749-1.783-3.583 3.121-4.479 6.02-3.583 11.371l1.344 7.136-8.062-3.79c-7.166-3.346-8.062-3.346-10.525-.224-1.792 2.676-5.599 3.568-13.437 3.122-8.062-.223-12.764.892-18.363 4.682-7.166 4.906-7.614 4.906-7.614.892 0-6.69-4.255-7.581-5.822-1.115-.672 3.122-2.911 5.575-4.479 5.575-1.792 0-3.807 1.338-4.479 3.121-.672 1.784-2.687 2.676-4.479 2.007-2.015-.669-3.135.446-3.135 2.899-.224 3.79-.672 3.567-4.479-1.115-6.046-7.135-5.598-8.027 3.807-8.027 13.437 0 11.197-4.906-6.718-13.379-11.869-5.351-19.483-7.58-25.977-7.358-5.15.223-9.181 1.115-9.181 2.23 0 .892-2.016 1.784-4.48 1.784-2.91 0-5.374 2.23-6.941 6.243-2.688 7.358-13.885 19.176-23.738 25.196-5.375 3.345-7.39 6.244-7.39 10.48 0 9.142 2.911 12.04 9.63 10.48 4.478-1.115 6.27-.669 7.39 2.23.454 1.016.447 3.286.447 3.286-.009 3.606 3.747 4.386 6.074 3.878.6-.13.882-.301 1.316-.475 2.24-.892 4.255-3.345 4.255-5.574 0-2.453 1.792-5.129 4.031-6.467 3.135-1.784 3.36-2.675 1.12-4.905-4.255-4.237-3.583-9.588 2.24-14.94 2.686-2.452 6.27-6.243 8.061-8.25 2.016-2.675 3.583-3.121 5.375-1.338 1.791 1.784.895 4.014-2.912 8.028-4.478 4.682-4.926 6.243-2.687 10.925 2.24 4.906 3.583 5.352 10.75 4.237 6.046-.892 7.837-.669 6.717 1.115-.895 1.56-4.03 2.676-7.166 2.676-3.807 0-5.374 1.114-5.374 4.46 0 2.452-1.12 4.459-2.687 4.459-1.568 0-4.703 2.675-7.39 5.797-3.136 4.014-7.39 6.02-14.557 6.912-2.47.36-4.324.607-5.663.707l-.441.058c-3.49.303-4.752-.575-4.667-2.31.063-1.242-.372-4.43-.33-6.087zm100.229 251.345c6.494-20.737 5.374-24.527-4.927-16.5-5.823 4.682-7.838 8.25-8.958 15.831-1.343 10.48 1.568 19.399 6.047 17.838 1.343-.446 4.926-8.25 7.838-17.169zm442.281-24.75c7.614-2.007 8.286-2.676 8.286-10.48 0-14.94-13.437-51.73-18.811-51.73-1.344 0-8.51 6.02-16.124 13.6l-13.66 13.602 3.807 10.257c2.24 5.798 4.703 14.94 5.598 20.068l1.568 9.811 10.525-1.56c5.599-.67 14.108-2.453 18.811-3.568zm-262.682-29.88c1.568-2.006 3.136-7.357 3.583-12.263.224-4.905 1.12-9.81 1.792-10.926 3.36-5.351-4.031-4.46-10.75 1.338-4.03 3.345-9.18 7.358-11.42 8.473-7.614 4.46.448 16.055 11.42 16.5 1.344.224 3.808-1.337 5.375-3.121zm85.993-18.06c4.703-5.575 8.286-10.48 7.838-10.926-2.015-1.784-36.278-16.723-38.741-16.723-1.568 0-5.823 5.351-9.63 11.818-11.645 18.952-11.645 18.73 3.135 21.628 7.166 1.338 14.109 2.899 15.228 3.345 8.062 2.899 13.885.446 22.17-9.142zm158.102-26.757c0-4.683-25.081-25.197-39.19-32.332l-13.436-6.69-1.567 8.474c-.896 4.682-1.568 15.162-1.568 23.412l-.224 14.94 9.63 6.466c5.15 3.568 11.42 8.696 13.66 11.372l4.479 4.905 14.108-14.047c7.838-7.581 14.108-15.162 14.108-16.5zm-141.53 8.25c-3.583-9.365-16.572-35.676-17.691-35.9-2.24 0-19.931 13.38-19.931 15.163.224 1.784 33.591 22.52 36.502 22.744 1.12 0 1.568-.892 1.12-2.007zm77.483-26.311c.896-11.818.672-22.298-.448-23.413-.895-.892-7.166-2.007-13.884-2.453l-11.869-.446-7.39 21.852-7.39 21.629 12.765.223c6.942.223 15.228 1.115 18.363 2.007 3.135.891 6.27 1.783 6.942 2.006.672.223 2.015-9.588 2.911-21.405zm-41.429-4.46c3.807-11.818 6.27-22.074 5.599-22.743-1.568-1.561-30.232 3.567-32.248 5.797-1.791 2.007 15.228 38.575 18.14 38.575.895 0 4.926-9.811 8.51-21.629zm-84.201-48.832c5.822-2.006 10.525-4.905 10.525-6.466 0-1.56.672-6.02 1.344-9.81 1.791-8.251-2.464-9.589-4.48-1.562-.671 3.122-3.358 6.244-5.822 6.913-2.463.668-4.478 2.23-4.478 3.344 0 .892-2.016 2.23-4.48 2.899-2.463.669-4.478 2.676-4.478 4.682 0 4.237-.896 4.237 11.869 0zm19.259-29.655c2.687-1.784 2.687-2.676.448-5.575-3.807-4.46-6.943-4.46-6.943-.223 0 1.784-.895 3.345-2.239 3.345-1.12 0-2.24 1.115-2.24 2.23 0 2.675 6.719 2.898 10.974.223zm-381.818-30.548c4.927-1.784 4.479-4.906-1.792-12.933-2.91-4.013-5.598-8.919-6.046-11.149-.448-2.452-2.015-4.682-3.359-5.128-4.479-1.56-5.599 6.466-2.016 12.04 2.016 2.9 2.912 6.244 2.24 7.359-.672 1.338-1.792 4.236-2.24 6.69-.671 3.344.448 4.459 4.48 4.459 2.91 0 6.717-.67 8.733-1.338zm-19.259-5.798c2.911-2.898 3.583-10.702 1.12-10.702-3.583 0-6.718 3.567-7.838 8.473-1.568 5.351 2.24 6.689 6.718 2.23zM107.611 292.92c0-2.006-36.278-9.365-37.846-7.804-2.016 1.784 2.24 3.568 17.915 7.358 16.348 3.791 19.93 4.014 19.93.446z"/><path fill="#61ffb6" fill-rule="nonzero" d="M124.915 921.819l-14.401-50.497h-.433c.674 8.6 1.008 15.283 1.008 20.046v30.451H94.234v-70.112h25.333l14.69 49.777h.384l14.401-49.777h25.382v70.112h-17.48v-30.74c0-1.599.022-3.372.071-5.325.05-1.948.263-6.728.647-14.339h-.433l-14.204 50.404h-18.11zm130.565-35.154c0 11.796-2.904 20.766-8.718 26.904-5.808 6.138-14.318 9.205-25.524 9.205-11.047 0-19.514-3.083-25.404-9.254-5.891-6.17-8.84-15.152-8.84-26.948 0-11.67 2.932-20.58 8.79-26.735 5.858-6.155 14.38-9.232 25.552-9.232 11.2 0 19.694 3.05 25.476 9.161 5.78 6.106 8.669 15.07 8.669 26.899zm-48.451 0c0 13.559 4.734 20.335 14.209 20.335 4.816 0 8.39-1.648 10.718-4.938 2.323-3.295 3.49-8.424 3.49-15.397 0-7-1.183-12.173-3.54-15.512-2.361-3.34-5.885-5.009-10.57-5.009-9.54 0-14.307 6.837-14.307 20.52zm89.292 35.154h-19.026v-54.622h-17.19v-15.49h53.362v15.49h-17.146v54.622zm91.123-35.154c0 11.796-2.905 20.766-8.719 26.904-5.808 6.138-14.318 9.205-25.524 9.205-11.047 0-19.514-3.083-25.404-9.254-5.891-6.17-8.84-15.152-8.84-26.948 0-11.67 2.933-20.58 8.79-26.735 5.858-6.155 14.38-9.232 25.552-9.232 11.206 0 19.695 3.05 25.476 9.161 5.78 6.106 8.669 15.07 8.669 26.899zm-48.452 0c0 13.559 4.74 20.335 14.209 20.335 4.816 0 8.39-1.648 10.718-4.938 2.324-3.295 3.49-8.424 3.49-15.397 0-7-1.183-12.173-3.54-15.512-2.361-3.34-5.884-5.009-10.57-5.009-9.54 0-14.307 6.837-14.307 20.52zm99.742-34.958h21.289l-23.07 70.112h-22.396l-22.97-70.112h21.381l9.584 35.536c1.995 7.895 3.085 13.395 3.277 16.494.225-2.237.674-5.036 1.348-8.391.674-3.356 1.266-5.997 1.781-7.912l9.776-35.727zm28.9 0h19.119v70.112h-19.119zm77.538 70.112l-3.468-13.144H518.83l-3.567 13.144h-20.9l22.971-70.4h25.383l23.261 70.4h-20.807zm-7.414-28.678l-3.035-11.512c-.707-2.554-1.568-5.865-2.576-9.925-1.014-4.06-1.677-6.967-2-8.73-.29 1.632-.86 4.316-1.71 8.059-.849 3.743-2.734 11.109-5.66 22.108h14.981zm62.13-12.374h30.39v37.79c-8.252 2.815-17.327 4.217-27.212 4.217-10.855 0-19.245-3.132-25.168-9.396-5.924-6.269-8.883-15.2-8.883-26.806 0-11.321 3.244-20.128 9.726-26.424 6.488-6.296 15.574-9.45 27.262-9.45 4.428 0 8.614.42 12.543 1.25 3.935.829 7.365 1.887 10.286 3.164l-6.023 14.868c-5.074-2.493-10.641-3.743-16.713-3.743-5.55 0-9.847 1.8-12.883 5.396-3.03 3.596-4.548 8.736-4.548 15.42 0 6.552 1.37 11.545 4.115 14.982 2.746 3.437 6.702 5.156 11.875 5.156 2.822 0 5.425-.273 7.803-.813v-10.983h-12.57v-14.628zm73.012 0h30.39v37.79c-8.252 2.815-17.321 4.217-27.212 4.217-10.855 0-19.24-3.132-25.163-9.396-5.924-6.269-8.888-15.2-8.888-26.806 0-11.321 3.244-20.128 9.726-26.424 6.488-6.296 15.574-9.45 27.262-9.45 4.433 0 8.614.42 12.549 1.25 3.929.829 7.359 1.887 10.28 3.164l-6.022 14.868c-5.07-2.493-10.642-3.743-16.708-3.743-5.557 0-9.853 1.8-12.883 5.396-3.036 3.596-4.554 8.736-4.554 15.42 0 6.552 1.37 11.545 4.116 14.982 2.745 3.437 6.707 5.156 11.874 5.156 2.828 0 5.425-.273 7.803-.813v-10.983H672.9v-14.628zm44.742-29.06h19.119v70.112h-19.12zm77.538 70.112l-3.469-13.144H768.84l-3.567 13.144h-20.9l22.971-70.4h25.382l23.262 70.4H795.18zm-7.414-28.678l-3.036-11.512c-.707-2.554-1.567-5.865-2.575-9.925-1.014-4.06-1.677-6.967-2-8.73-.29 1.632-.86 4.316-1.71 8.059-.85 3.743-2.734 11.109-5.66 22.108h14.981zm60.009 28.678h-19.026v-54.622h-17.19v-15.49h53.362v15.49h-17.146v54.622zm91.122-35.154c0 11.796-2.904 20.766-8.718 26.904-5.814 6.138-14.319 9.205-25.525 9.205-11.047 0-19.513-3.083-25.404-9.254-5.896-6.17-8.838-15.152-8.838-26.948 0-11.67 2.926-20.58 8.789-26.735 5.858-6.155 14.373-9.232 25.547-9.232 11.206 0 19.7 3.05 25.48 9.161 5.776 6.106 8.67 15.07 8.67 26.899zm-48.452 0c0 13.559 4.735 20.335 14.21 20.335 4.816 0 8.389-1.648 10.712-4.938 2.33-3.295 3.496-8.424 3.496-15.397 0-7-1.183-12.173-3.54-15.512-2.361-3.34-5.885-5.009-10.575-5.009-9.535 0-14.303 6.837-14.303 20.52zm80.191 9.641v25.513H951.61v-70.112h23.07c19.135 0 28.703 6.908 28.703 20.717 0 8.12-3.978 14.405-11.94 18.846l20.516 30.549h-21.58l-14.926-25.513h-4.817zm0-14.24h3.562c6.647 0 9.973-2.93 9.973-8.78 0-4.828-3.26-7.24-9.781-7.24h-3.754v16.02zm47.728-30.359h19.12v70.112h-19.12zm30.873 62.151c0-2.94.872-5.21 2.625-6.809 1.748-1.598 4.29-2.4 7.633-2.4 3.179 0 5.617.802 7.321 2.4 1.7 1.599 2.548 3.869 2.548 6.81 0 2.875-.87 5.123-2.624 6.738-1.748 1.61-4.165 2.417-7.245 2.417-3.178 0-5.682-.797-7.512-2.395-1.83-1.599-2.746-3.852-2.746-6.76zm31.975-62.151h19.118v70.112h-19.118zm65.406 70.112h-19.026v-54.622h-17.19v-15.49h53.362v15.49h-17.146v54.622z"/></svg>