<?xml version="1.0" encoding="UTF-8" standalone="no"?>
<!DOCTYPE svg PUBLIC "-//W3C//DTD SVG 1.1//EN" "http://www.w3.org/Graphics/SVG/1.1/DTD/svg11.dtd">
<svg width="100%" height="100%" viewBox="0 0 1398 1024" version="1.1" xmlns="http://www.w3.org/2000/svg" xmlns:xlink="http://www.w3.org/1999/xlink" xml:space="preserve" xmlns:serif="http://www.serif.com/" style="fill-rule:evenodd;clip-rule:evenodd;stroke-linejoin:round;stroke-miterlimit:1.41421;">
    <g id="V2" transform="matrix(1.61239,0,0,1.60546,56.3152,-26.6887)">
        <g transform="matrix(1.59801,0,0,1.59801,-232.346,-294.606)">
            <path d="M246.867,402.191C246.915,402.132 246.959,402.069 247,402C247.6,401.1 248.1,401.4 249.1,403.1C249.8,404.4 252.1,407.8 254.2,410.6C256.3,413.4 258,416.6 258,417.7C258,420.1 264.6,424 268.8,424C270.5,424 272.2,424.5 272.6,425.1C272.9,425.7 274.8,426.9 276.7,427.7C278.6,428.5 280.4,429.9 280.7,430.9C281.3,433.2 286.4,436.2 288.4,435.4C290.9,434.5 291.6,439.7 289.6,443.5C288.6,445.2 287.5,448.3 287,450.3C286.4,453.3 286.6,454.5 288.6,457.2C290,459 291.6,462.2 292.2,464.3C292.9,466.8 294.4,468.7 296.7,470.1C298.5,471.2 300,472.9 300,473.8C300,475.7 297.6,493.9 296.1,503.4C295.5,506.7 295.3,509.7 295.6,510.1C296.4,511.5 282.6,525.1 275.6,529.8C259.2,540.8 237.2,545.2 217.5,541.5C189.3,536.2 166.4,515.6 157.8,488C155.9,481.8 155.5,478.3 155.5,467.3C155.5,457.8 155.2,454 154.3,454C153,454 150.4,456.4 149.7,458.2C149.4,459.2 149,459.2 148,458.3C147.1,457.5 146.9,455.3 147.4,450.3C147.8,446.6 148.2,441.6 148.3,439.3C148.4,436.4 149.3,434.3 151.1,432.3C154.5,428.7 160.2,418.5 159.3,417.7C158.5,416.8 161.9,413 163.5,413C164.2,413 167.2,410.4 170.1,407.2C176.9,399.9 177.1,399.8 180.9,401.1C184.2,402.3 184.8,403.8 182.8,405.8C182.2,406.4 181.9,407.2 182.1,407.5C182.8,408.2 193,401.1 193,400C193,399.4 191,398 188.6,396.8L184.2,394.7L186.8,387.2C189,380.4 189.1,379.6 187.6,378.8C186.6,378.2 186,376.6 186,374.2C186,369.3 187.2,367.6 189.9,368.5C191.5,369 192.8,368.4 195,366.2C196.6,364.5 200,362.4 202.4,361.5L206.8,359.8L236,378.4L236,383.7C236,389.7 238.8,396.3 242,398C243.1,398.6 244,399.7 244,400.5C244,400.73 244.028,400.947 244.08,401.149C244.285,402.288 246.216,405.164 247.368,407.254C248.234,409.079 250.408,411.921 251.2,412C251.6,412 251.2,410.4 250.3,408.5C250.006,407.875 249.708,407.324 249.417,406.855C249.32,406.656 249.207,406.445 249.079,406.218C248.518,405.229 247.208,403.3 246.867,402.191ZM238,519C238,518.4 236.2,514.4 234,510C230.6,503.2 229.6,502 227.5,502C226.1,502 222.5,501.1 219.5,500.1L214.1,498.2L213.1,502.8C212.6,505.4 211.9,509.6 211.5,512.1L210.8,516.7L216.2,518.3C222.2,520.1 238,520.6 238,519ZM252.5,515.1C255.8,513.5 260.4,510.5 262.8,508.4L267.1,504.5L259.9,500.1L252.8,495.7L249.1,497.8C247.1,498.9 243.4,500.4 240.8,501C238.1,501.7 236,502.4 236,502.5C236,502.7 237.4,506.5 239.1,510.9C242.6,520.2 241.9,519.9 252.5,515.1ZM209,504.9L210.2,495.9L205.2,490.7C202.5,487.8 199.8,484.5 199.2,483.4C198.4,481.8 197,481.4 191.4,481.2C187.7,481.1 183.9,481.2 182.9,481.5C181.3,482.1 181.2,482.4 182.6,486.3C184.7,492.2 188.7,498.7 193.4,503.8C198,508.8 204.7,514 206.5,514C207.3,514 208.2,510.7 209,504.9ZM275.5,493C276.7,490.5 278.5,486.1 279.3,483.3C281.1,477.2 281.5,477.4 271.2,478.7C266.6,479.2 265.7,479.7 264.3,482.4C263.4,484.1 261.4,487.2 259.7,489.3C256.4,493.5 256.3,493.3 264,498.4L269.5,502L271.4,499.8C272.4,498.5 274.2,495.5 275.5,493ZM195.3,469.3C195,464.4 194.7,460.4 194.6,460.3C194.5,460.2 191.3,460.9 187.5,461.9L180.5,463.6L180.2,469.4C179.8,477.9 179.8,478 188.4,478L195.9,478L195.3,469.3ZM277.3,474.4L281,473.7L281,467.6C281,461.2 279.3,453.3 276.9,448.8L275.5,446.1L271.3,450.1L267.1,454L268.1,459.5C268.7,463 268.8,466.8 268.2,470L267.3,475L270.4,475C272.1,475 275.2,474.7 277.3,474.4ZM193.8,456.9C197.4,455.5 196.3,453.5 190.7,451.2C187.8,450 185.1,449 184.7,449C183.9,449 182.5,452.3 181.4,456.7L180.7,459.2L186.1,458.5C189.1,458.1 192.5,457.4 193.8,456.9ZM269.1,447.3C270.4,445.9 270.9,445 270.2,445.4C269.5,445.8 267.5,445.2 265.6,444.1C260.9,441.2 260.6,441.4 263.2,446C264.5,448.2 265.8,450 266.1,450C266.4,450 267.7,448.8 269.1,447.3ZM197.9,438.9C194,435.1 193.7,435 191.9,436.6C189.2,439 189.4,439.4 194.3,441.2C201.6,444 202.5,443.5 197.9,438.9ZM216.5,431.4C220.6,429.5 224.8,428.5 230.4,428.1L238.5,427.5L234.5,424.9C224,418.2 224.7,418.4 217.3,420.3C210.4,422.1 202,426.3 202,428C202,428.9 208.9,434 210.1,434C210.5,434 213.4,432.8 216.5,431.4Z" style="fill:rgb(87,255,173);"/>
            <path d="M433.708,424.644L433.719,424.677C433.982,425.978 434.989,429.208 437.8,428.5L438.144,428.401C441.869,427.221 450.563,421.412 452.5,418.7C454.5,415.8 454.4,414.8 451.4,412.7C449.4,411.2 448.6,411.1 447.5,412C445.7,413.5 444.3,412.5 441.7,408.1C440.5,406 440.3,404.9 441.1,404.4C441.7,404 442.7,404.4 443.2,405.3C444.9,408.5 447.2,410.1 449.1,409.5C450.2,409.1 451,409.3 451,409.9C451,410.6 453.2,411 456.3,411C460.6,411 462.1,411.5 463.8,413.3C465,414.6 466,416.2 466,416.9C466,417.6 466.6,418 467.4,417.7C468.4,417.3 469,418.3 469.4,421.2C470.2,426 473.9,435 475.1,435C476.4,435 478,431.4 478,428.3C478,426.1 479.1,424.5 482.7,421.5C490.2,415.2 491.2,414.9 493.3,418.2C494.2,419.8 495,422 495,423.1C495,424.6 495.5,425 496.9,424.5C498.4,424 499,424.5 499.5,427C500,429.4 500.6,430 502.1,429.5C503.5,429 504.1,429.5 504.6,431.4C505.3,434.5 507.8,434.8 511,432.2C513.1,430.5 513.2,430 512.2,427C510.6,422.7 512.9,418.7 519,415.4C524.2,412.6 528.2,406.6 527.3,403.1C526.9,401.4 527.5,400.2 529.5,398.4C531.5,396.7 532.6,396.3 533.1,397.1C534.1,398.8 536,397.2 536,394.7C536,393.3 537.3,391.7 539.5,390.2C541.6,388.9 543,387.2 543,386C543,384.9 544.6,382 546.5,379.4C548.4,376.9 550,374.2 550,373.4C550,372.6 550.5,372 551,372C551.6,372 552,372.7 552,373.5C552,374.4 553.4,376.4 555.1,378.1C558.1,381.1 558.3,381.1 565.3,380.3C569.3,379.9 578.4,379.6 585.5,379.6C598.2,379.8 607.5,381.4 616.5,385L619.5,386.2L612.5,389.2L617.6,391.3C627.8,395.8 634.7,400.5 643.1,408.9C652.9,418.8 657.8,426.6 662.3,439.5C665.3,448.1 666.041,456.067 666.108,463.9C666.173,471.545 665.1,479.3 662.7,486.5C658.7,498.4 651.9,509.2 642.6,518.5C630.6,530.3 620.1,535.8 602.7,539.4C592.2,541.6 576.4,541.4 567,538.9C541.5,532.4 519.7,512.2 511.6,487.9C508.8,479.6 506.7,464.6 507.7,459.9C508.3,456.9 508.3,456.9 513.4,457.6C517.9,458.2 518.3,458.1 517.2,456.7C516.4,455.8 514.2,455 512.2,454.8C509.1,454.6 508.5,454.2 508.8,452.4C509.1,450.1 499.1,438.5 497.3,439.1C496.6,439.3 497.9,442.2 500.6,446.2C505.3,453.2 505.5,455 501.6,455C499.9,455 495.5,458.8 485.9,468.9C475,480.2 471.8,483 468.5,483.8C465.3,484.7 433.1,487 424.3,487C421.6,487 421.2,483.9 423.6,481.9C424.7,481 425,479.7 424.5,477.3C424,474.3 424.2,473.8 427.5,471.8L431.2,469.7L430.5,461L429.8,452.4L434.8,446.9C439.4,441.8 444,434.4 444,432C444,431.2 442.5,431.1 439.5,431.6C436.931,431.957 435.737,431.957 435.267,431.488L435.243,431.469L435.226,431.447L435.197,431.417L435.174,431.379L435.129,431.322C434.008,429.532 432.785,427.332 431.925,426.313C431.897,426.279 431.872,426.244 431.85,426.208C430.969,425.09 429.872,423.322 429.4,422C428.8,420.6 427.1,416.9 425.6,413.6C424.1,410.4 423.2,407.5 423.5,407.1C424.5,406.2 427.9,410.8 428.6,413.9C429,415.3 430.3,418.2 431.7,420.2C432.692,421.617 433.433,423.336 433.708,424.644ZM598.3,518.4C600.4,518.1 602,517.5 601.8,517.1C601.6,516.7 599.7,513.4 597.5,509.7L593.6,503L586.9,503C583.3,503 578.3,502.3 576,501.5C573.7,500.7 571.6,500 571.4,500C571.2,500 571,503.8 571,508.4C571,517.9 570.6,517.5 580.5,519C585.3,519.8 590.1,519.6 598.3,518.4ZM616,511.5C622.4,507.6 630.4,500 629.3,499C628.9,498.6 625.6,496.7 622,494.8L615.4,491.3L611.5,494.6C609.3,496.5 605.2,499 602.3,500.1L597.1,502.3L598.7,505.4C599.6,507.1 601.4,510.2 602.7,512.3C604.8,515.7 605.5,516.1 607.8,515.5C609.3,515.1 613,513.3 616,511.5ZM567.8,506.3C568.1,498.6 567.9,498 565.7,496.5C563.6,495.2 563.4,494.4 563.8,489.7C564.2,485.1 563.8,483.8 561,479.2C559.2,476.4 557.4,474 557,474C556.6,474 555.9,472.9 555.6,471.5C555.2,470.1 554.1,467.6 553.1,465.9L551.2,462.8L550.5,466.9C549.8,471.1 549.4,471.5 546.6,470.4C544.3,469.5 544.6,468.5 547.4,467.2C549,466.5 550,465.1 550.2,463.4C550.7,459.3 553.3,458.1 557,460.3C560.1,462.2 561.2,461.2 558.5,459C557.7,458.4 557.2,457.5 557.3,457.1C557.4,456.7 556.3,455 554.8,453.2C552.7,450.7 551.4,450 548.5,450C546.5,450 544,449.5 542.9,449C541.8,448.3 539.8,448.3 537.8,448.8C534.2,449.7 533.2,452 532.5,461.3C532,468.2 528.6,473.2 522.4,475.9C518.9,477.5 518.2,478.3 517.8,481.2C517.6,483.1 518,486 518.7,487.6C519.4,489.2 519.9,491.7 520,493.2C520,494.7 520.4,496.1 520.9,496.4C521.7,496.9 526.9,495.5 530.2,493.9C531.1,493.4 533.6,492.8 535.7,492.4C538.9,491.9 539.9,492.2 541.9,494.4C543.3,495.8 543.9,497 543.5,497C541.7,497 552.7,507.3 558.5,511.2C566.8,516.6 567.4,516.3 567.8,506.3ZM634.8,492.8C638.2,487.3 641,479.1 641.7,473L642.3,467.3L634.4,468.4C630,469.1 626,469.9 625.4,470.3C624.8,470.6 624,472.7 623.6,474.8C623.3,476.9 621.9,480.8 620.4,483.5C619,486.2 618.2,488.6 618.7,488.7C619.1,488.9 622.2,490.6 625.5,492.5C628.8,494.4 631.8,496 632.2,496C632.5,496 633.7,494.5 634.8,492.8ZM396.043,362.277C396.013,362.1 396,361.874 396,361.6C396,360.6 395.4,360 394.8,360.3C394,360.5 393.6,362 393.8,363.9C393.9,366 393.6,367 392.6,367C391.8,367 390.5,367.6 389.8,368.3C387.4,370.6 380.4,375 379.2,375C377.4,375 377.8,376.5 380,378.5C383.297,381.497 382.102,383.496 377.1,383.5L372.8,383.5L372.5,388.1C372.1,392.1 372.4,392.8 374.3,393.7C377.2,395 381.3,393.9 382.5,391.4C384.7,387.1 387.7,384.3 390.8,383.7C393.7,383.1 394.6,383.5 397.7,386.5C401.5,390.2 402.5,390.6 403.5,389.1C403.8,388.6 402.7,387.2 401,386C398.3,384.1 396.9,380.9 398.8,381C400.4,381.1 405.7,386.7 407.5,390.3C409.7,394.4 411.5,394.7 411.5,390.9C411.5,388 414.3,387.6 414.8,390.5C415.5,393.9 417.1,395 421.6,395C426.3,395 426.8,395.7 425,400.4C424.2,402.6 423.4,403 420.3,403C418.2,402.9 414.7,402.3 412.5,401.5C409,400.2 408.4,400.2 407.4,401.5C405.9,403.5 403.8,403.4 399.6,400.9C397,399.4 396,398.1 396,396.3C396,393.9 395.9,393.8 389.8,394.3C378.8,395.2 376.1,396 373.5,399.2C372.1,400.8 371,402.9 371,403.9C371,404.9 369.8,406.7 368.4,408.1C367,409.4 365.2,411.6 364.5,413C362.8,416.4 363.1,429.2 365,431.5C365.8,432.4 366.9,434.1 367.5,435.3C368,436.4 369.6,438.1 371,439.1C373.4,440.9 373.9,440.9 381,439.4C387.5,438 388.5,438 389.5,439.3C390.1,440.1 391.4,440.9 392.5,441.2C394.1,441.5 394.4,442.2 394.2,445.1C394,447.7 394.6,449.8 396.4,452.5C399.2,456.6 399.7,461.6 397.9,466.9C397,469.4 397.1,470.9 398.4,474C399.3,476.2 400,478.3 400,478.5C400,478.8 392.609,479 383.5,479L367.1,479L365.5,481.9C363.8,485.3 362.5,485.5 339.3,486.5C325.4,487.1 325,487.1 325,485.1C325,483.7 326.3,482.4 329.1,481C333.6,478.7 336.9,472.9 337,467.4C337,465.5 337.9,463.5 339.5,462C340.9,460.7 342,458.7 342,457.5C342,455.2 338,451.7 334,450.5C327.1,448.5 324.4,446.7 322.5,442.6C321.1,439.7 319.8,438.4 318,438.2C316.7,438 313.9,436.5 311.9,434.9C309.7,433.2 307,432 305.3,432C303.7,432 301.9,431.5 301.2,430.8C300.3,429.9 299.9,430.1 299.4,431.5C298.7,433.3 298.6,433.3 298,431.6C297.5,429.9 297.1,430 294.4,432.3C292.4,434 290.9,434.6 290,434C289.3,433.6 288,433.4 287.2,433.7C285.3,434.5 284,432.3 284,428.3C284,426.4 283.5,424.9 282.8,424.8C282.1,424.8 280.8,424.6 280,424.6C278.4,424.4 278.3,423.2 279.5,418.8C280.4,415.1 277.9,415 275.6,418.5C272,424 266.8,419.8 267.2,411.6C267.5,403.3 272.5,402.1 282,408.1C284.5,409.6 287,411 287.7,411.2C288.3,411.4 290.7,408.6 293,405.1L297.2,398.6L294.6,396.7C292.2,395 290.7,390.1 293,391.5C293.6,391.8 294,391.7 294,391.2C294,390.1 302.9,381 304,381C304.5,381 305,381.5 305.2,382.2C305.5,383 306.6,382.8 308.8,381.5C311.9,379.6 313.3,377.3 310.7,378.3C308.6,379.1 306.5,377.3 306.3,374.5C306.2,372.5 306.6,372 308.5,372C311,372 317,369 317,367.8C317,367.4 315.6,366.1 314,364.8C312.3,363.6 310,360.6 308.8,358.2C306.9,354.1 306.6,353.9 305.4,355.5C304,357.4 301,356.9 301,354.6C301,352.7 296.7,350 293.6,350C291.7,350 291.1,350.6 290.7,353.3C290.5,355 290.7,357.5 291.3,358.7C292.1,360.5 291.9,361.4 290.6,362.8C289.7,363.9 289.1,365.7 289.2,367C289.6,370.4 287.1,370.7 286.4,367.3C285.9,364.9 284.7,363.9 279.8,361.6C273.3,358.7 271,356.9 271,354.8C271.1,353.3 276.6,347 277.9,347C278.4,347 279,346.3 279.4,345.5C280.3,343 281.8,343.8 281.2,346.5C281,347.9 281.2,349 281.8,349C283.1,349 284.1,346.4 283.4,344.6C283.1,343.8 283.7,342.9 284.9,342.5C286.5,342 286.8,341.3 286.3,338.6C285.8,335.6 286.1,335.2 288.5,334.6C290.8,334 291.8,334.5 294.2,336.9C297.7,340.4 297.3,344.5 293.4,345.4C292.1,345.8 291,346.5 291,347.1C291,347.8 291.9,348 293.2,347.7C294.4,347.3 296.1,347.7 297,348.4C297.8,349.1 299.8,350 301.4,350.4C303.7,351 304.1,350.8 303.7,349.6C303.3,348.6 303.6,348 304.5,348C306.2,348 306.5,346.4 305,345.5C303,344.3 304,342.9 306.1,344C307.8,344.9 308.4,344.8 309.5,343.4C310.6,341.8 310.4,341.4 308.3,340.3C306.9,339.6 305.1,339 304.4,339C303.6,339 303,338 303,336.6C303,334.9 302,333.7 299.8,332.6C295.2,330.3 292.7,328.7 291.5,327.3C290.8,326.5 288.5,326.3 284.3,326.7C279.3,327.2 277.9,327.7 277.4,329.2C276.8,331.3 278.5,334 280.6,334C282.6,334 283.1,335.6 281.9,338.4C280.4,341.5 279,341.8 279,338.9C279,337.5 278.5,337 277.6,337.3C276.1,337.9 273.3,335.4 274.3,334.4C274.6,334 273.9,333 272.8,332L270.6,330.3L272.8,329.1C275.7,327.6 275.6,326 272.6,326C270.6,326 270.2,326.6 269.7,330.2C269.4,332.6 268.6,334.6 268,334.8C267.4,335 266.5,336.3 266,337.6C264.9,340.4 262.7,340.6 258.6,338.5C255.8,337 253.5,337.3 254.5,339C254.8,339.5 254.6,340.1 254.1,340.4C253.6,340.8 252.9,340.6 252.6,340.2C252.3,339.7 250.9,339.5 249.5,339.8C248.1,340 247,339.8 247,339.2C247,337.9 241.5,336 237.7,336C236,336 233.8,335.2 232.8,334.3C231.6,333.3 230.6,333 230.2,333.5C228.7,335.7 220.5,335.8 207,333.9C196.8,332.4 190,332.9 190,335.2C190,336.2 180.5,341 178.3,341C175.3,341.1 169.4,347.2 167.6,352.3C165.9,356.8 159.5,366.1 156.2,368.8C155.3,369.4 153.3,370 151.8,370C149.4,370 148.6,370.7 147.5,373.4C146.2,376.5 140.5,381.8 139.5,380.8C139.3,380.6 142.9,372.7 147.5,363.1C152.2,353.6 156.1,345.3 156.2,344.6C156.7,342.6 151.1,336.8 148.4,336.5C144.8,336.1 143.3,334.4 144.6,332.2C145.4,331 145.2,329.5 143.9,326.5C141.7,321.8 141.5,317.4 143.3,316.7C145.6,315.9 143.3,314.9 136.4,313.8C131.2,312.9 129.5,312.9 129.2,313.8C128.7,315.4 125.5,315.3 124.1,313.6C123.2,312.6 123.4,311.4 124.6,308.9C125.6,307 126.6,304.8 127,304C127.4,303.2 129.6,301.9 131.9,301.1C135.8,299.9 138.2,300.1 159.7,303.5C172.6,305.5 183.3,307 183.5,306.8C183.6,306.6 184.5,305.1 185.4,303.3C189.4,295.4 191.6,294.9 209.3,297.9C215.5,298.9 225.1,300.3 230.7,300.9C242.2,302.2 273,308.4 275.9,309.9C277,310.5 285,312.7 293.7,314.9C325.5,322.7 343.7,322.9 357.6,315.5C361.1,313.6 363.4,313 365.7,313.4C368.6,313.8 369.2,313.4 372.9,308.5C379.8,299.3 392,288.1 402.8,281C414.683,273.107 419.118,271.157 429.089,271.107C435.193,271.12 442.913,271.733 450.957,273.003C452.383,273.284 454.199,273.608 456.5,274C464.7,275.5 473,277.8 474.8,279.3C475.6,279.9 477.1,282.2 478.3,284.4L480.4,288.5L481.4,282.2C481.9,278.8 489.18,264.452 480.4,269.5C475.002,272.604 462.837,268.878 452.5,267.78C444.843,266.688 443.369,266.492 440.8,264.9C439.495,263.816 439.318,262.607 439.318,258.922C439.318,251.422 440.6,252.4 447.3,251.8C452.5,251.4 463.6,246.7 464.3,244.6C464.5,244 464.5,239.3 464.2,234.3L463.8,225L458,225L458,194.9L460.9,196.4C462.4,197.2 465.2,199.6 467,201.6C473.2,208.8 474.7,216.2 470.8,220.9C468.7,223.4 468.5,224.3 468.8,234.8C469.1,243.7 469.4,246 470.6,246C471.4,246 472,245.3 472,244.5C472,243.3 473.4,243 478.6,243C484.3,243 485.3,243.3 485.7,245C486,246 487.1,247.2 488.1,247.5C489.1,247.9 490,248.8 490,249.7C490,250.5 491.6,254.1 493.6,257.6C495.5,261.1 496.9,264.4 496.5,264.9C495.5,266.6 500.6,269.1 506,269.5C512.1,269.9 516.3,272.8 520.7,279.4L523.7,283.9L526.5,281C528.9,278.5 529.1,278 527.7,277.4C526.5,277 526,275.6 526,272.9C526,269.8 526.9,268 530.9,263.3C533.5,260.1 536.9,256.4 538.4,255.1C540.7,252.9 543.5,251.7 543.5,246C543.5,238.4 544.5,236.1 533.1,220.9C525.9,211.2 516.8,208.649 517.2,204.649C517.3,203.149 535,196.2 539,201.6C548.6,214.4 551.3,216.1 558.4,228.3C570.2,248.4 581,274.1 581,282C581,288.9 578.8,301.1 577.3,302.6C576.4,303.4 575.9,304.2 576.1,304.4C576.3,304.5 580.6,307 585.7,309.9C602.1,319.2 615.5,329.5 620.8,336.9C625.3,343.2 625.1,345 619.7,345C614.3,345 604,342.1 597,338.5C594,336.9 590.5,335.2 589.3,334.6C588.2,334 585.1,332.2 582.5,330.6C577.7,327.6 571,326.3 566.4,327.4L563.7,328.1L565.9,330.4C567,331.6 568,332.9 568,333.3C568,334.6 564.5,334 562.2,332.4C560.9,331.5 559,331 557.9,331.3C556.9,331.6 555.7,331.4 555.4,330.9C554.6,329.5 550,329.8 548.4,331.5C547.4,332.4 545.9,332.7 543.9,332.3C541.8,331.9 540.5,332.2 539.9,333.1C539.2,334.2 538.7,334.3 537.3,333.2C536.3,332.5 534.7,331.7 533.8,331.4C532.8,331 532,329.9 532,328.9C532,327.8 531.3,327 530.4,327C529.4,327 529,327.6 529.4,328.5C530.1,330.4 527.8,330.4 524,328.5C522.2,327.6 520,327.3 518.1,327.6C514.9,328.3 513.7,326.7 516.5,325.6C520.3,324.2 516.4,319.6 512.3,320.6C511.1,320.9 509.9,320.7 509.6,320.1C508.5,318.4 505.1,318.8 502,321C500.4,322.1 498.9,322.6 498.6,322.1C497.7,320.8 487.8,323.6 486.8,325.5C486.3,326.3 484.9,327 483.6,327C480.5,327 478.1,329.7 480.4,330.6C481.4,331 482,332.3 481.9,333.9L481.8,336.5L481.1,334C480.3,331 476.9,330.2 474.6,332.5C473.7,333.4 473,333.7 473,333.1C473,332.5 472.6,332 472,332C471.5,332 471,333.1 471,334.5C471,335.9 471.4,337 471.9,337C473.4,337 472,340.7 469.7,342.7C467.7,344.5 467.7,344.5 469.2,342.2C470.4,340.5 470.6,339 470,336.3C469.5,334.4 469.4,332.1 469.7,331.4C470.5,329.1 467.1,328.6 464.9,330.6C463.3,332 462.9,333.3 463.3,335.7L463.9,338.9L460.3,337.2C457.1,335.7 456.7,335.7 455.6,337.1C454.8,338.3 453.1,338.7 449.6,338.5C446,338.4 443.9,338.9 441.4,340.6C438.2,342.8 438,342.8 438,341C438,338 436.1,337.6 435.4,340.5C435.1,341.9 434.1,343 433.4,343C432.6,343 431.7,343.6 431.4,344.4C431.1,345.2 430.2,345.6 429.4,345.3C428.5,345 428,345.5 428,346.6C427.9,348.3 427.7,348.2 426,346.1C423.3,342.9 423.5,342.5 427.7,342.5C433.7,342.5 432.7,340.3 424.7,336.5C419.4,334.1 416,333.1 413.1,333.2C410.8,333.3 409,333.7 409,334.2C409,334.6 408.1,335 407,335C405.7,335 404.6,336 403.9,337.8C402.7,341.1 397.7,346.4 393.3,349.1C390.9,350.6 390,351.9 390,353.8C390,357.9 391.3,359.2 394.3,358.5C396.3,358 397.1,358.2 397.6,359.5C397.803,359.956 397.8,360.974 397.8,360.974C397.796,362.591 399.473,362.941 400.512,362.713C400.78,362.655 400.906,362.578 401.1,362.5C402.1,362.1 403,361 403,360C403,358.9 403.8,357.7 404.8,357.1C406.2,356.3 406.3,355.9 405.3,354.9C403.4,353 403.7,350.6 406.3,348.2C407.5,347.1 409.1,345.4 409.9,344.5C410.8,343.3 411.5,343.1 412.3,343.9C413.1,344.7 412.7,345.7 411,347.5C409,349.6 408.8,350.3 409.8,352.4C410.8,354.6 411.4,354.8 414.6,354.3C417.3,353.9 418.1,354 417.6,354.8C417.2,355.5 415.8,356 414.4,356C412.7,356 412,356.5 412,358C412,359.1 411.5,360 410.8,360C410.1,360 408.7,361.2 407.5,362.6C406.1,364.4 404.2,365.3 401,365.7C399.897,365.861 399.069,365.972 398.471,366.017L398.274,366.043C396.716,366.179 396.152,365.785 396.19,365.007C396.218,364.45 396.024,363.02 396.043,362.277ZM440.8,475C443.7,465.7 443.2,464 438.6,467.6C436,469.7 435.1,471.3 434.6,474.7C434,479.4 435.3,483.4 437.3,482.7C437.9,482.5 439.5,479 440.8,475ZM638.3,463.9C641.7,463 642,462.7 642,459.2C642,452.5 636,436 633.6,436C633,436 629.8,438.7 626.4,442.1L620.3,448.2L622,452.8C623,455.4 624.1,459.5 624.5,461.8L625.2,466.2L629.9,465.5C632.4,465.2 636.2,464.4 638.3,463.9ZM521,450.5C521.7,449.6 522.4,447.2 522.6,445C522.7,442.8 523.1,440.6 523.4,440.1C524.9,437.7 521.6,438.1 518.6,440.7C516.8,442.2 514.5,444 513.5,444.5C510.1,446.5 513.7,451.7 518.6,451.9C519.2,452 520.3,451.3 521,450.5ZM559.4,442.4C561.5,439.9 563.1,437.7 562.9,437.5C562,436.7 546.7,430 545.6,430C544.9,430 543,432.4 541.3,435.3C536.1,443.8 536.1,443.7 542.7,445C545.9,445.6 549,446.3 549.5,446.5C553.1,447.8 555.7,446.7 559.4,442.4ZM630,430.4C630,428.3 618.8,419.1 612.5,415.9L606.5,412.9L605.8,416.7C605.4,418.8 605.1,423.5 605.1,427.2L605,433.9L609.3,436.8C611.6,438.4 614.4,440.7 615.4,441.9L617.4,444.1L623.7,437.8C627.2,434.4 630,431 630,430.4ZM566.8,434.1C565.2,429.9 559.4,418.1 558.9,418C557.9,418 550,424 550,424.8C550.1,425.6 565,434.9 566.3,435C566.8,435 567,434.6 566.8,434.1ZM601.4,422.3C601.8,417 601.7,412.3 601.2,411.8C600.8,411.4 598,410.9 595,410.7L589.7,410.5L586.4,420.3L583.1,430L588.8,430.1C591.9,430.2 595.6,430.6 597,431C598.4,431.4 599.8,431.8 600.1,431.9C600.4,432 601,427.6 601.4,422.3ZM582.9,420.3C584.6,415 585.7,410.4 585.4,410.1C584.7,409.4 571.9,411.7 571,412.7C570.2,413.6 577.8,430 579.1,430C579.5,430 581.3,425.6 582.9,420.3ZM545.3,398.4C547.9,397.5 550,396.2 550,395.5C550,394.8 550.3,392.8 550.6,391.1C551.4,387.4 549.5,386.8 548.6,390.4C548.3,391.8 547.1,393.2 546,393.5C544.9,393.8 544,394.5 544,395C544,395.4 543.1,396 542,396.3C540.9,396.6 540,397.5 540,398.4C540,400.3 539.6,400.3 545.3,398.4ZM553.9,385.1C555.1,384.3 555.1,383.9 554.1,382.6C552.4,380.6 551,380.6 551,382.5C551,383.3 550.6,384 550,384C549.5,384 549,384.5 549,385C549,386.2 552,386.3 553.9,385.1ZM383.4,371.4C385.6,370.6 385.4,369.2 382.6,365.6C381.3,363.8 380.1,361.6 379.9,360.6C379.7,359.5 379,358.5 378.4,358.3C376.4,357.6 375.9,361.2 377.5,363.7C378.4,365 378.8,366.5 378.5,367C378.2,367.6 377.7,368.9 377.5,370C377.2,371.5 377.7,372 379.5,372C380.8,372 382.5,371.7 383.4,371.4ZM374.8,368.8C376.1,367.5 376.4,364 375.3,364C373.7,364 372.3,365.6 371.8,367.8C371.1,370.2 372.8,370.8 374.8,368.8ZM162,319.1C162,318.2 145.8,314.9 145.1,315.6C144.2,316.4 146.1,317.2 153.1,318.9C160.4,320.6 162,320.7 162,319.1Z" style="fill:rgb(87,255,173);"/>
        </g>
        <g transform="matrix(5.03698,0,0,5.03698,-339.903,387.073)">
            <text x="59.159px" y="52.863px" style="font-family:'OpenSans-Extrabold', 'Open Sans', sans-serif;font-weight:800;font-size:18px;fill:rgb(97,255,182);">MO<tspan x="90.369px 100.643px 114.811px 127.3px 133.567px 146.276px 159.6px " y="52.863px 52.863px 52.863px 52.863px 52.863px 52.863px 52.863px ">TOVIAGG</tspan>IA<tspan x="191.004px 201.278px 215.622px " y="52.863px 52.863px 52.863px ">TOR</tspan>I</text>
        </g>
    </g>
</svg>
