<svg viewBox="0 0 280 49" xmlns="http://www.w3.org/2000/svg" fill-rule="evenodd" clip-rule="evenodd" stroke-linejoin="round" stroke-miterlimit="1.414"><path d="M27.442.55h25.2c2.6 2.2 4.8 5.2 6.2 8.7 4.5 11.1 0 23.7-10 28.2s-21.9-.9-26.4-12c-3.7-9.1-1.4-19.1 5-24.9zm55.1 0h-18c1 1.5 1.8 3.1 2.5 4.8 3.1 7.5 3 15.6.3 22.8l15.2-27.6zm-70.7 29.4c-.3-.7-.5-1.3-.7-2l-11.1 20.4h35.3c-10.2-1.3-19.3-8-23.5-18.4zm39 16c-2.8 1.3-5.7 2.1-8.6 2.4h14.1l6.2-11.4c-3 3.7-7 6.9-11.7 9z" fill="#e2001d"/><path d="M170.842.55l-15.2 47.8h-11.7l-6-22.9-7.5 22.9h-14l15.2-47.8h11l6.9 26.1 8.4-26.1h12.9zm26.5 37.3l-5.7 10.4h-29.2l15.2-47.8h12.7l-11.3 37.3h18.3v.1zm82.5-21.4v.3h-10.7l.2-1.4c.1-1 .1-1.9-.1-2.5-.2-.6-.5-1.1-1-1.5-.5-.4-1.1-.7-1.8-.9-.8-.2-1.7-.3-2.6-.3-.8 0-1.6.1-2.4.3-.8.2-1.4.4-2.1.8-.6.3-1 .8-1.4 1.3-.4.5-.6 1.1-.7 1.9-.1.7.1 1.2.5 1.7.6.6 1.3 1.1 2.2 1.5.9.4 1.9.8 2.9 1 1.1.3 2 .5 2.6.7 1.7.5 3.2 1 4.5 1.7 1.4.7 2.6 1.5 3.6 2.6s1.7 2.4 2.2 4c.4 1.5.5 3.4.3 5.5-.3 2.9-1.2 5.3-2.5 7.4-1.3 2-3 3.7-4.8 4.9-1.8 1.2-3.9 2.1-6.1 2.7-2.2.5-4.3.8-6.3.8-6.1 0-10.6-1.4-13.3-4.1-5.6-5.2-2.4-13.7-2-14.7l.1-.2h11.1l-.2.5c-.5 1.3-1.5 4.4 0 6.4.9 1.3 2.7 1.9 5.3 1.9h.4c.8 0 1.7-.1 2.5-.3.8-.2 1.6-.5 2.3-1 .7-.4 1.2-.9 1.7-1.6.4-.6.7-1.3.8-2.2.1-.7 0-1.3-.4-1.7-.4-.6-1.1-1-1.8-1.5-.9-.5-1.9-.9-3-1.2-1.2-.4-2.5-.8-3.7-1.2-1.3-.4-2.6-.9-3.8-1.5-1.3-.6-2.4-1.5-3.4-2.5s-1.8-2.3-2.3-3.8c-.5-1.5-.7-3.3-.4-5.4.3-2.7 1.1-5 2.4-7 1.3-1.9 2.8-3.4 4.6-4.6 1.8-1.2 3.8-2 5.9-2.6.2-.1.4-.1.6-.1l.2-.1c.6-.1 2.3-.4 4.4-.4 4.9 0 13.5 1.4 15.5 11 .1 1.3.2 4 0 5.4zm-164.7 31.8l-2.2-47.7h-12.5l-26.2 47.8h14.3l4.1-8.4h10.1l.1 8.3h12.3zm-17.6-18.4l4.9-10.8.1 10.8h-5zm139.4 18.4l-2.2-47.7h-12.5l-26.1 47.8h14.3l4.1-8.4h10.1l.1 8.3h12.2zm-17.5-18.4l4.9-10.8.1 10.8h-5z" fill-rule="nonzero" fill="#fff"/></svg>