<svg viewBox="0 0 150 50" xmlns="http://www.w3.org/2000/svg" fill-rule="evenodd" clip-rule="evenodd" stroke-linejoin="round" stroke-miterlimit="1.414"><path d="M38.967 26.306h-4.79l1.93-3.172h.009l4.525-7.449h8.202v-1.882h-7.057l2.04-3.351h6.896a2.604 2.604 0 0 1 2.603 2.603v13.251h-4.458l.007-7.163-5.55.003-2.427 3.988-1.93 3.172zm55.176 0h-4.334v-8.612h14.42a2.776 2.776 0 0 1 2.774 2.775v5.837H102.4l-.001-7.146h-8.256v7.146zM39.792 13.803H27.14v9.331h6.972l-1.93 3.172h-6.897a2.604 2.604 0 0 1-2.603-2.602V13.055a2.604 2.604 0 0 1 2.603-2.603h16.545l-2.04 3.351zm29.125 12.503h-14.42v-8.612h14.42a2.776 2.776 0 0 1 2.775 2.775v3.062a2.776 2.776 0 0 1-2.775 2.775zm19.656 0h-13.17a2.604 2.604 0 0 1-2.603-2.602V13.055a2.604 2.604 0 0 1 2.603-2.603h13.17v3.351H77.258v1.883h11.315l-2.04 3.352h-9.275v4.096h11.315v3.172zm34.244-12.503H112.69v9.331h8.163v-3.992h-7.78l2.163-3.456h9.62v10.62h-14.02a2.604 2.604 0 0 1-2.603-2.602V13.055a2.604 2.604 0 0 1 2.603-2.603h14.02l-2.04 3.351zm-55.73 5.357h-8.256v3.91h8.256v-3.91zm37.141-8.708a2.776 2.776 0 0 1 2.775 2.775v1.692a2.776 2.776 0 0 1-2.775 2.775H89.81v-7.242h14.42zm-35.311 0a2.776 2.776 0 0 1 2.775 2.775v1.692a2.776 2.776 0 0 1-2.775 2.775h-14.42v-7.242h14.42zm33.482 3.351h-8.256v1.883h8.256v-1.883zm-35.312 0h-8.256v1.883h8.256v-1.883z" fill="#fff"/><path d="M74.998.068c41.152 0 74.562 9.716 74.562 21.683 0 7.178-12.017 13.545-30.513 17.492-11.585 4.085-27.577 10.69-44.049 10.69-16.79 0-33.176-6.342-44.761-10.844C12.145 35.131.437 28.836.437 21.751.437 9.784 33.847.068 74.998.068zm0 .804c35.409 0 64.156 9.356 64.156 20.88 0 6.056-7.942 11.515-20.62 15.33-10.785 3.824-26.74 10.5-43.536 10.5-17.2 0-34.757-7.195-44.355-10.75-12.2-3.802-19.8-9.155-19.8-15.08 0-11.524 28.746-20.88 64.155-20.88z" fill="#fff"/><path d="M74.826 46.005C59.846 45.655 22.803 35.419 19.444 25 27.06 31.31 59.822 36.096 75 36.096h.179c15.256-.037 47.79-4.81 55.378-11.096-3.373 10.46-40.692 20.735-55.557 21.008l-.175-.003z" fill="#ed2024"/></svg>