<svg viewBox="0 0 150 23" xmlns="http://www.w3.org/2000/svg" fill-rule="evenodd" clip-rule="evenodd" stroke-linejoin="round" stroke-miterlimit="1.414"><path d="M37.117 22.568h4.796V11.205h-4.796v11.363zm32.34 0h14.044v-2.127h-9.249v-9.236h-4.794v11.363zm55.979-11.363h-3.773l-.045 7.939-8.807-7.939h-4.96v11.363h4.027l.045-8.083 9.081 8.083h4.432V11.205zm-77.96 0v11.363h9.44c4.772 0 9-1.85 9-6.006 0-2.743-2.455-5.357-8.82-5.357h-9.62zm4.794 2.127h4.827c2.092 0 3.887 1.185 3.887 3.246 0 2.289-1.296 3.863-4.045 3.863H52.27v-7.109zm78.85-2.127v11.363h9.44c4.775 0 9-1.85 9-6.006 0-2.743-2.456-5.357-8.817-5.357h-9.623zm4.796 2.127h4.827c2.091 0 3.885 1.185 3.885 3.246 0 2.289-1.293 3.863-4.045 3.863h-4.667v-7.109zm-43.59-2.127l-6.477 11.363h4.727l1.523-2.71h5.803l1.25 2.71h4.835l-6.045-11.363h-5.616zm.952 6.851c.592-1.347 1.393-2.435 2.005-4.058.614 1.623 1.325 2.71 1.847 4.058h-3.852zm-75.977-5.478L23.323.424l10.882 22.154H21.252l-3.951-8.027-3.934 8.027H.439L11.325.422l5.976 12.156" fill="#fff"/></svg>