<svg viewBox="0 0 200 60" xmlns="http://www.w3.org/2000/svg" fill-rule="evenodd" clip-rule="evenodd" stroke-linejoin="round" stroke-miterlimit="1.414"><path d="M.09.088h41.688c7.253-.09 11.119 5.784 12.857 12.048L69.38.088l4.915-.09-18.401 15.075 8.93 24.605c.66 1.648 4.017 6.204 8.692 6.204l119.76-.15c1.5-1.558 3.957-.6 3.987 1.199 0 2.847-3.147 2.218-3.777 1.678l-137.532.15c-4.676.12-10.37-4.226-12.498-9.32l-4.465-10.37-23.617 19.6-5.005.09 27.633-22.567-8.092-20.74c-.57-1.199-1.859-2.907-4.736-2.937L0 2.605.09.088z" fill="#fff" fill-rule="nonzero"/><path d="M78.79 25.742l15.705.06c1.529-.09 1.918 1.828 1.439 2.787L90.03 43.574l-16.124-.06c-2.248.06-2.548-1.468-1.948-3.147l2.517-6.383 8.362.06c1.738 0 1.798 2.068-.06 2.098h-1.918l-2.068 5.304c-.21.57.12 1.14.929 1.14h2.847l5.724-14.716c.51-1.139-.629-1.079-1.019-1.079l-8.631.06c-.66-.06-.57-1.109.15-1.109zM101.838 25.922l15.734.06c1.379.03 2.218 2.128 1.229 4.345l-5.095 12.888h-7.463l5.455-13.667c.75-1.918-1.049-2.517-2.607-2.637l-5.515 13.307c-.78 1.678-3.177 3.326-4.705 3.326h-4.556l7.523-17.622zM166.873 55.083h4.196c.36 0 .6.57.33 1.169l-1.35 3.416h-1.977l1.438-3.626c.21-.51-.27-.66-.689-.72l-1.469 3.537c-.21.45-.839.9-1.258.9h-1.23l2.009-4.676zM192.827 44.803c.63-.66 1.469-1.019 2.308-1.019.869-.03 1.738.27 2.427.93 1.349 1.288 1.439 3.416.15 4.764a3.394 3.394 0 0 1-4.765.15c-.75-.72-1.559.03-1.02.66l.18.18c1.829 1.738 4.736 1.678 6.474-.15 1.739-1.829 1.649-4.736-.18-6.474a4.587 4.587 0 0 0-3.266-1.259 4.542 4.542 0 0 0-3.207 1.439c-.84.869.36 1.408.899.779zM146.194 10.247c-1.919 0-3.657 1.17-4.286 2.758l-5.245 13.037h-8.332c-1.468 0-3.716 1.049-4.345 2.817l-5.665 14.595h15.765c1.438 0 4.016-.719 4.855-2.787l10.34-26.703c.959-2.728 1.828-2.757 2.757-2.757h8.781v-.9l-14.625-.06zm-12.408 16.634l2.607.06-5.814 14.505c-.18.45-.66 1.08-1.169 1.08h-2.967l5.755-14.326c.3-.6.509-1.29 1.588-1.32z" fill="#fff" fill-rule="nonzero"/><path d="M149.49 26.012l16.244.06c1.049 0 1.978 1.408 1.499 2.637l-2.278 5.994c-.21.36-.57.66-1.08.66l-8.031.06c-1.588.03-1.618-2.188 0-2.158h1.798l2.038-5.245c.45-1.17 0-1.08-.959-1.14h-2.128l-5.514 14.626c-.18.72.09 1.14.959 1.14h9.44l.03.898h-15.734c-1.529 0-2.488-1.558-1.948-2.757l5.664-14.775zM124.495 55.023l4.436.03c.3 0 .54.39.42.719l-.63 1.648c-.06.09-.15.18-.3.18l-2.188.03c-.42 0-.45-.6 0-.6h.48l.57-1.438c.12-.33 0-.3-.27-.3h-.57l-1.438 3.837c-.06.21.03.3.27.3h2.517v.389h-4.316c-.42 0-.69-.42-.54-.75l1.56-4.045zM179.16 27.06l-5.124 13.247c-.96 2.158-3.057 3.147-4.136 3.147h-4.226c-.51 0-.42-.21-.3-.45l6.594-17.082 15.135.15c1.438 0 3.027.659 2.247 2.637l-.42 1.199-1.588 4.136h-6.893c-.45 0-.33-.36-.15-.75l1.649-3.896c.78-1.888-1.798-2.667-2.787-2.337zM155.904 55.263l-1.439 3.686c-.27.6-.839.869-1.139.869h-1.168c-.15 0-.12-.06-.09-.12l1.828-4.735 4.196.03c.39 0 .839.18.629.72l-.12.329-.45 1.139h-1.917c-.12 0-.09-.09-.03-.21l.45-1.08c.239-.509-.48-.718-.75-.628zM134.955 50.947l-3.387 8.781h-2.338l3.447-8.781h2.278zM147.063 55.472h-3.357c-.36.03-.36.21-.54.48l-.809 2.098c-.24.63-.12 1.139.42 1.139h2.098c.33 0 .48.749 0 .749l-4.496.03c-.659 0-.899-.81-.42-2.038l.9-2.368c.24-.54.81-.69 1.588-.69h4.915l.87-2.247h2.517l-.9 2.338h2.848c.27 0 .36.54-.03.54h-3.027l-.989 2.637c-.3.809 0 1.109.84 1.109h1.678v.629l-4.616.03c-.869 0-.959-.66-.39-1.948l.9-2.488zM160.909 55.023c-.84 0-1.109.48-1.379.959l-1.139 2.937c-.21.57-.33 1.079.21 1.079h4.256c.78 0 .929-.36 1.229-.84l1.228-3.206c.3-.81.18-.9-.18-.9h-4.225v-.03zm1.289.36h1.049l-1.41 3.626c-.299.51-.658.42-1.228.42l1.589-4.047z" fill="#fff" fill-rule="nonzero"/><g fill="#fff" fill-rule="nonzero"><path d="M172.088 55.083l2.727-.06c.75 0 1.139-.09.63 1.289l-1.35 3.386h-2.337l1.379-3.476c.27-.63-.03-.63-.51-.93-.18-.06-.36-.12-.54-.21zM177.602 50.827l-.809 2.068h-2.368l.81-2.068h2.367z"/></g><path d="M182.337 55.502h-2.547c-.33 0-.39.33-.57.75l-.599 1.588c-.39 1.049-.15 1.409.36 1.409h2.038c.45 0 .51.629.06.629h-4.436c-.72 0-1.348-.24-.63-2.068l.81-2.068c.33-.78 1.079-.899 1.738-.899h3.926c.15 0 .18.66-.15.66zM189.35 54.843h-4.825c-.659 0-.959.81-1.228 1.469-.63 1.528-.39 1.588.36 1.588h2.307c.09 0-.3 1.319-1.08 1.319h-2.576c-.27 0-.51.659-.36.659h4.765c.93 0 2.098-2.817 1.379-2.817h-2.787c-.36 0 .36-1.679.779-1.679h2.907c.18.09.63-.539.36-.539zM134.925 55.023l4.435.03c.3 0 .54.39.42.719l-.63 1.648c-.06.09-.15.18-.3.18l-2.187.03c-.42 0-.45-.6 0-.6h.48l.569-1.438c.12-.33 0-.3-.27-.3h-.57l-1.438 3.837c-.06.21.03.3.27.3h2.518v.389h-4.316c-.42 0-.69-.42-.54-.75l1.559-4.045z" fill="#fff" fill-rule="nonzero"/></svg>