<?xml version="1.0" encoding="UTF-8" standalone="no"?>
<!DOCTYPE svg PUBLIC "-//W3C//DTD SVG 1.1//EN" "http://www.w3.org/Graphics/SVG/1.1/DTD/svg11.dtd">
<svg width="100%" height="100%" viewBox="0 0 280 49" version="1.1" xmlns="http://www.w3.org/2000/svg" xmlns:xlink="http://www.w3.org/1999/xlink" xml:space="preserve" xmlns:serif="http://www.serif.com/" style="fill-rule:evenodd;clip-rule:evenodd;stroke-linejoin:round;stroke-miterlimit:1.41421;">
    <g transform="matrix(1,0,0,1,-31.7577,-41.05)">
        <path d="M59.2,41.6L84.4,41.6C87,43.8 89.2,46.8 90.6,50.3C95.1,61.4 90.6,74 80.6,78.5C70.6,83 58.7,77.6 54.2,66.5C50.5,57.4 52.8,47.4 59.2,41.6ZM114.3,41.6L96.3,41.6C97.3,43.1 98.1,44.7 98.8,46.4C101.9,53.9 101.8,62 99.1,69.2L114.3,41.6ZM43.6,71C43.3,70.3 43.1,69.7 42.9,69L31.8,89.4L67.1,89.4C56.9,88.1 47.8,81.4 43.6,71ZM82.6,87C79.8,88.3 76.9,89.1 74,89.4L88.1,89.4L94.3,78C91.3,81.7 87.3,84.9 82.6,87Z" style="fill:rgb(226,0,29);"/>
        <path d="M202.6,41.6L187.4,89.4L175.7,89.4L169.7,66.5L162.2,89.4L148.2,89.4L163.4,41.6L174.4,41.6L181.3,67.7L189.7,41.6L202.6,41.6ZM229.1,78.9L223.4,89.3L194.2,89.3L209.4,41.5L222.1,41.5L210.8,78.8L229.1,78.8L229.1,78.9ZM311.6,57.5L311.6,57.8L300.9,57.8L301.1,56.4C301.2,55.4 301.2,54.5 301,53.9C300.8,53.3 300.5,52.8 300,52.4C299.5,52 298.9,51.7 298.2,51.5C297.4,51.3 296.5,51.2 295.6,51.2C294.8,51.2 294,51.3 293.2,51.5C292.4,51.7 291.8,51.9 291.1,52.3C290.5,52.6 290.1,53.1 289.7,53.6C289.3,54.1 289.1,54.7 289,55.5C288.9,56.2 289.1,56.7 289.5,57.2C290.1,57.8 290.8,58.3 291.7,58.7C292.6,59.1 293.6,59.5 294.6,59.7C295.7,60 296.6,60.2 297.2,60.4C298.9,60.9 300.4,61.4 301.7,62.1C303.1,62.8 304.3,63.6 305.3,64.7C306.3,65.8 307,67.1 307.5,68.7C307.9,70.2 308,72.1 307.8,74.2C307.5,77.1 306.6,79.5 305.3,81.6C304,83.6 302.3,85.3 300.5,86.5C298.7,87.7 296.6,88.6 294.4,89.2C292.2,89.7 290.1,90 288.1,90C282,90 277.5,88.6 274.8,85.9C269.2,80.7 272.4,72.2 272.8,71.2L272.9,71L284,71L283.8,71.5C283.3,72.8 282.3,75.9 283.8,77.9C284.7,79.2 286.5,79.8 289.1,79.8C289.1,79.8 289.4,79.8 289.5,79.8C290.3,79.8 291.2,79.7 292,79.5C292.8,79.3 293.6,79 294.3,78.5C295,78.1 295.5,77.6 296,76.9C296.4,76.3 296.7,75.6 296.8,74.7C296.9,74 296.8,73.4 296.4,73C296,72.4 295.3,72 294.6,71.5C293.7,71 292.7,70.6 291.6,70.3C290.4,69.9 289.1,69.5 287.9,69.1C286.6,68.7 285.3,68.2 284.1,67.6C282.8,67 281.7,66.1 280.7,65.1C279.7,64.1 278.9,62.8 278.4,61.3C277.9,59.8 277.7,58 278,55.9C278.3,53.2 279.1,50.9 280.4,48.9C281.7,47 283.2,45.5 285,44.3C286.8,43.1 288.8,42.3 290.9,41.7C291.1,41.6 291.3,41.6 291.5,41.6L291.7,41.5C292.3,41.4 294,41.1 296.1,41.1C301,41.1 309.6,42.5 311.6,52.1C311.7,53.4 311.8,56.1 311.6,57.5ZM146.9,89.3L144.7,41.6L132.2,41.6L106,89.4L120.3,89.4L124.4,81L134.5,81L134.6,89.3L146.9,89.3ZM129.3,70.9L134.2,60.1L134.3,70.9L129.3,70.9ZM268.7,89.3L266.5,41.6L254,41.6L227.9,89.4L242.2,89.4L246.3,81L256.4,81L256.5,89.3L268.7,89.3ZM251.2,70.9L256.1,60.1L256.2,70.9L251.2,70.9Z" style="fill-rule:nonzero;"/>
    </g>
</svg>
