<svg viewBox="0 0 194 46" xmlns="http://www.w3.org/2000/svg" fill-rule="evenodd" clip-rule="evenodd" stroke-linejoin="round" stroke-miterlimit="1.414"><path d="M22.686 5.282c-2.517.07-4.963.559-7.269 1.607l3.005 5.312c1.328-.558 2.866-.908 4.264-.908.49 0 .908.07 1.397.139 5.731.42 10.345 6.362 9.926 12.022-.49 6.22-5.452 10.135-11.323 10.415h-1.12c-3.843-.839-7.057-2.446-8.944-6.082L6.33 16.884c-.838 2.517-1.117 4.893-.908 7.48.98 8.247 7.269 14.537 15.517 15.516.558.07 1.188.07 1.747.07 9.576-.14 17.263-7.759 17.403-17.264C39.95 13.25 32.75 5.98 23.594 5.282h-.908zm0 39.7C10.385 44.981.25 34.916.25 22.685c0-6.011 2.375-11.464 6.29-15.517L17.235 25.62c.488.838 1.187 1.607 2.026 2.237.979.559 2.096.978 3.285.978h.14c4.333.14 7.338-4.543 5.87-8.387-.838-2.446-3.284-4.053-5.87-4.053-.35 0-.7 0-1.049.07-1.887.209-3.774 1.816-4.613 3.494L8.567 5.282A22.32 22.32 0 0 1 22.686.25C35.057.25 45.12 10.314 45.12 22.686c0 12.231-10.064 22.295-22.435 22.295m57.105-19.64l-3.425-5.801c-.14.56-.21 1.118-.21 1.748v16.006h6.15v-7.549l-2.515-4.404zm36.414-1.188l3.285 5.661v7.41h-.07v.07h-6.92v-19.5l3.705 6.359zm0-3.074l3.285 5.59v-3.634c0-2.655 4.473-2.865 4.473 0v14.188h4.124v.07h3.564V23.036c0-2.655 4.474-2.865 4.474 0v14.259h6.92V22.686c0-7.899-9.926-9.366-13.56-4.404-2.237-3.074-6.85-3.704-10.066-1.886v-.979h-6.499l3.285 5.662zm38.582 6.848l-7.549-13.069v22.365h6.151v-.908a10.58 10.58 0 0 0 4.752 1.118c5.942 0 10.834-4.892 10.834-10.904 0-5.94-4.892-10.832-10.834-10.832-1.747 0-3.354.419-4.752 1.118V7.799h-6.151v3.913l7.689 13.21c.559-1.119 1.816-1.956 3.214-1.956a3.596 3.596 0 0 1 3.565 3.563 3.596 3.596 0 0 1-3.565 3.565c-1.538 0-2.795-.838-3.354-2.167zm24.601.21l-5.03-8.667c-1.678 1.887-2.657 4.333-2.657 7.06 0 6.01 4.893 10.903 10.903 10.903 5.942 0 10.834-4.892 10.834-10.904 0-5.94-4.892-10.832-10.834-10.832-2.726 0-5.172.978-7.129 2.655l3.913 6.64a3.593 3.593 0 0 1 3.216-2.026 3.596 3.596 0 0 1 3.565 3.563 3.596 3.596 0 0 1-3.565 3.565c-1.398 0-2.655-.769-3.216-1.957zm-79.26 3.495c1.12-.42 1.888-1.468 2.099-2.656h7.128a11.06 11.06 0 0 1-9.226 8.387c-.42 0-.909.07-1.398.07-5.94 0-10.833-4.892-10.833-10.904 0-2.376.769-4.473 2.028-6.29l5.59 9.575c.56 1.258 1.748 2.097 3.215 2.097.49 0 .979-.07 1.398-.279h-.001zm0-6.99h2.168c-.14-1.327-.979-2.376-2.167-2.865-.42-.21-.909-.28-1.398-.28-1.886 0-3.354 1.329-3.494 3.145h4.892-.001zm0-8.876c-.418 0-.908-.069-1.397-.069-2.934 0-5.731 1.258-7.688 3.284l5.173 8.946v-.49h13.349c0-.349.07-.627.07-.908 0-5.45-4.194-10.064-9.506-10.763h-.001zm-20.337 6.5l-2.586-4.403a5.217 5.217 0 0 1 2.586-1.678c.559-.21 1.187-.279 1.747-.279H86.5v5.731h-1.4c-1.606 0-2.795 1.118-2.795 2.796V26.6l-2.515-4.334zm-21.388 5.661l-7.619-13.069v22.365h6.151v-.908c1.468.699 3.076 1.118 4.752 1.118 5.942 0 10.904-4.892 10.904-10.904 0-5.94-4.962-10.832-10.904-10.832-1.676 0-3.284.419-4.752 1.118V7.799h-6.151v3.913l7.689 13.21c.559-1.119 1.816-1.956 3.214-1.956a3.596 3.596 0 0 1 3.565 3.563 3.596 3.596 0 0 1-3.565 3.565c-1.467 0-2.725-.838-3.284-2.167" fill="#ffffff"/></svg>