<svg viewBox="0 0 428 113" xmlns="http://www.w3.org/2000/svg" fill-rule="evenodd" clip-rule="evenodd" stroke-linejoin="round" stroke-miterlimit="1.414"><path d="M137.41 78.519l9.387-44.031h22.875l-.82 3.55 6.124-3.55h8.793l-2.717 12.734-7.958-.042-5.698.952-6.456 30.387h-23.53zM179.003 78.519l9.386-44.031h23.463l-9.386 44.03h-23.463zM237.85 78.519l6.676-31.143-4.942.763-6.494 30.38h-23.528l6.668-31.286h-2.474l2.717-12.745h25.35l-.83 3.579 6.38-3.58h23.392l-9.383 44.032H237.85zM323.518 78.519l12.063-54.732h23.465L346.983 78.52h-23.465zM358.63 78.519l7.357-34.511h-7.03l2.03-9.52h7.033l2.35-10.732h32.753l-1.837 8.55-9.247-.025-.488 2.207h8.209l-2.03 9.52h-8.213l-7.358 34.51h-23.53zM395.007 78.519l9.386-44.031h23.463l-9.386 44.03h-23.463zM296.999 67.726l4.576-22.482-4.294-.056-4.602 22.494 4.32.044zm-30.66 10.793l9.04-44.144h52.542l-8.98 44.144h-52.602zM58.7 77.147l7.512-41.297h-9.406l-7.562 41.297H58.7zm-5.25 20.797H.146V33.651l11.034 9.658 5.706-28.165L75.245.02 62.118 15.016h53.208v64.338l-10.918-9.72-5.712 28.181-58.452 15.165L53.45 97.944zM142.736 96.456l1.41-5.107-3.003 3.41h-1.957l-1.292-3.835-1.511 5.532h-2.795l2.967-10.854h2.328l1.919 5.866 5.16-5.866h2.539l-2.968 10.854h-2.797zM157.879 87.771c-.805 0-1.537.23-2.113.664-.467.343-.74.801-1.24 2.766-.318 1.24-.41 1.694-.41 2.03 0 .835 1.02 1.056 1.56 1.056.806 0 1.538-.229 2.114-.664.467-.343.739-.8 1.238-2.767.316-1.224.412-1.697.412-2.028 0-.837-1.021-1.057-1.561-1.057m-2.24 8.764c-2.511 0-4.267-1.337-4.267-3.253 0-.47.102-1.014.455-2.424.557-2.18.93-3.23 2.18-4.148 1.027-.755 2.45-1.188 3.908-1.188 2.524 0 4.287 1.338 4.287 3.253 0 .49-.123 1.023-.473 2.423-.557 2.182-.93 3.232-2.18 4.151-1.025.753-2.451 1.186-3.91 1.186M166.985 96.456l2.346-8.592h-3.54l.624-2.262h9.836l-.627 2.262h-3.5l-2.345 8.592h-2.794zM184.074 87.771c-.805 0-1.537.23-2.113.664-.467.343-.74.801-1.24 2.766-.318 1.24-.41 1.694-.41 2.03 0 .835 1.02 1.056 1.56 1.056.806 0 1.538-.229 2.114-.664.467-.343.739-.8 1.238-2.767.316-1.224.412-1.697.412-2.028 0-.837-1.021-1.057-1.561-1.057m-2.24 8.764c-2.511 0-4.267-1.337-4.267-3.253 0-.47.102-1.014.455-2.424.557-2.18.93-3.23 2.179-4.148 1.028-.755 2.452-1.188 3.909-1.188 2.524 0 4.287 1.338 4.287 3.253 0 .49-.123 1.023-.473 2.423-.557 2.182-.93 3.232-2.18 4.151-1.025.753-2.451 1.186-3.91 1.186M198.172 89.978c1.488 0 2.265-.725 2.265-1.442 0-.446-.446-.672-1.327-.672h-2.632l-.584 2.114h2.278zm.859 6.479l-1.77-4.243h-1.974l-1.173 4.243h-2.776l2.968-10.855h4.967c3.625 0 3.907 2.204 3.907 2.881 0 1.61-1.216 2.93-3.107 3.469l1.963 4.505h-3.005zM210.827 96.535c-2.587 0-4.395-1.337-4.395-3.253 0-.356.055-.899.457-2.43.57-2.233.926-3.236 2.177-4.156 1-.735 2.435-1.174 3.837-1.174 3.212 0 4.376 1.793 4.394 3.471l.007.714h-2.751V89c0-1.109-1.154-1.229-1.65-1.229-.79 0-1.465.215-2.067.657-.516.38-.773.951-1.251 2.777-.291 1.108-.41 1.701-.41 2.051 0 .677.858 1.031 1.706 1.031 1.852 0 2.607-1.187 2.794-1.55l.199-.386h2.853l-.426.985c-.855 1.973-2.952 3.2-5.474 3.2M221.863 96.456l1.268-4.592-2.48-6.262h2.914l1.454 3.91 3.466-3.91h3.388l-6.051 6.637-1.163 4.217h-2.796zM236.769 96.535c-2.587 0-4.395-1.337-4.395-3.253 0-.356.055-.899.457-2.43.57-2.233.926-3.236 2.177-4.156 1-.735 2.435-1.174 3.837-1.174 3.212 0 4.376 1.793 4.394 3.471l.007.714h-2.751V89c0-1.109-1.154-1.229-1.65-1.229-.79 0-1.465.215-2.067.657-.516.38-.773.951-1.251 2.777-.291 1.108-.41 1.701-.41 2.051 0 .677.858 1.031 1.706 1.031 1.852 0 2.607-1.187 2.794-1.55l.199-.386h2.853l-.426.985c-.855 1.973-2.952 3.2-5.474 3.2M245.965 96.456l2.968-10.854h2.776l-2.346 8.605h6.269l-.584 2.25h-9.083zM259.034 96.456l2.968-10.854h9.046l-.632 2.248h-6.241l-.551 2.008h5.346l-.581 2.248h-5.371l-.582 2.101h6.356l-.585 2.25h-9.173zM286.7 90.256c1.452 0 2.465-.669 2.465-1.627 0-.633-.77-.766-1.416-.766h-2.575l-.648 2.393h2.175zm-6.652 6.2l2.968-10.855h4.913c2.937 0 3.98 1.61 3.98 2.988 0 2.306-2.164 3.916-5.261 3.916h-2.74l-1.082 3.951h-2.778zM300.05 92.086l-.493-2.627-1.9 2.627h2.394zm.787 4.37l-.397-2.149h-4.383l-1.571 2.15h-3.183l8.072-10.856h2.044l2.22 10.855h-2.802zM313.853 89.978c1.488 0 2.265-.725 2.265-1.442 0-.446-.446-.672-1.327-.672h-2.632l-.585 2.114h2.279zm.858 6.479l-1.768-4.243h-1.975l-1.173 4.243h-2.777l2.969-10.855h4.967c3.625 0 3.907 2.204 3.907 2.881 0 1.61-1.216 2.93-3.107 3.469l1.963 4.505h-3.006zM323.682 96.456l2.346-8.592h-3.54l.624-2.262h9.836l-.627 2.262h-3.5l-2.345 8.592h-2.794zM338.314 96.535c-1.956 0-3.243-.428-4.442-1.475l-.705-.617 2.247-1.442.407.375c.683.63 1.466.897 2.62.897 1.453 0 2.679-.58 2.679-1.268 0-.26 0-.557-1.228-.763l-1.215-.213c-2.93-.498-3.368-1.979-3.368-2.817 0-1.833 1.826-3.69 5.315-3.69 1.597 0 2.897.425 3.862 1.262l.723.625-2.195 1.365-.398-.337c-.51-.43-1.02-.679-2.118-.679-1.522 0-2.463.734-2.463 1.414 0 .358.957.553 1.25.605l1.203.197c1.575.27 3.376.854 3.376 2.991 0 2.135-2.23 3.57-5.55 3.57" fill="#fff" fill-rule="nonzero"/><path d="M378.336 96.535h-23.547l2.348-11.013h23.547l-2.348 11.013z" fill="#23923e" fill-rule="nonzero"/><path d="M414.758 96.535H391.21l2.348-11.013h23.547l-2.348 11.013z" fill="#c92a33" fill-rule="nonzero"/><path d="M380.593 85.523h12.875l-2.347 11.013h-12.876l2.348-11.013z" fill="#fff" fill-rule="nonzero"/></svg>