<?xml version="1.0" encoding="UTF-8" standalone="no"?>
<!DOCTYPE svg PUBLIC "-//W3C//DTD SVG 1.1//EN" "http://www.w3.org/Graphics/SVG/1.1/DTD/svg11.dtd">
<svg width="100%" height="100%" viewBox="0 0 878 210" version="1.1" xmlns="http://www.w3.org/2000/svg" xmlns:xlink="http://www.w3.org/1999/xlink" xml:space="preserve" xmlns:serif="http://www.serif.com/" style="fill-rule:evenodd;clip-rule:evenodd;stroke-linejoin:round;stroke-miterlimit:1.41421;">
    <g transform="matrix(4.16667,0,0,4.16667,-152.951,-487)">
        <g transform="matrix(1.07619,0,0,1.07619,19.702,-111.593)">
            <g transform="matrix(0.237604,0,0,0.237604,1.29557,210.497)">
                <path d="M141.732,7.576L61.1,47.892L61.1,75.889L87.978,90.447L195.487,144.202L195.487,150.922L141.732,177.799L87.978,150.922L87.978,97.167C87.978,97.028 87.382,96.871 87.037,96.696L65.58,85.968L65.58,162.12L141.732,200.197L217.885,162.12L217.885,133.003L88.249,66.93L88.108,66.93L70.059,59.836L70.059,52.371L74.819,50.131L141.871,16.535L213.405,52.371L213.405,110.605L217.885,112.845L217.885,126.284L222.364,128.524L222.364,47.892L141.732,7.576Z" style="fill:rgb(114,186,229);fill-rule:nonzero;"/>
            </g>
            <g transform="matrix(0.237604,0,0,0.237604,1.29557,210.497)">
                <path d="M217.885,133.003L217.885,162.12L141.732,200.197L65.58,162.12L65.58,85.968L61.1,83.728L61.1,164.36L141.732,204.676L222.364,164.36L222.364,135.243L217.885,133.003Z" style="fill:white;fill-rule:nonzero;"/>
            </g>
            <g transform="matrix(0.237604,0,0,0.237604,1.29557,210.497)">
                <path d="M128.294,164.36L141.732,171.08L155.171,164.36L155.171,124.044L128.294,110.605L128.294,164.36Z" style="fill:white;fill-rule:nonzero;"/>
            </g>
            <g transform="matrix(0.237604,0,0,0.237604,1.29557,210.497)">
                <path d="M87.978,66.93L87.978,61.33L128.294,41.172L128.294,88.208L155.171,101.646L155.171,41.172L195.487,61.33L195.487,115.085L217.885,126.284L217.885,112.845L213.405,110.605L213.405,52.371L142.012,16.535L74.678,50.131L70.059,52.371L70.059,59.836L87.978,67.485L87.978,66.93Z" style="fill:white;fill-rule:nonzero;"/>
            </g>
        </g>
        <g transform="matrix(1,0,0,1,23.9321,-93.5789)">
            <g transform="matrix(0.588415,0,0,0.588415,58.6025,89.53)">
                <path d="M10.969,224.864L10.969,248.267L19.105,248.267L19.105,224.864L27.074,224.864L27.074,217.567L3.252,217.567L3.252,224.864L10.969,224.864Z" style="fill:white;fill-rule:nonzero;"/>
            </g>
            <g transform="matrix(0.588415,0,0,0.588415,58.6025,89.53)">
                <path d="M32.064,246.003C32.735,246.716 33.616,247.22 34.665,247.555C35.713,247.933 36.762,248.142 37.726,248.268C38.691,248.394 39.949,248.436 41.501,248.436C43.053,248.436 44.395,248.352 45.569,248.142C46.701,247.933 47.876,247.555 49.008,246.926C50.14,246.297 51.063,245.458 51.734,244.368C52.405,243.277 52.95,241.809 53.37,239.922C53.789,238.035 53.999,235.476 53.999,232.205C53.999,228.976 53.58,226.124 52.783,223.69C52.405,222.6 51.902,221.677 51.273,220.88C50.644,220.083 50.015,219.497 49.386,219.036C48.714,218.573 47.918,218.238 46.995,217.986C46.03,217.735 45.15,217.567 44.311,217.483C43.43,217.399 42.172,217.357 40.452,217.357C38.733,217.357 37.139,217.567 35.671,217.986C34.749,218.238 33.952,218.573 33.323,219.036C32.652,219.497 32.022,220.083 31.393,220.88C30.764,221.677 30.261,222.6 29.883,223.69C29.506,224.822 29.171,226.166 28.961,227.718C28.709,229.311 28.583,231.199 28.583,233.338C28.583,235.476 28.709,237.406 29.003,239.083C29.254,240.803 29.674,242.187 30.219,243.277C30.764,244.41 31.393,245.29 32.064,246.003ZM41.081,224.655C42.214,224.655 43.095,224.738 43.64,224.948C44.185,225.158 44.646,225.579 45.024,226.208C45.359,226.879 45.569,227.718 45.695,228.766C45.821,229.815 45.863,231.576 45.863,234.134C45.863,236.693 45.569,238.496 44.94,239.545C44.311,240.593 43.053,241.138 41.165,241.138C39.278,241.138 38.062,240.635 37.517,239.629C36.971,238.622 36.72,236.651 36.72,233.715C36.72,230.779 36.845,228.724 37.139,227.55C37.391,226.376 37.81,225.579 38.439,225.2C39.026,224.822 39.907,224.655 41.081,224.655Z" style="fill:white;fill-rule:nonzero;"/>
            </g>
            <g transform="matrix(0.588415,0,0,0.588415,58.6025,89.53)">
                <path d="M64.987,248.268L64.987,237.028C65.113,237.07 65.868,237.238 67.252,237.448C68.636,237.657 69.643,237.783 70.23,237.825C70.817,237.867 71.32,237.909 71.739,237.909C72.159,237.909 72.662,237.867 73.249,237.825C73.836,237.783 74.591,237.532 75.514,237.154C76.395,236.777 77.192,236.189 77.821,235.476C78.45,234.764 78.953,233.757 79.373,232.373C79.792,230.989 80.002,229.437 80.002,227.634C80.002,225.83 79.792,224.32 79.414,223.062C79.037,221.804 78.534,220.839 77.905,220.168C76.437,218.449 73.962,217.568 70.523,217.568L56.851,217.568L56.851,248.268L64.987,248.268ZM64.987,224.488L69.684,224.488C71.11,224.488 71.823,225.579 71.823,227.718C71.823,229.898 71.11,230.989 69.684,230.989L64.987,230.989L64.987,224.488Z" style="fill:white;fill-rule:nonzero;"/>
            </g>
            <g transform="matrix(0.588415,0,0,0.588415,58.6025,89.53)">
                <path d="M88.641,232.162C88.977,233.085 89.396,233.881 89.941,234.552C90.487,235.223 91.283,235.811 92.416,236.314C93.506,236.817 94.806,237.069 96.316,237.069L100.091,237.069C100.972,237.069 101.559,237.195 101.852,237.488C102.146,237.782 102.314,238.285 102.314,238.914L102.314,239.585C102.314,240.214 102.146,240.634 101.768,240.885C101.391,241.179 100.72,241.305 99.839,241.305C95.687,241.305 92.038,241.137 88.977,240.843L88.977,247.176C91.032,247.889 92.668,248.267 93.926,248.393C95.184,248.518 97.868,248.602 101.936,248.602C107.598,248.602 110.45,245.457 110.45,239.208L110.45,237.824C110.45,236.188 110.156,234.636 109.527,233.252C108.227,230.358 105.921,228.932 102.607,228.932L98.665,228.932C97.616,228.932 96.903,228.765 96.61,228.471C96.316,228.178 96.149,227.632 96.149,226.919L96.149,226.458C96.149,225.619 96.358,225.116 96.778,224.906C97.197,224.697 98.036,224.613 99.252,224.613C103.404,224.613 106.759,224.738 109.318,225.032L109.318,218.699C106.592,217.693 103.32,217.189 99.504,217.189C98.455,217.189 97.407,217.231 96.316,217.315C93.842,217.483 91.829,218.238 90.319,219.622C88.767,221.006 88.012,222.977 88.012,225.619L88.012,228.178C88.012,229.562 88.222,230.862 88.641,232.162Z" style="fill:white;fill-rule:nonzero;"/>
            </g>
            <g transform="matrix(0.588415,0,0,0.588415,58.6025,89.53)">
                <path d="M116.489,246.002C117.16,246.715 118.041,247.218 119.09,247.554C120.138,247.931 121.187,248.141 122.151,248.267C123.116,248.393 124.374,248.435 125.926,248.435C127.478,248.435 128.82,248.351 129.994,248.141C131.126,247.931 132.301,247.554 133.433,246.925C134.565,246.296 135.488,245.457 136.159,244.366C136.83,243.276 137.375,241.808 137.795,239.921C138.214,238.033 138.424,235.475 138.424,232.204C138.424,228.974 138.005,226.122 137.208,223.69C136.83,222.6 136.327,221.677 135.698,220.88C135.069,220.083 134.44,219.497 133.811,219.036C133.139,218.573 132.343,218.238 131.42,217.986C130.455,217.735 129.575,217.567 128.735,217.483C127.855,217.399 126.597,217.357 124.877,217.357C123.158,217.357 121.564,217.567 120.096,217.986C119.174,218.238 118.377,218.573 117.748,219.036C117.077,219.497 116.447,220.083 115.818,220.88C115.189,221.677 114.686,222.6 114.308,223.69C113.931,224.822 113.596,226.164 113.386,227.716C113.134,229.31 113.008,231.197 113.008,233.336C113.008,235.475 113.134,237.404 113.428,239.082C113.679,240.801 114.099,242.185 114.644,243.276C115.189,244.408 115.818,245.289 116.489,246.002ZM125.506,224.655C126.639,224.655 127.52,224.738 128.065,224.948C128.61,225.158 129.071,225.577 129.449,226.206C129.784,226.877 129.994,227.716 130.119,228.765C130.246,229.813 130.287,231.575 130.287,234.133C130.287,236.691 129.994,238.495 129.365,239.543C128.735,240.592 127.478,241.137 125.59,241.137C123.703,241.137 122.487,240.634 121.942,239.627C121.396,238.621 121.145,236.649 121.145,233.714C121.145,230.778 121.271,228.723 121.564,227.548C121.816,226.374 122.235,225.577 122.864,225.2C123.451,224.822 124.332,224.655 125.506,224.655Z" style="fill:white;fill-rule:nonzero;"/>
            </g>
            <g transform="matrix(0.588415,0,0,0.588415,58.6025,89.53)">
                <path d="M143.247,246.673C144.547,247.722 146.225,248.267 148.28,248.267L160.694,248.267L160.694,240.969L152.054,240.969C151.383,240.969 150.796,240.885 150.335,240.718C149.748,240.508 149.454,239.837 149.454,238.788L149.454,217.567L141.318,217.567L141.318,241.724C141.318,243.947 141.947,245.625 143.247,246.673Z" style="fill:white;fill-rule:nonzero;"/>
            </g>
            <g transform="matrix(0.588415,0,0,0.588415,58.6025,89.53)">
                <path d="M162.664,241.472C163.167,243.276 163.754,244.66 164.383,245.541C165.012,246.463 165.977,247.134 167.235,247.596C168.451,248.057 169.5,248.351 170.297,248.393C171.094,248.435 171.891,248.476 172.729,248.476C173.568,248.476 174.365,248.476 175.078,248.476C175.791,248.476 176.63,248.435 177.636,248.309C178.433,248.225 179.062,248.099 179.524,247.931C179.985,247.805 180.53,247.554 181.201,247.218C181.83,246.925 182.376,246.547 182.795,246.086C183.214,245.666 183.634,245.121 184.095,244.408C185.437,242.395 186.108,239.208 186.108,234.846L186.108,217.567L177.93,217.567L177.93,234.846C177.93,237.698 177.636,239.417 177.049,240.047C176.42,240.801 175.414,241.179 174.113,241.179C172.687,241.179 171.639,240.843 170.968,240.13C170.339,239.459 170.045,237.698 170.045,234.846L170.045,217.567L161.909,217.567L161.909,234.846C161.909,237.488 162.161,239.669 162.664,241.472Z" style="fill:white;fill-rule:nonzero;"/>
            </g>
            <g transform="matrix(0.588415,0,0,0.588415,58.6025,89.53)">
                <path d="M196.048,224.864L196.048,248.267L204.184,248.267L204.184,224.864L212.153,224.864L212.153,217.567L188.331,217.567L188.331,224.864L196.048,224.864Z" style="fill:white;fill-rule:nonzero;"/>
            </g>
            <g transform="matrix(0.588415,0,0,0.588415,58.6025,89.53)">
                <rect x="214.837" y="217.567" width="8.136" height="30.7" style="fill:white;"/>
            </g>
            <g transform="matrix(0.588415,0,0,0.588415,58.6025,89.53)">
                <path d="M229.39,246.002C230.061,246.715 230.942,247.218 231.99,247.554C233.039,247.931 234.087,248.141 235.052,248.267C236.017,248.393 237.275,248.435 238.827,248.435C240.378,248.435 241.72,248.351 242.895,248.141C244.027,247.931 245.201,247.554 246.334,246.925C247.466,246.296 248.389,245.457 249.06,244.366C249.731,243.276 250.276,241.808 250.696,239.921C251.115,238.033 251.325,235.475 251.325,232.204C251.325,228.974 250.905,226.122 250.108,223.69C249.731,222.6 249.228,221.677 248.599,220.88C247.97,220.083 247.34,219.497 246.711,219.036C246.04,218.573 245.243,218.238 244.321,217.986C243.356,217.735 242.475,217.567 241.637,217.483C240.756,217.399 239.498,217.357 237.778,217.357C236.059,217.357 234.465,217.567 232.997,217.986C232.074,218.238 231.277,218.573 230.648,219.036C229.977,219.497 229.348,220.083 228.719,220.88C228.09,221.677 227.587,222.6 227.209,223.69C226.832,224.822 226.496,226.164 226.287,227.716C226.035,229.31 225.909,231.197 225.909,233.336C225.909,235.475 226.035,237.404 226.329,239.082C226.58,240.801 227,242.185 227.545,243.276C228.09,244.408 228.719,245.289 229.39,246.002ZM238.407,224.655C239.54,224.655 240.42,224.738 240.966,224.948C241.511,225.158 241.972,225.577 242.35,226.206C242.685,226.877 242.895,227.716 243.021,228.765C243.146,229.813 243.188,231.575 243.188,234.133C243.188,236.691 242.895,238.495 242.266,239.543C241.637,240.592 240.378,241.137 238.491,241.137C236.604,241.137 235.388,240.634 234.842,239.627C234.297,238.621 234.045,236.649 234.045,233.714C234.045,230.778 234.171,228.723 234.465,227.548C234.717,226.374 235.136,225.577 235.765,225.2C236.352,224.822 237.233,224.655 238.407,224.655Z" style="fill:white;fill-rule:nonzero;"/>
            </g>
            <g transform="matrix(0.588415,0,0,0.588415,58.6025,89.53)">
                <path d="M262.397,248.267L262.397,233.001L271.204,248.267L279.341,248.267L279.341,217.567L271.204,217.567L271.204,233.252L262.439,217.567L254.219,217.567L254.219,248.267L262.397,248.267Z" style="fill:white;fill-rule:nonzero;"/>
            </g>
            <g transform="matrix(0.588415,0,0,0.588415,58.6025,89.53)">
                <path d="M7.952,279.211L11.623,256.042L8.711,256.042L5.04,279.211L7.952,279.211Z" style="fill:rgb(114,186,229);fill-rule:nonzero;"/>
            </g>
            <g transform="matrix(0.588415,0,0,0.588415,58.6025,89.53)">
                <path d="M15.358,263.639C15.01,263.956 14.725,264.305 14.472,264.716C14.219,265.127 13.997,265.57 13.776,265.982C13.553,266.425 13.396,266.899 13.238,267.437C13.08,267.976 12.92,268.514 12.825,269.02C12.73,269.526 12.604,270.127 12.477,270.793C12.351,271.457 12.288,272.312 12.288,273.324C12.288,274.369 12.477,275.445 12.857,276.585C13.142,277.439 13.649,278.104 14.377,278.61C15.105,279.149 15.959,279.402 16.941,279.402C17.922,279.402 19.029,279.181 20.201,278.705C21.371,278.262 22.257,277.819 22.891,277.376L23.271,279.211L25.487,279.211L29.443,254.365L26.594,254.365L25.139,263.386C24.315,263.006 23.366,262.69 22.257,262.468C21.15,262.247 20.232,262.152 19.568,262.152C18.902,262.152 18.301,262.215 17.795,262.31C17.289,262.437 16.846,262.627 16.433,262.848C16.021,263.07 15.674,263.354 15.358,263.639ZM15.421,270.856C15.927,267.819 16.688,265.95 17.7,265.254C18.143,264.969 18.681,264.811 19.315,264.811C21.213,264.811 23.049,265.064 24.791,265.57L23.239,275.319C21.118,276.236 19.22,276.68 17.479,276.68C15.959,276.68 15.199,275.54 15.199,273.229C15.199,272.533 15.263,271.742 15.421,270.856Z" style="fill:rgb(114,186,229);fill-rule:nonzero;"/>
            </g>
            <g transform="matrix(0.588415,0,0,0.588415,58.6025,89.53)">
                <path d="M38.368,262.089C36.31,262.089 34.728,262.405 33.652,263.07C33.082,263.418 32.606,263.797 32.228,264.21C31.816,264.621 31.5,265.159 31.214,265.823C30.929,266.488 30.676,267.152 30.518,267.819C30.328,268.482 30.107,269.4 29.885,270.603C29.664,271.837 29.537,273.008 29.537,274.179C29.537,275.35 29.695,276.364 30.044,277.155C30.676,278.642 32.006,279.402 34.001,279.434C34.254,279.434 34.507,279.434 34.728,279.434C37.482,279.434 39.95,279.116 42.134,278.515L42.482,276.364C40.141,276.712 38.4,276.87 37.291,276.87C36.152,276.87 35.329,276.87 34.855,276.838C33.746,276.807 33.019,276.49 32.671,275.825C32.512,275.477 32.418,274.97 32.418,274.369C32.418,273.768 32.48,273.039 32.606,272.185C32.829,272.28 33.335,272.375 34.096,272.47C34.823,272.565 35.614,272.628 36.469,272.628C38.147,272.628 39.76,272.28 41.375,271.584C42.198,271.204 42.958,270.57 43.622,269.653C44.287,268.767 44.603,267.533 44.603,265.918C44.603,265.507 44.477,265.001 44.255,264.463C43.622,262.88 41.66,262.089 38.4,262.089L38.368,262.089ZM32.955,269.843C32.955,269.811 33.019,269.558 33.114,269.083C33.209,268.64 33.335,268.102 33.557,267.5C33.715,266.994 34.031,266.456 34.537,265.918C35.235,265.159 36.469,264.778 38.241,264.778C39.539,264.778 40.489,264.936 41.09,265.222C41.47,265.412 41.66,265.823 41.66,266.456C41.66,267.595 41.185,268.482 40.236,269.115C39.888,269.336 39.507,269.495 39.064,269.653C38.589,269.811 38.147,269.939 37.704,270.001C37.261,270.096 36.785,270.159 36.31,270.192C35.804,270.222 35.456,270.254 35.266,270.254C35.076,270.254 34.792,270.254 34.379,270.254C33.968,270.254 33.493,270.222 32.892,270.159C32.924,270.064 32.924,269.969 32.955,269.843Z" style="fill:rgb(114,186,229);fill-rule:nonzero;"/>
            </g>
            <g transform="matrix(0.588415,0,0,0.588415,58.6025,89.53)">
                <path d="M48.78,264.463C48.337,265.032 47.926,265.792 47.515,266.773C47.103,267.753 46.755,268.893 46.534,270.159C46.311,271.426 46.186,272.596 46.186,273.673C46.186,274.749 46.343,275.763 46.629,276.68C46.85,277.376 47.23,277.914 47.736,278.325C48.211,278.737 48.749,279.021 49.318,279.181C49.857,279.339 50.585,279.434 51.502,279.434C52.388,279.434 53.37,279.211 54.446,278.737C55.523,278.294 56.345,277.819 56.946,277.345L57.389,279.211L59.542,279.211L61.758,264.05C60.997,263.323 59.89,262.816 58.435,262.5C56.978,262.184 55.902,262.024 55.238,262.024C54.541,262.024 53.94,262.057 53.465,262.089C52.99,262.152 52.483,262.247 52.008,262.374C51.534,262.5 50.964,262.753 50.363,263.101C49.762,263.449 49.223,263.924 48.78,264.463ZM51.724,265.507C52.103,265.254 52.421,265.096 52.706,265.001C52.959,264.906 53.307,264.841 53.75,264.748C54.193,264.653 54.794,264.621 55.553,264.621C56.282,264.621 57.326,264.811 58.688,265.191L57.168,275.16C56.092,275.698 55.175,276.111 54.414,276.332C53.655,276.585 52.737,276.712 51.629,276.712C50.521,276.712 49.762,276.269 49.413,275.413C49.223,274.939 49.128,274.338 49.128,273.61C49.128,272.881 49.223,272.027 49.381,271.014C49.541,270.001 49.729,269.115 49.982,268.324C50.237,267.565 50.49,266.962 50.743,266.551C50.996,266.14 51.312,265.792 51.724,265.507Z" style="fill:rgb(114,186,229);fill-rule:nonzero;"/>
            </g>
            <g transform="matrix(0.588415,0,0,0.588415,58.6025,89.53)">
                <path d="M63.213,276.807L62.897,278.833C63.434,278.958 64.733,279.086 66.853,279.244C68.974,279.402 70.462,279.497 71.348,279.497C72.202,279.497 73.026,279.402 73.753,279.244C74.26,279.116 74.797,278.768 75.335,278.23C75.873,277.661 76.254,276.807 76.412,275.698L76.697,273.705C76.728,273.42 76.76,273.166 76.76,272.881C76.76,272.027 76.507,271.268 76.001,270.665C75.335,269.874 74.323,269.463 72.931,269.463L68.404,269.463C68.341,269.463 68.183,269.463 67.898,269.463C67.613,269.495 67.327,269.431 67.107,269.305C66.789,269.147 66.694,268.64 66.821,267.848L67.042,266.456C67.074,266.235 67.137,266.076 67.169,265.918C67.455,265.159 68.119,264.778 69.163,264.778L77.235,264.778L77.583,262.722C76.855,262.563 75.588,262.437 73.722,262.31C71.854,262.184 70.239,262.12 68.879,262.12C67.518,262.12 66.441,262.468 65.682,263.133C64.891,263.829 64.385,264.874 64.162,266.298L63.909,267.882C63.846,268.292 63.814,268.64 63.814,268.988C63.814,269.969 64.067,270.698 64.573,271.204C65.302,271.869 66.441,272.217 67.993,272.217L72.423,272.217C73.026,272.217 73.405,272.312 73.562,272.533C73.722,272.755 73.817,272.976 73.817,273.199C73.817,273.42 73.785,273.642 73.753,273.8L73.5,275.255C73.342,276.299 72.74,276.807 71.696,276.807L63.213,276.807Z" style="fill:rgb(114,186,229);fill-rule:nonzero;"/>
            </g>
            <g transform="matrix(0.588415,0,0,0.588415,58.6025,89.53)">
                <path d="M92.838,256.36C92.269,257.246 91.826,258.796 91.478,260.98L91.223,262.405L88.09,263.006L87.742,265.032L90.749,265.032L88.439,279.211L91.351,279.211L93.692,265.032L98.63,265.032L99.042,262.405L94.135,262.405L94.326,261.265C94.579,259.557 94.864,258.416 95.212,257.879C95.434,257.499 95.687,257.246 96.003,257.119C96.32,257.024 96.731,256.961 97.27,256.961L100.625,256.961L100.909,255.125C100.308,254.903 99.516,254.682 98.535,254.524C97.998,254.429 97.491,254.365 97.017,254.365C95.086,254.365 93.692,255.03 92.838,256.36Z" style="fill:rgb(114,186,229);fill-rule:nonzero;"/>
            </g>
            <g transform="matrix(0.588415,0,0,0.588415,58.6025,89.53)">
                <path d="M104.676,262.627C103.727,262.88 102.904,263.323 102.175,263.987C101.448,264.653 100.91,265.539 100.499,266.646C100.087,267.753 99.771,268.988 99.548,270.35C99.328,271.711 99.232,272.755 99.232,273.547C99.232,275.224 99.581,276.522 100.245,277.408C101.258,278.705 103.157,279.371 105.911,279.371C108.665,279.371 110.658,278.8 111.861,277.629C113.032,276.459 113.886,274.306 114.394,271.173C114.552,270.129 114.647,269.178 114.647,268.324C114.647,266.678 114.329,265.38 113.698,264.4C112.716,262.975 110.911,262.247 108.252,262.247C106.797,262.247 105.595,262.374 104.676,262.627ZM103.759,266.488C104.043,266.045 104.391,265.697 104.834,265.475C105.247,265.254 105.69,265.096 106.164,265.001C106.607,264.936 107.177,264.906 107.904,264.906C108.633,264.906 109.203,264.936 109.677,265.032C110.152,265.127 110.563,265.317 110.911,265.57C111.259,265.823 111.482,266.171 111.608,266.614C111.703,267.089 111.767,267.66 111.767,268.324C111.767,269.02 111.672,269.939 111.482,271.046C111.324,272.09 111.101,272.946 110.881,273.642C110.628,274.338 110.373,274.876 110.089,275.287C109.804,275.698 109.393,276.046 108.823,276.299C108.252,276.554 107.335,276.68 106.038,276.68C104.296,276.712 103.189,276.394 102.746,275.793C102.335,275.224 102.112,274.559 102.112,273.831C102.112,271.964 102.398,270.129 102.999,268.292C103.221,267.565 103.474,266.962 103.759,266.488Z" style="fill:rgb(114,186,229);fill-rule:nonzero;"/>
            </g>
            <g transform="matrix(0.588415,0,0,0.588415,58.6025,89.53)">
                <path d="M122.369,264.052C121.894,264.335 121.609,264.493 121.514,264.525L121.166,262.405L118.951,262.405L116.292,279.211L119.204,279.211L121.135,266.994C122.369,266.298 123.381,265.823 124.237,265.539C125.059,265.286 126.008,265.159 127.085,265.159C128.16,265.159 128.953,265.222 129.491,265.317L129.966,262.468C129.649,262.31 129.015,262.215 128.098,262.215C127.18,262.215 126.326,262.342 125.565,262.563C124.806,262.785 124.205,263.038 123.762,263.26C123.286,263.513 122.843,263.766 122.369,264.052Z" style="fill:rgb(114,186,229);fill-rule:nonzero;"/>
            </g>
            <g transform="matrix(0.588415,0,0,0.588415,58.6025,89.53)">
                <path d="M143.924,279.211L144.209,277.186C144.177,277.186 143.671,277.06 142.689,276.775C141.708,276.522 141.139,276.299 140.949,276.078C140.601,275.698 140.538,274.686 140.759,273.039L142.025,265.001L146.615,265.001L147.058,262.374L142.468,262.374L143.195,257.689L140.886,257.689L139.556,262.374L136.422,263.038L136.106,265.001L139.113,265.001L137.847,273.229C137.751,273.895 137.689,274.496 137.689,275.066C137.689,277.819 138.955,279.211 141.518,279.211L143.924,279.211Z" style="fill:rgb(114,186,229);fill-rule:nonzero;"/>
            </g>
            <g transform="matrix(0.588415,0,0,0.588415,58.6025,89.53)">
                <path d="M158.863,262.12C157.343,262.12 155.92,262.437 154.59,263.101C154.147,263.323 153.672,263.544 153.197,263.829C152.69,264.114 152.375,264.272 152.279,264.335L153.862,254.397L150.95,254.397L147.026,279.211L149.936,279.211L151.962,266.488C153.292,265.855 154.337,265.412 155.096,265.159C155.856,264.906 156.711,264.778 157.628,264.778C158.547,264.778 159.18,264.969 159.528,265.38C159.876,265.792 160.034,266.203 160.034,266.614C160.034,267.026 160.002,267.375 159.971,267.628L158.134,279.211L161.046,279.211L162.882,267.628C162.946,267.217 162.977,266.836 162.977,266.488C162.977,265.444 162.724,264.493 162.186,263.702C161.459,262.658 160.35,262.12 158.863,262.12Z" style="fill:rgb(114,186,229);fill-rule:nonzero;"/>
            </g>
            <g transform="matrix(0.588415,0,0,0.588415,58.6025,89.53)">
                <path d="M173.326,262.089C171.27,262.089 169.687,262.405 168.611,263.07C168.04,263.418 167.567,263.797 167.186,264.21C166.775,264.621 166.458,265.159 166.174,265.823C165.889,266.488 165.636,267.152 165.478,267.819C165.288,268.482 165.066,269.4 164.845,270.603C164.622,271.837 164.497,273.008 164.497,274.179C164.497,275.35 164.655,276.364 165.003,277.155C165.636,278.642 166.965,279.402 168.959,279.434C169.212,279.434 169.465,279.434 169.687,279.434C172.441,279.434 174.909,279.116 177.094,278.515L177.442,276.364C175.099,276.712 173.358,276.87 172.251,276.87C171.112,276.87 170.288,276.87 169.813,276.838C168.706,276.807 167.978,276.49 167.629,275.825C167.471,275.477 167.376,274.97 167.376,274.369C167.376,273.768 167.439,273.039 167.567,272.185C167.787,272.28 168.295,272.375 169.054,272.47C169.782,272.565 170.574,272.628 171.428,272.628C173.105,272.628 174.72,272.28 176.333,271.584C177.157,271.204 177.916,270.57 178.581,269.653C179.245,268.767 179.563,267.533 179.563,265.918C179.563,265.507 179.436,265.001 179.215,264.463C178.581,262.88 176.619,262.089 173.358,262.089L173.326,262.089ZM167.915,269.843C167.915,269.811 167.978,269.558 168.073,269.083C168.168,268.64 168.295,268.102 168.516,267.5C168.674,266.994 168.991,266.456 169.497,265.918C170.193,265.159 171.428,264.778 173.2,264.778C174.498,264.778 175.447,264.936 176.05,265.222C176.428,265.412 176.619,265.823 176.619,266.456C176.619,267.595 176.143,268.482 175.194,269.115C174.846,269.336 174.467,269.495 174.024,269.653C173.549,269.811 173.105,269.939 172.662,270.001C172.219,270.096 171.744,270.159 171.27,270.192C170.764,270.222 170.416,270.254 170.226,270.254C170.035,270.254 169.75,270.254 169.339,270.254C168.927,270.254 168.453,270.222 167.852,270.159C167.882,270.064 167.882,269.969 167.915,269.843Z" style="fill:rgb(114,186,229);fill-rule:nonzero;"/>
            </g>
            <g transform="matrix(0.588415,0,0,0.588415,58.6025,89.53)">
                <path d="M192.031,260.411L189.057,279.211L191.969,279.211L193.551,269.242L203.649,268.925L203.997,266.583L194.026,266.235L194.913,260.664C194.944,260.411 194.976,260.189 195.039,259.999C195.292,259.272 195.894,258.892 196.843,258.892L206.529,258.892L206.909,256.55C206.529,256.518 204.756,256.423 201.591,256.265C198.426,256.107 196.78,256.042 196.685,256.042C194.057,256.042 192.507,257.499 192.031,260.411Z" style="fill:rgb(114,186,229);fill-rule:nonzero;"/>
            </g>
            <g transform="matrix(0.588415,0,0,0.588415,58.6025,89.53)">
                <path d="M210.738,262.405L207.826,262.405L205.99,273.958C205.928,274.401 205.895,274.812 205.895,275.224C205.895,276.299 206.15,277.218 206.687,277.946C207.384,278.991 208.491,279.497 210.042,279.497C211.594,279.497 213.018,279.181 214.346,278.515C214.789,278.294 215.265,278.041 215.74,277.756C216.214,277.503 216.499,277.345 216.562,277.313L217.005,279.211L219.189,279.211L221.848,262.405L218.936,262.405L216.942,275.097C215.581,275.763 214.536,276.204 213.777,276.427C213.018,276.68 212.163,276.807 211.246,276.807C210.295,276.807 209.663,276.617 209.346,276.269C208.998,275.921 208.84,275.54 208.84,275.097C208.84,274.686 208.872,274.306 208.903,273.99L210.738,262.405Z" style="fill:rgb(114,186,229);fill-rule:nonzero;"/>
            </g>
            <g transform="matrix(0.588415,0,0,0.588415,58.6025,89.53)">
                <path d="M231.503,279.211L231.786,277.186C231.756,277.186 231.248,277.06 230.268,276.775C229.287,276.522 228.716,276.299 228.526,276.078C228.178,275.698 228.115,274.686 228.337,273.039L229.603,265.001L234.192,265.001L234.635,262.374L230.046,262.374L230.774,257.689L228.463,257.689L227.134,262.374L224.001,263.038L223.684,265.001L226.691,265.001L225.425,273.229C225.33,273.895 225.266,274.496 225.266,275.066C225.266,277.819 226.533,279.211 229.097,279.211L231.503,279.211Z" style="fill:rgb(114,186,229);fill-rule:nonzero;"/>
            </g>
            <g transform="matrix(0.588415,0,0,0.588415,58.6025,89.53)">
                <path d="M239.889,262.405L236.977,262.405L235.142,273.958C235.079,274.401 235.046,274.812 235.046,275.224C235.046,276.299 235.299,277.218 235.838,277.946C236.534,278.991 237.643,279.497 239.193,279.497C240.743,279.497 242.168,279.181 243.497,278.515C243.94,278.294 244.416,278.041 244.89,277.756C245.365,277.503 245.65,277.345 245.713,277.313L246.156,279.211L248.34,279.211L250.999,262.405L248.087,262.405L246.093,275.097C244.732,275.763 243.687,276.206 242.928,276.427C242.168,276.68 241.314,276.807 240.395,276.807C239.446,276.807 238.813,276.617 238.497,276.269C238.149,275.921 237.991,275.54 237.991,275.097C237.991,274.686 238.021,274.306 238.054,273.99L239.889,262.405Z" style="fill:rgb(114,186,229);fill-rule:nonzero;"/>
            </g>
            <g transform="matrix(0.588415,0,0,0.588415,58.6025,89.53)">
                <path d="M257.898,264.052C257.424,264.335 257.139,264.493 257.044,264.525L256.696,262.405L254.48,262.405L251.821,279.211L254.733,279.211L256.664,266.994C257.898,266.298 258.911,265.823 259.765,265.539C260.588,265.286 261.538,265.159 262.615,265.159C263.691,265.159 264.483,265.222 265.021,265.317L265.495,262.468C265.179,262.31 264.546,262.215 263.627,262.215C262.71,262.215 261.855,262.342 261.095,262.563C260.336,262.785 259.734,263.038 259.292,263.26C258.816,263.513 258.372,263.766 257.898,264.052Z" style="fill:rgb(114,186,229);fill-rule:nonzero;"/>
            </g>
            <g transform="matrix(0.588415,0,0,0.588415,58.6025,89.53)">
                <path d="M273.978,262.089C271.92,262.089 270.337,262.405 269.261,263.07C268.692,263.418 268.217,263.797 267.836,264.21C267.425,264.621 267.109,265.159 266.824,265.823C266.539,266.488 266.286,267.152 266.128,267.819C265.938,268.482 265.716,269.4 265.495,270.603C265.273,271.837 265.147,273.008 265.147,274.18C265.147,275.35 265.305,276.364 265.653,277.155C266.286,278.642 267.616,279.402 269.609,279.434C269.862,279.434 270.115,279.434 270.337,279.434C273.092,279.434 275.56,279.116 277.744,278.515L278.092,276.364C275.749,276.712 274.009,276.87 272.901,276.87C271.762,276.87 270.939,276.87 270.463,276.838C269.356,276.807 268.628,276.49 268.28,275.825C268.122,275.477 268.027,274.971 268.027,274.369C268.027,273.768 268.089,273.039 268.217,272.185C268.438,272.28 268.945,272.375 269.704,272.47C270.433,272.565 271.224,272.628 272.078,272.628C273.756,272.628 275.37,272.28 276.984,271.584C277.807,271.204 278.566,270.57 279.232,269.653C279.896,268.767 280.213,267.533 280.213,265.918C280.213,265.507 280.086,265.001 279.865,264.463C279.232,262.88 277.269,262.089 274.009,262.089L273.978,262.089ZM268.565,269.843C268.565,269.811 268.628,269.558 268.723,269.083C268.818,268.64 268.945,268.103 269.166,267.5C269.324,266.994 269.641,266.456 270.147,265.918C270.844,265.159 272.078,264.778 273.851,264.778C275.148,264.778 276.097,264.936 276.7,265.222C277.079,265.412 277.269,265.823 277.269,266.456C277.269,267.595 276.795,268.482 275.844,269.115C275.496,269.337 275.117,269.495 274.674,269.653C274.199,269.811 273.756,269.939 273.312,270.001C272.869,270.096 272.395,270.159 271.92,270.192C271.414,270.222 271.066,270.254 270.876,270.254C270.686,270.254 270.4,270.254 269.989,270.254C269.578,270.254 269.103,270.222 268.502,270.159C268.533,270.064 268.533,269.969 268.565,269.843Z" style="fill:rgb(114,186,229);fill-rule:nonzero;"/>
            </g>
        </g>
    </g>
</svg>
