<svg viewBox="0 0 878 210" xmlns="http://www.w3.org/2000/svg" fill-rule="evenodd" clip-rule="evenodd" stroke-linejoin="round" stroke-miterlimit="1.414"><path d="M85.958-.004L.05 42.951v29.83l28.637 15.51 114.545 57.273v7.16L85.958 181.36l-57.272-28.636V95.45c0-.148-.635-.316-1.002-.502L4.822 83.519v81.136l81.136 40.569 81.137-40.57v-31.022L28.975 63.235h-.15l-19.23-7.559v-7.953l5.07-2.387L86.107 9.542l76.216 38.18v62.046l4.773 2.387v14.318l4.772 2.387V42.95L85.958-.003z" fill="#72bae5" fill-rule="nonzero"/><path d="M167.095 133.632v31.023l-81.137 40.569-81.136-40.57V83.52L.05 81.132v85.91l85.91 42.954 85.908-42.955V136.02l-4.772-2.387z" fill="#fff" fill-rule="nonzero"/><path d="M71.64 167.041l14.318 7.16 14.319-7.16v-42.954L71.64 109.768v57.273zM28.686 63.235v-5.967l42.955-21.477v50.114l28.636 14.318V35.79l42.954 21.477v57.273l23.864 11.932v-14.318l-4.773-2.387V47.723L86.256 9.542l-71.74 35.794-4.922 2.387v7.953l19.092 8.15v-.591z" fill="#fff" fill-rule="nonzero"/><g><path d="M217.836 47.436v57.378h19.948V47.436h19.538v-17.89h-58.406v17.89h18.92zM269.556 99.263c1.645 1.748 3.805 2.984 6.377 3.805 2.57.927 5.141 1.439 7.504 1.748 2.366.309 5.45.412 9.256.412 3.805 0 7.095-.206 9.973-.721 2.776-.512 5.657-1.44 8.432-2.981 2.775-1.542 5.038-3.6 6.683-6.272 1.645-2.675 2.982-6.274 4.011-10.9 1.028-4.627 1.542-10.9 1.542-18.92 0-7.917-1.027-14.91-2.98-20.877-.928-2.672-2.16-4.935-3.703-6.89-1.542-1.953-3.084-3.39-4.626-4.52-1.648-1.135-3.6-1.957-5.862-2.574-2.366-.616-4.524-1.028-6.58-1.234-2.16-.206-5.245-.309-9.462-.309-4.215 0-8.123.515-11.722 1.543-2.26.617-4.214 1.439-5.757 2.574-1.645 1.13-3.19 2.567-4.731 4.52-1.543 1.955-2.776 4.218-3.702 6.89-.925 2.776-1.746 6.07-2.261 9.876-.618 3.905-.927 8.534-.927 13.779 0 5.241.31 9.973 1.03 14.085.615 4.217 1.645 7.61 2.981 10.282 1.336 2.778 2.879 4.936 4.524 6.684zm22.107-52.34c2.778 0 4.938.204 6.274.719 1.336.514 2.466 1.547 3.393 3.089.822 1.645 1.336 3.702 1.645 6.271.31 2.572.412 6.89.412 13.161 0 6.274-.72 10.695-2.263 13.267-1.542 2.569-4.626 3.905-9.255 3.905-4.626 0-7.608-1.233-8.944-3.7-1.339-2.468-1.954-7.3-1.954-14.5 0-7.197.306-12.236 1.027-15.114.618-2.878 1.645-4.832 3.188-5.762 1.439-.926 3.599-1.336 6.477-1.336zM350.274 104.816V77.258c.309.103 2.16.515 5.553 1.03 3.393.513 5.862.822 7.302.925 1.439.102 2.672.205 3.7.205 1.029 0 2.262-.103 3.701-.205 1.44-.103 3.29-.719 5.553-1.646a16.03 16.03 0 0 0 5.657-4.114c1.542-1.745 2.775-4.214 3.805-7.607 1.027-3.394 1.542-7.199 1.542-11.62 0-4.422-.515-8.124-1.442-11.208-.924-3.085-2.157-5.45-3.7-7.096-3.599-4.214-9.667-6.374-18.098-6.374h-33.52v75.268h19.947zm0-58.302h11.516c3.496 0 5.244 2.675 5.244 7.919 0 5.345-1.748 8.02-5.244 8.02h-11.516v-15.94zM408.267 65.328c.824 2.263 1.851 4.215 3.188 5.86 1.338 1.645 3.29 3.087 6.068 4.32 2.672 1.233 5.86 1.851 9.561 1.851h9.256c2.16 0 3.599.309 4.317 1.027.721.721 1.133 1.954 1.133 3.496v1.646c0 1.542-.412 2.571-1.339 3.187-.924.72-2.57 1.03-4.73 1.03-10.179 0-19.125-.412-26.63-1.133v15.527c5.038 1.748 9.05 2.675 12.134 2.983 3.084.307 9.664.513 19.638.513 13.882 0 20.874-7.71 20.874-23.032V79.21c0-4.011-.72-7.816-2.263-11.21-3.187-7.095-8.84-10.59-16.966-10.59h-9.665c-2.571 0-4.32-.41-5.038-1.131-.72-.718-1.13-2.057-1.13-3.805v-1.13c0-2.057.512-3.29 1.542-3.805 1.027-.513 3.084-.719 6.066-.719 10.18 0 18.405.307 24.679 1.028V32.32c-6.684-2.467-14.706-3.702-24.062-3.702-2.571 0-5.14.103-7.816.309-6.065.411-11 2.262-14.703 5.656-3.805 3.393-5.656 8.225-5.656 14.703v6.274c0 3.393.515 6.58 1.542 9.767zM476.543 99.26c1.645 1.748 3.805 2.982 6.377 3.805 2.57.925 5.141 1.44 7.505 1.749 2.366.308 5.45.411 9.255.411 3.805 0 7.095-.206 9.974-.72 2.775-.515 5.656-1.44 8.431-2.982 2.776-1.542 5.039-3.599 6.684-6.274 1.645-2.672 2.981-6.271 4.01-10.898 1.028-4.629 1.543-10.9 1.543-18.92 0-7.919-1.027-14.911-2.981-20.874-.927-2.672-2.16-4.935-3.703-6.89-1.542-1.953-3.084-3.39-4.626-4.52-1.648-1.135-3.6-1.957-5.862-2.574-2.366-.616-4.523-1.028-6.583-1.234-2.157-.206-5.242-.309-9.459-.309-4.214 0-8.122.515-11.721 1.543-2.261.617-4.215 1.439-5.757 2.574-1.645 1.13-3.19 2.567-4.732 4.52-1.542 1.955-2.775 4.218-3.702 6.89-.924 2.776-1.746 6.066-2.26 9.871-.618 3.908-.927 8.534-.927 13.779 0 5.244.309 9.973 1.03 14.087.615 4.215 1.645 7.608 2.98 10.283 1.337 2.775 2.879 4.935 4.524 6.683zm22.107-52.337c2.778 0 4.938.204 6.274.719 1.337.514 2.467 1.542 3.394 3.084.82 1.645 1.336 3.702 1.642 6.274.312 2.57.412 6.89.412 13.16 0 6.272-.718 10.695-2.26 13.265-1.545 2.571-4.627 3.908-9.256 3.908-4.626 0-7.607-1.234-8.944-3.702-1.338-2.467-1.954-7.302-1.954-14.498 0-7.198.31-12.236 1.028-15.117.618-2.878 1.645-4.832 3.187-5.757 1.44-.926 3.6-1.336 6.477-1.336zM542.147 100.905c3.187 2.572 7.3 3.909 12.34 3.909h30.435V86.92h-21.183c-1.645 0-3.084-.206-4.215-.616-1.439-.514-2.16-2.16-2.16-4.731V29.545h-19.947v59.227c0 5.45 1.542 9.564 4.73 12.133zM589.752 88.154c1.233 4.423 2.672 7.816 4.214 9.976 1.542 2.26 3.908 3.906 6.993 5.038 2.981 1.13 5.553 1.851 7.507 1.954 1.954.103 3.908.204 5.963.204h5.759c1.748 0 3.805-.1 6.271-.41 1.954-.205 3.496-.514 4.629-.926 1.13-.31 2.466-.925 4.112-1.748 1.542-.719 2.88-1.645 3.908-2.776 1.027-1.03 2.057-2.366 3.187-4.114 3.29-4.935 4.935-12.749 4.935-23.443V29.545h-20.05V71.91c0 6.992-.72 11.207-2.16 12.751-1.542 1.849-4.009 2.776-7.198 2.776-3.496 0-6.066-.824-7.711-2.572-1.542-1.645-2.263-5.963-2.263-12.955V29.545h-19.947V71.91c0 6.477.618 11.825 1.85 16.245zM671.6 47.436v57.378h19.948V47.436h19.538v-17.89H652.68v17.89h18.92z" fill="#fff" fill-rule="nonzero"/><path fill="#fff" d="M717.666 29.545h19.947v75.269h-19.947z"/><path d="M753.346 99.26c1.645 1.748 3.805 2.982 6.375 3.805 2.571.925 5.14 1.44 7.507 1.749 2.366.308 5.45.411 9.255.411 3.803 0 7.093-.206 9.974-.72 2.775-.515 5.653-1.44 8.431-2.982 2.776-1.542 5.038-3.599 6.684-6.274 1.645-2.672 2.98-6.271 4.01-10.898 1.028-4.629 1.543-10.9 1.543-18.92 0-7.919-1.03-14.911-2.984-20.874-.924-2.672-2.158-4.935-3.7-6.89-1.542-1.953-3.086-3.39-4.629-4.52-1.645-1.135-3.599-1.957-5.86-2.574-2.365-.616-4.525-1.028-6.58-1.234-2.16-.206-5.244-.309-9.46-.309-4.215 0-8.123.515-11.723 1.543-2.263.617-4.217 1.439-5.759 2.574-1.645 1.13-3.187 2.567-4.73 4.52-1.541 1.955-2.774 4.218-3.701 6.89-.924 2.776-1.748 6.066-2.26 9.871-.619 3.908-.927 8.534-.927 13.779 0 5.244.308 9.973 1.03 14.087.615 4.215 1.644 7.608 2.98 10.283 1.337 2.775 2.879 4.935 4.524 6.683zm22.107-52.337c2.778 0 4.936.204 6.274.719 1.336.514 2.467 1.542 3.393 3.084.822 1.645 1.337 3.702 1.646 6.274.306 2.57.409 6.89.409 13.16 0 6.272-.718 10.695-2.26 13.265-1.543 2.571-4.63 3.908-9.256 3.908s-7.607-1.234-8.946-3.702c-1.336-2.467-1.954-7.302-1.954-14.498 0-7.198.309-12.236 1.03-15.117.617-2.878 1.645-4.832 3.187-5.757 1.439-.926 3.599-1.336 6.477-1.336zM834.27 104.814V67.385l21.593 37.429h19.95V29.545h-19.95v38.456l-21.49-38.456H814.22v75.269h20.05z" fill="#fff" fill-rule="nonzero"/><path d="M210.44 180.68l9-56.804h-7.14l-9 56.804h7.14zM228.597 142.502a12.004 12.004 0 0 0-2.172 2.64c-.62 1.008-1.165 2.094-1.707 3.104-.546 1.086-.931 2.248-1.319 3.567-.387 1.322-.78 2.64-1.012 3.881-.233 1.24-.542 2.714-.853 4.347-.31 1.628-.464 3.724-.464 6.206 0 2.562.464 5.2 1.395 7.995.7 2.093 1.942 3.724 3.727 4.964 1.785 1.322 3.879 1.942 6.286 1.942 2.405 0 5.12-.542 7.993-1.709 2.868-1.086 5.04-2.172 6.595-3.258l.932 4.499h5.433l9.699-60.916h-6.985l-3.567 22.117c-2.02-.931-4.347-1.706-7.066-2.25-2.714-.542-4.965-.775-6.593-.775-1.633 0-3.106.154-4.347.387-1.24.312-2.327.777-3.34 1.32-1.01.543-1.86 1.24-2.635 1.939zm.155 17.694c1.24-7.446 3.106-12.029 5.587-13.735 1.086-.699 2.405-1.086 3.96-1.086 4.653 0 9.154.62 13.425 1.86l-3.805 23.903c-5.2 2.248-9.853 3.337-14.122 3.337-3.726 0-5.59-2.795-5.59-8.461 0-1.707.157-3.646.545-5.818zM285.011 138.701c-5.045 0-8.924.775-11.562 2.405-1.397.854-2.564 1.783-3.491 2.795-1.01 1.008-1.785 2.327-2.486 3.955-.699 1.63-1.32 3.258-1.707 4.894-.465 1.625-1.007 3.876-1.552 6.825-.541 3.026-.853 5.897-.853 8.768 0 2.87.388 5.357 1.243 7.296 1.55 3.646 4.81 5.51 9.702 5.588h1.782c6.752 0 12.803-.78 18.158-2.254l.853-5.273c-5.74.853-10.008 1.24-12.727 1.24-2.793 0-4.81 0-5.972-.078-2.72-.076-4.502-.853-5.355-2.484-.39-.853-.62-2.096-.62-3.57 0-1.473.152-3.26.46-5.354.547.233 1.788.466 3.654.699 1.782.233 3.721.387 5.818.387 4.114 0 8.068-.853 12.028-2.56 2.018-.931 3.88-2.486 5.509-4.734 1.63-2.172 2.405-5.197 2.405-9.157 0-1.008-.309-2.248-.853-3.567-1.552-3.881-6.362-5.82-14.355-5.82h-.079zm-13.27 19.011c0-.078.156-.699.39-1.863.232-1.086.54-2.405 1.085-3.881.388-1.24 1.162-2.56 2.403-3.879 1.711-1.86 4.737-2.795 9.081-2.795 3.182 0 5.512.387 6.985 1.089.932.465 1.398 1.473 1.398 3.025 0 2.793-1.165 4.967-3.492 6.52-.853.541-1.787.93-2.873 1.318-1.165.388-2.248.701-3.334.853a24.626 24.626 0 0 1-3.418.469c-1.24.073-2.094.152-2.56.152h-2.174c-1.008 0-2.173-.079-3.646-.233.078-.233.078-.466.154-.775zM310.539 144.522c-1.086 1.395-2.094 3.258-3.102 5.663-1.01 2.403-1.863 5.198-2.405 8.302-.546 3.106-.853 5.975-.853 8.615 0 2.638.385 5.124 1.086 7.373.542 1.706 1.474 3.025 2.714 4.033a10.047 10.047 0 0 0 3.879 2.098c1.321.388 3.106.62 5.354.62 2.173 0 4.58-.546 7.218-1.708 2.64-1.086 4.656-2.25 6.13-3.413l1.086 4.575h5.278l5.433-37.17c-1.865-1.783-4.58-3.026-8.147-3.801-3.572-.775-6.21-1.167-7.838-1.167-1.709 0-3.182.08-4.347.16a28.706 28.706 0 0 0-3.572.698c-1.162.309-2.56.93-4.033 1.782-1.474.854-2.795 2.018-3.881 3.34zm7.218 2.56c.929-.62 1.709-1.008 2.407-1.241.62-.233 1.474-.393 2.56-.62 1.086-.233 2.56-.312 4.42-.312 1.788 0 4.347.466 7.687 1.398l-3.727 24.44c-2.638 1.32-4.886 2.333-6.752 2.874-1.86.62-4.112.932-6.828.932-2.717 0-4.578-1.086-5.433-3.185-.466-1.162-.699-2.635-.699-4.42 0-1.788.233-3.881.62-6.365.393-2.484.854-4.656 1.474-6.595.625-1.861 1.245-3.34 1.866-4.347a8.39 8.39 0 0 1 2.405-2.56zM345.925 174.786l-.775 4.967c1.317.307 4.501.62 9.699 1.008 5.2.387 8.848.62 11.02.62a28.09 28.09 0 0 0 5.897-.62c1.243-.314 2.56-1.167 3.879-2.486 1.319-1.395 2.253-3.49 2.64-6.208l.699-4.886c.076-.7.154-1.322.154-2.02 0-2.094-.62-3.955-1.86-5.434-1.633-1.939-4.115-2.947-7.527-2.947h-12.34a3.246 3.246 0 0 1-1.94-.387c-.779-.387-1.012-1.63-.7-3.572l.541-3.413c.079-.542.233-.932.312-1.319.701-1.86 2.329-2.795 4.889-2.795h19.79l.853-5.04c-1.785-.39-4.891-.7-9.466-1.01-4.58-.31-8.54-.467-11.874-.467-3.337 0-5.977.854-7.838 2.484-1.94 1.706-3.18 4.268-3.727 7.76l-.62 3.883c-.154 1.005-.233 1.859-.233 2.712 0 2.405.62 4.192 1.861 5.433 1.787 1.63 4.58 2.483 8.385 2.483h10.861c1.479 0 2.408.233 2.793.775.392.544.625 1.086.625 1.633 0 .542-.079 1.086-.157 1.474l-.62 3.567c-.388 2.56-1.864 3.805-4.423 3.805h-20.798zM418.557 124.655c-1.395 2.173-2.48 5.973-3.334 11.327l-.625 3.494-7.682 1.474-.853 4.967h7.373l-5.664 34.763h7.14l5.739-34.763h12.107l1.01-6.44h-12.03l.467-2.796c.62-4.187 1.32-6.985 2.173-8.301.544-.932 1.164-1.552 1.939-1.864.777-.233 1.785-.387 3.106-.387h8.226l.696-4.502c-1.473-.544-3.415-1.086-5.82-1.473-1.317-.233-2.56-.39-3.722-.39-4.734 0-8.152 1.63-10.246 4.891zM447.58 140.02c-2.326.62-4.344 1.707-6.13 3.335-1.783 1.633-3.102 3.805-4.11 6.519-1.01 2.714-1.785 5.742-2.332 9.081-.539 3.337-.774 5.896-.774 7.838 0 4.112.855 7.294 2.483 9.466 2.484 3.18 7.14 4.813 13.892 4.813s11.638-1.4 14.588-4.27c2.87-2.87 4.964-8.148 6.21-15.83.387-2.559.62-4.89.62-6.984 0-4.036-.78-7.218-2.327-9.62-2.407-3.494-6.833-5.28-13.352-5.28-3.567 0-6.514.312-8.767.932zm-2.247 9.466c.696-1.086 1.55-1.939 2.635-2.483a11.77 11.77 0 0 1 3.261-1.162c1.086-.16 2.484-.233 4.266-.233 1.787 0 3.185.073 4.347.309a7.655 7.655 0 0 1 3.025 1.319c.854.62 1.4 1.473 1.71 2.56.232 1.164.39 2.564.39 4.192 0 1.706-.234 3.96-.7 6.673a41.494 41.494 0 0 1-1.473 6.365c-.62 1.707-1.246 3.026-1.942 4.033-.699 1.008-1.706 1.861-3.104 2.481-1.4.626-3.648.935-6.828.935-4.27.078-6.985-.702-8.071-2.175a8.098 8.098 0 0 1-1.554-4.81c0-4.578.7-9.077 2.174-13.58.545-1.783 1.165-3.261 1.864-4.424zM490.96 143.514c-1.165.694-1.864 1.081-2.097 1.16l-.853-5.198h-5.43l-6.52 41.204h7.14l4.734-29.953c3.025-1.706 5.506-2.87 7.605-3.567 2.015-.62 4.342-.932 6.983-.932 2.635 0 4.58.155 5.899.388l1.164-6.985c-.777-.388-2.331-.62-4.58-.62-2.25 0-4.344.31-6.21.852-1.86.545-3.334 1.165-4.42 1.71a70.722 70.722 0 0 0-3.416 1.941zM543.806 180.68l.7-4.965c-.08 0-1.32-.309-3.727-1.008-2.406-.62-3.8-1.167-4.267-1.708-.853-.932-1.007-3.413-.465-7.451l3.104-19.707h11.253l1.086-6.44h-11.253l1.782-11.487h-5.661l-3.26 11.486-7.684 1.628-.775 4.813h7.372l-3.104 20.173c-.235 1.632-.387 3.106-.387 4.503 0 6.75 3.104 10.163 9.388 10.163h5.898zM580.433 138.777c-3.727 0-7.216.778-10.476 2.405-1.087.545-2.251 1.087-3.416 1.785-1.243.7-2.015 1.086-2.25 1.24l3.88-24.364h-7.139l-9.62 60.837h7.134l4.967-31.194c3.261-1.551 5.823-2.638 7.684-3.258 1.863-.62 3.96-.934 6.208-.934 2.253 0 3.805.468 4.658 1.476.853 1.01 1.24 2.018 1.24 3.025 0 1.01-.078 1.866-.154 2.486l-4.504 28.399h7.14l4.501-28.399c.157-1.007.233-1.941.233-2.795 0-2.56-.62-4.89-1.94-6.83-1.782-2.56-4.5-3.879-8.146-3.879zM615.892 138.701c-5.04 0-8.922.775-11.56 2.405-1.4.854-2.56 1.783-3.493 2.795-1.008 1.008-1.785 2.327-2.482 3.955-.698 1.63-1.319 3.258-1.706 4.894-.466 1.625-1.01 3.876-1.552 6.825-.547 3.026-.853 5.897-.853 8.768 0 2.87.387 5.357 1.24 7.296 1.552 3.646 4.81 5.51 9.7 5.588h1.784c6.752 0 12.803-.78 18.16-2.254l.854-5.273c-5.745.853-10.013 1.24-12.727 1.24-2.793 0-4.813 0-5.978-.078-2.714-.076-4.499-.853-5.354-2.484-.388-.853-.62-2.096-.62-3.57 0-1.473.154-3.26.468-5.354.54.233 1.785.466 3.645.699a44.83 44.83 0 0 0 5.82.387c4.112 0 8.072-.853 12.027-2.56 2.02-.931 3.88-2.486 5.511-4.734 1.628-2.172 2.408-5.197 2.408-9.157 0-1.008-.312-2.248-.854-3.567-1.554-3.881-6.364-5.82-14.36-5.82h-.078zm-13.266 19.011c0-.078.154-.699.387-1.863.233-1.086.545-2.405 1.086-3.881.388-1.24 1.165-2.56 2.406-3.879 1.706-1.86 4.734-2.795 9.078-2.795 3.183 0 5.51.387 6.988 1.089.926.465 1.395 1.473 1.395 3.025 0 2.793-1.167 4.967-3.494 6.52-.853.541-1.782.93-2.869 1.318-1.164.388-2.253.701-3.339.853-1.086.233-2.25.388-3.413.469-1.24.073-2.093.152-2.56.152h-2.174c-1.01 0-2.172-.079-3.646-.233.074-.233.074-.466.155-.775zM661.752 134.587l-7.292 46.093h7.14l3.878-24.441 24.758-.778.853-5.742-24.446-.853 2.175-13.658c.076-.62.154-1.165.309-1.63.62-1.783 2.096-2.715 4.423-2.715h23.747l.932-5.742c-.932-.078-5.279-.311-13.039-.699-7.76-.387-11.795-.546-12.028-.546-6.443 0-10.243 3.572-11.41 10.711zM707.616 139.476h-7.14l-4.5 28.325a22.153 22.153 0 0 0-.233 3.104c0 2.635.625 4.889 1.941 6.673 1.71 2.562 4.423 3.803 8.226 3.803 3.805 0 7.296-.775 10.552-2.408a50.312 50.312 0 0 0 3.418-1.86c1.162-.62 1.86-1.008 2.015-1.087l1.086 4.654h5.355l6.52-41.204h-7.14l-4.89 31.117c-3.336 1.633-5.898 2.715-7.759 3.261-1.86.62-3.957.932-6.205.932-2.332 0-3.881-.466-4.658-1.32-.854-.852-1.241-1.786-1.241-2.873 0-1.007.078-1.939.154-2.714l4.5-28.403zM758.527 180.68l.693-4.965c-.073 0-1.319-.309-3.721-1.008-2.405-.62-3.805-1.167-4.271-1.708-.853-.932-1.008-3.413-.464-7.451l3.104-19.707h11.251l1.086-6.44h-11.25l1.784-11.487h-5.666l-3.258 11.486-7.681 1.628-.778 4.813h7.373l-3.104 20.173c-.233 1.632-.39 3.106-.39 4.503 0 6.75 3.106 10.163 9.393 10.163h5.899zM779.087 139.476h-7.14l-4.499 28.325a21.802 21.802 0 0 0-.235 3.104c0 2.635.62 4.889 1.942 6.673 1.706 2.562 4.425 3.803 8.225 3.803s7.294-.775 10.553-2.408a49.698 49.698 0 0 0 3.415-1.86c1.164-.62 1.863-1.008 2.018-1.087l1.086 4.654h5.354l6.52-41.204h-7.14l-4.889 31.117c-3.336 1.633-5.899 2.72-7.76 3.261-1.863.62-3.957.932-6.21.932-2.326 0-3.878-.466-4.653-1.32-.853-.852-1.24-1.786-1.24-2.873 0-1.007.073-1.939.154-2.714l4.499-28.403zM823.24 143.514c-1.162.694-1.86 1.081-2.094 1.16l-.853-5.198h-5.433l-6.52 41.204h7.14l4.735-29.953c3.025-1.706 5.509-2.87 7.602-3.567 2.018-.62 4.347-.932 6.988-.932 2.638 0 4.58.155 5.899.388l1.162-6.985c-.775-.388-2.327-.62-4.58-.62-2.248 0-4.345.31-6.208.852-1.86.545-3.337 1.165-4.42 1.71a70.788 70.788 0 0 0-3.418 1.941zM862.664 138.701c-5.046 0-8.927.775-11.565 2.405-1.395.854-2.56 1.783-3.494 2.795-1.007 1.008-1.782 2.327-2.48 3.955-.7 1.63-1.32 3.258-1.707 4.894-.466 1.625-1.01 3.876-1.552 6.825-.544 3.026-.853 5.897-.853 8.77 0 2.869.387 5.355 1.24 7.294 1.552 3.646 4.813 5.51 9.7 5.588h1.784c6.755 0 12.805-.78 18.16-2.254l.853-5.273c-5.744.853-10.01 1.24-12.727 1.24-2.792 0-4.81 0-5.977-.078-2.714-.076-4.499-.853-5.352-2.484-.388-.853-.62-2.093-.62-3.57 0-1.473.152-3.26.465-5.354.542.233 1.785.466 3.646.699a44.86 44.86 0 0 0 5.82.387c4.115 0 8.072-.853 12.029-2.56 2.018-.931 3.878-2.486 5.511-4.734 1.628-2.172 2.405-5.197 2.405-9.157 0-1.008-.311-2.248-.853-3.567-1.552-3.881-6.365-5.82-14.357-5.82h-.076zm-13.271 19.011c0-.078.154-.699.387-1.863.233-1.086.544-2.403 1.086-3.881.387-1.24 1.165-2.56 2.405-3.879 1.71-1.86 4.735-2.795 9.081-2.795 3.18 0 5.507.387 6.985 1.089.93.465 1.395 1.473 1.395 3.025 0 2.793-1.162 4.967-3.493 6.52-.853.543-1.783.93-2.869 1.318-1.164.388-2.25.701-3.339.853a24.555 24.555 0 0 1-3.413.469c-1.24.073-2.094.152-2.56.152h-2.174c-1.008 0-2.172-.079-3.646-.233.076-.233.076-.466.155-.775z" fill="#72bae5" fill-rule="nonzero"/></g></svg>