<?xml version="1.0" encoding="UTF-8" standalone="no"?>
<!DOCTYPE svg PUBLIC "-//W3C//DTD SVG 1.1//EN" "http://www.w3.org/Graphics/SVG/1.1/DTD/svg11.dtd">
<svg width="100%" height="100%" viewBox="0 0 200 60" version="1.1" xmlns="http://www.w3.org/2000/svg" xmlns:xlink="http://www.w3.org/1999/xlink" xml:space="preserve" xmlns:serif="http://www.serif.com/" style="fill-rule:evenodd;clip-rule:evenodd;stroke-linejoin:round;stroke-miterlimit:1.41421;">
    <g transform="matrix(0.15406,1.49018e-17,2.98036e-17,-0.15406,130.473,825.053)">
        <g id="path3059_1_" transform="matrix(2.43169,0,0,-2.43169,-913.432,6251.25)">
            <path d="M27.6,368.64L138.88,368.64C158.24,368.4 168.56,384.08 173.2,400.8L212.56,368.64L225.68,368.4L176.56,408.64L200.4,474.32C202.16,478.72 211.12,490.88 223.6,490.88L543.28,490.48C547.28,486.32 553.84,488.88 553.92,493.68C553.92,501.28 545.52,499.6 543.84,498.16L176.72,498.56C164.24,498.88 149.04,487.28 143.36,473.68L131.44,446L68.4,498.32L55.04,498.56L128.8,438.32L107.2,382.96C105.68,379.76 102.24,375.2 94.56,375.12L27.36,375.36L27.6,368.64Z" style="fill:white;fill-rule:nonzero;"/>
        </g>
        <g id="path3829_1_" transform="matrix(2.43169,0,0,-2.43169,-913.432,6251.25)">
            <path d="M237.68,437.12L279.6,437.28C283.68,437.04 284.72,442.16 283.44,444.72L267.68,484.72L224.64,484.56C218.64,484.72 217.84,480.64 219.44,476.16L226.16,459.12L248.48,459.28C253.12,459.28 253.28,464.8 248.32,464.88L243.2,464.88L237.68,479.04C237.12,480.56 238,482.08 240.16,482.08L247.76,482.08L263.04,442.8C264.4,439.76 261.36,439.92 260.32,439.92L237.28,440.08C235.52,439.92 235.76,437.12 237.68,437.12Z" style="fill:white;fill-rule:nonzero;"/>
        </g>
        <g id="path3831_1_" transform="matrix(2.43169,0,0,-2.43169,-913.432,6251.25)">
            <path d="M299.2,437.6L341.2,437.76C344.88,437.84 347.12,443.44 344.48,449.36L330.88,483.76L310.96,483.76L325.52,447.28C327.52,442.16 322.72,440.56 318.56,440.24L303.84,475.76C301.76,480.24 295.36,484.64 291.28,484.64L279.12,484.64L299.2,437.6Z" style="fill:white;fill-rule:nonzero;"/>
        </g>
        <g id="path3831_2_" transform="matrix(2.43169,0,0,-2.43169,-913.432,6251.25)">
            <path d="M472.8,515.44L484,515.44C484.96,515.44 485.6,516.96 484.88,518.56L481.28,527.68L476,527.68L479.84,518C480.4,516.64 479.12,516.24 478,516.08L474.08,525.52C473.52,526.72 471.84,527.92 470.72,527.92L467.44,527.92L472.8,515.44Z" style="fill:white;fill-rule:nonzero;"/>
        </g>
        <g id="path3835_1_" transform="matrix(2.43169,0,0,-2.43169,-913.432,6251.25)">
            <path d="M542.08,488C543.76,486.24 546,485.28 548.24,485.28C550.56,485.2 552.88,486 554.72,487.76C558.32,491.2 558.56,496.88 555.12,500.48C551.68,504.08 546,504.24 542.4,500.88C540.4,498.96 538.24,500.96 539.68,502.64C539.84,502.8 540,502.96 540.16,503.12C545.04,507.76 552.8,507.6 557.44,502.72C562.08,497.84 561.84,490.08 556.96,485.44C554.48,483.12 551.36,482 548.24,482.08C545.12,482.16 542,483.44 539.68,485.92C537.44,488.24 540.64,489.68 542.08,488Z" style="fill:white;fill-rule:nonzero;"/>
        </g>
        <g id="path2992_1_" transform="matrix(2.43169,0,0,-2.43169,-913.432,6251.25)">
            <path d="M417.6,395.76C412.48,395.76 407.84,398.88 406.16,403.12L392.16,437.92L369.92,437.92C366,437.92 360,440.72 358.32,445.44L343.2,484.4L385.28,484.4C389.12,484.4 396,482.48 398.24,476.96L425.84,405.68C428.4,398.4 430.72,398.32 433.2,398.32L456.64,398.32L456.64,395.92L417.6,395.76ZM384.48,440.16L391.44,440.32L375.92,479.04C375.44,480.24 374.16,481.92 372.8,481.92L364.88,481.92L380.24,443.68C381.04,442.08 381.6,440.24 384.48,440.16Z" style="fill:white;fill-rule:nonzero;"/>
        </g>
        <g id="path3764_1_" transform="matrix(2.43169,0,0,-2.43169,-913.432,6251.25)">
            <path d="M426.4,437.84L469.76,438C472.56,438 475.04,441.76 473.76,445.04L467.68,461.04C467.12,462 466.16,462.8 464.8,462.8L443.36,462.96C439.12,463.04 439.04,457.12 443.36,457.2L448.16,457.2L453.6,443.2C454.8,440.08 453.6,440.32 451.04,440.16L445.36,440.16L430.64,479.2C430.16,481.12 430.88,482.24 433.2,482.24L458.4,482.24L458.48,484.64L416.48,484.64C412.4,484.64 409.84,480.48 411.28,477.28L426.4,437.84Z" style="fill:white;fill-rule:nonzero;"/>
        </g>
        <g id="path3764_2_" transform="matrix(2.43169,0,0,-2.43169,-913.432,6251.25)">
            <path d="M359.68,515.28L371.52,515.36C372.32,515.36 372.96,516.4 372.64,517.28L370.96,521.68C370.8,521.92 370.56,522.16 370.16,522.16L364.32,522.24C363.2,522.24 363.12,520.64 364.32,520.64L365.6,520.64L367.12,516.8C367.44,515.92 367.12,516 366.4,516L364.88,516L361.04,526.24C360.88,526.8 361.12,527.04 361.76,527.04L368.48,527.04L368.48,528.08L356.96,528.08C355.84,528.08 355.12,526.96 355.52,526.08L359.68,515.28Z" style="fill:white;fill-rule:nonzero;"/>
        </g>
        <g id="path3766_1_" transform="matrix(2.43169,0,0,-2.43169,-913.432,6251.25)">
            <path d="M505.6,440.64L491.92,476C489.36,481.76 483.76,484.4 480.88,484.4L469.6,484.4C468.24,484.4 468.48,483.84 468.8,483.2L486.4,437.6L526.8,438C530.64,438 534.88,439.76 532.8,445.04L531.68,448.24L527.44,459.28L509.04,459.28C507.84,459.28 508.16,458.32 508.64,457.28L513.04,446.88C515.12,441.84 508.24,439.76 505.6,440.64Z" style="fill:white;fill-rule:nonzero;"/>
        </g>
        <g id="path3766_2_" transform="matrix(2.43169,0,0,-2.43169,-913.432,6251.25)">
            <path d="M443.52,515.92L439.68,525.76C438.96,527.36 437.44,528.08 436.64,528.08L433.52,528.08C433.12,528.08 433.2,527.92 433.28,527.76L438.16,515.12L449.36,515.2C450.4,515.2 451.6,515.68 451.04,517.12L450.72,518L449.52,521.04L444.4,521.04C444.08,521.04 444.16,520.8 444.32,520.48L445.52,517.6C446.16,516.24 444.24,515.68 443.52,515.92Z" style="fill:white;fill-rule:nonzero;"/>
        </g>
        <g id="path3776_1_" transform="matrix(2.43169,0,0,-2.43169,-913.432,6251.25)">
            <path d="M387.6,504.4L378.56,527.84L372.32,527.84L381.52,504.4L387.6,504.4Z" style="fill:white;fill-rule:nonzero;"/>
        </g>
        <g id="path3780_1_" transform="matrix(2.43169,0,0,-2.43169,-913.432,6251.25)">
            <path d="M419.92,516.48L410.96,516.48C410,516.56 410,517.04 409.52,517.76L407.36,523.36C406.72,525.04 407.04,526.4 408.48,526.4L414.08,526.4C414.96,526.4 415.36,528.4 414.08,528.4L402.08,528.48C400.32,528.48 399.68,526.32 400.96,523.04L403.36,516.72C404,515.28 405.52,514.88 407.6,514.88L420.72,514.88L423.04,508.88L429.76,508.88L427.36,515.12L434.96,515.12C435.68,515.12 435.92,516.56 434.88,516.56L426.8,516.56L424.16,523.6C423.36,525.76 424.16,526.56 426.4,526.56L430.88,526.56L430.88,528.24L418.56,528.32C416.24,528.32 416,526.56 417.52,523.12L419.92,516.48Z" style="fill:white;fill-rule:nonzero;"/>
        </g>
        <g id="path3786_1_" transform="matrix(2.43169,0,0,-2.43169,-913.432,6251.25)">
            <path d="M456.88,515.28C454.64,515.28 453.92,516.56 453.2,517.84L450.16,525.68C449.6,527.2 449.28,528.56 450.72,528.56L462.08,528.56C464.16,528.56 464.56,527.6 465.36,526.32L468.64,517.76C469.44,515.6 469.12,515.36 468.16,515.36L456.88,515.36L456.88,515.28ZM460.32,516.24L463.12,516.24L459.36,525.92C458.56,527.28 457.6,527.04 456.08,527.04L460.32,516.24Z" style="fill:white;fill-rule:nonzero;"/>
        </g>
        <g id="g21" transform="matrix(2.43169,0,0,-2.43169,-913.432,6251.25)">
            <path id="path3790_1_" d="M486.72,515.44L494,515.28C496,515.28 497.04,515.04 495.68,518.72L492.08,527.76L485.84,527.76L489.52,518.48C490.24,516.8 489.44,516.8 488.16,516C487.68,515.84 487.2,515.68 486.72,515.44Z" style="fill:white;fill-rule:nonzero;"/>
            <path id="path3792_1_" d="M501.44,504.08L499.28,509.6L492.96,509.6L495.12,504.08L501.44,504.08Z" style="fill:white;fill-rule:nonzero;"/>
        </g>
        <g id="path3794_1_" transform="matrix(2.43169,0,0,-2.43169,-913.432,6251.25)">
            <path d="M514.08,516.56L507.28,516.56C506.4,516.56 506.24,517.44 505.76,518.56L504.16,522.8C503.12,525.6 503.76,526.56 505.12,526.56L510.56,526.56C511.76,526.56 511.92,528.24 510.72,528.24L498.88,528.24C496.96,528.24 495.28,527.6 497.2,522.72L499.36,517.2C500.24,515.12 502.24,514.8 504,514.8L514.48,514.8C514.88,514.8 514.96,516.56 514.08,516.56Z" style="fill:white;fill-rule:nonzero;"/>
        </g>
        <g id="path3796_1_" transform="matrix(2.43169,0,0,-2.43169,-913.432,6251.25)">
            <path d="M532.8,514.8C532.48,514.8 519.92,514.8 519.92,514.8C518.16,514.8 517.36,516.96 516.64,518.72C514.96,522.8 515.6,522.96 517.6,522.96L523.76,522.96C524,522.96 522.96,526.48 520.88,526.48L514,526.48C513.28,526.48 512.64,528.24 513.04,528.24L525.76,528.24C528.24,528.24 531.36,520.72 529.44,520.72L522,520.72C521.04,520.72 522.96,516.24 524.08,516.24L531.84,516.24C532.32,516.48 533.52,514.8 532.8,514.8Z" style="fill:white;fill-rule:nonzero;"/>
        </g>
        <g id="path3764_4_" transform="matrix(2.43169,0,0,-2.43169,-913.432,6251.25)">
            <path d="M387.52,515.28L399.36,515.36C400.16,515.36 400.8,516.4 400.48,517.28L398.8,521.68C398.64,521.92 398.4,522.16 398,522.16L392.16,522.24C391.04,522.24 390.96,520.64 392.16,520.64L393.44,520.64L394.96,516.8C395.28,515.92 394.96,516 394.24,516L392.72,516L388.88,526.24C388.72,526.8 388.96,527.04 389.6,527.04L396.32,527.04L396.32,528.08L384.8,528.08C383.68,528.08 382.96,526.96 383.36,526.08L387.52,515.28Z" style="fill:white;fill-rule:nonzero;"/>
        </g>
    </g>
</svg>
