<svg viewBox="0 0 2000 905" xmlns="http://www.w3.org/2000/svg" fill-rule="evenodd" clip-rule="evenodd" stroke-linejoin="round" stroke-miterlimit="1.414"><path d="M1156.89 486.749c5.119 19.836 7.722 41.6 7.722 64.849 0 44.406-9.456 80.69-28.107 107.844-19.228 27.94-47.664 42.113-84.54 42.113h-52.322v14.875h67.125c34.632 0 60.93-13.058 78.856-39.134 17.934-26.107 26.903-60.745 26.903-103.967 0-25.673-3.17-49.163-9.515-70.434a118.474 118.474 0 0 0-6.122-16.146" fill="#f37920" fill-rule="nonzero"/><path d="M1059.73 490.858h7.962c4.08 0 7.839.557 11.308 1.59-5.61-11.175-13.918-16.453-26.11-16.453h-1.076v156.918a29.865 29.865 0 0 0 7.916-1.706v-140.35zM1355.99 607.582c0 30.82-8.05 55.145-23.924 72.305-16.01 17.3-38.643 26.076-67.266 26.076-19.04 0-35.3-4.097-48.732-12.02 1.039 1.292 2.032 2.622 3.155 3.818 14.351 15.393 34.483 23.077 60.362 23.077 26.755 0 47.498-7.946 62.222-23.876 14.737-15.923 22.1-38.462 22.1-67.638v-192.85h-7.917v171.108z" fill="#f37920" fill-rule="nonzero"/><path d="M1254.56 630.26c1.136 2.24 2.376 3.77 3.646 4.869-.402-4.032-.624-8.414-.624-13.222V436.473h-7.915v163.676c0 13.568 1.647 23.7 4.893 30.112" fill="#f37920" fill-rule="nonzero"/><path fill="#f37920" d="M1388.677 478.401h28.814v14.868h-28.814z"/><path d="M1543.68 478.408h-52.328v223.155h-52.182v14.876h60.09V493.276h52.328v-56.798h-7.908v41.93zM1632.62 701.559h-52.73v14.876h60.646V436.472h-7.916V701.56zM1678.07 701.561v14.877h147.003v-57.205h-7.915v42.328H1678.07zM1730.25 584.152v46.443h7.908V599.02h80.996v-54.573h-7.917v39.705h-80.987zM1817.16 478.003h-86.909v37.816h7.908v-22.952h86.916v-56.393h-7.915v41.529zM1990.38 585.664c1.092 6.11 1.7 12.59 1.7 19.52 0 27.647-9.304 51.576-27.647 71.123-18.466 19.678-41.337 29.656-67.982 29.656-14.95 0-30.813-3.617-47.334-10.712v6.735c22.176 12.567 42.894 18.854 62.13 18.854 24.772 0 45.762-9.165 62.956-27.494 17.202-18.32 25.8-40.455 25.8-66.416 0-16.46-3.247-30.183-9.623-41.266M1886.9 576.635c-6.856-3.67-13.15-7.537-18.88-11.574 9.194 9.897 21.494 18.986 36.965 27.271a194.812 194.812 0 0 1 8.384 4.853 24.878 24.878 0 0 0-2.29-3.336c-2.77-3.314-9.283-9.07-24.179-17.214M1984.46 513.533v-66.814a150.39 150.39 0 0 0-7.916-3.955v63.204c2.624 2.325 5.254 4.787 7.916 7.565M1922.89 473.18c-5.715 0-10.506 1.794-14.65 5.486-3.985 3.533-5.836 7.444-5.836 12.32 0 4.938 1.584 9.062 4.844 12.604.845.947 2.092 2.111 3.789 3.45 1.121-4.426 3.575-8.357 7.415-11.76 5.43-4.824 11.841-7.235 19.242-7.235 9.053 0 18.368 3.183 27.93 9.454l-.914-.954c-14.852-15.505-28.922-23.365-41.82-23.365" fill="#f37920" fill-rule="nonzero"/><path d="M1976.55 508.909v-2.942c-3.678-3.255-7.32-6.103-10.927-8.467l10.927 11.409zM0 415.204h58.088v105.209h46.398v-105.21h58.63V687.46h-58.63V573.492H58.088V687.46H0V415.204zM199.435 415.204h142.974v54.848h-84.524v50.168h78.767v53.07h-78.767v58.556h84.524v55.614H199.435V415.204zM448.6 489.564l-16.111 95.05h31.785l-15.674-95.05zm-27.903-74.36h58.14l66.059 272.256h-63.66l-8.915-54.045h-48.094l-9.167 54.045h-59.888l65.525-272.256zM536.001 415.204h62.756l27.698 178.966 28.593-178.966h63.658L655.048 687.46h-57.909l-61.138-272.256zM744.731 415.204h66l21.394 86.271 21.043-86.271h66.908l-59.17 147.554V687.46h-58.621V562.758l-57.554-147.554z" fill="#fff" fill-rule="nonzero"/><path d="M170.061 686.695v13.38H120.212v13.107h58.626V440.923h-8.777v245.772zM65.037 586.106v113.968H15.728v13.106H73.81V599.204h10.878v-13.098H65.037z" fill="#fff" fill-rule="nonzero"/><path fill="#fff" d="M73.81 440.932h-8.773v73.006h8.773z"/><path d="M349.357 482.672H264.83v23.419h8.782v-10.316h84.517v-54.844h-8.772v41.74zM348.745 700.074H215.162v13.106H358.13v-13.106h-9.384zM343.6 585.91H264.828v31.799h8.783v-18.692h78.766V545.93H343.6v39.978zM429.095 646.029l-7.274 42.915-1.886 11.132h-45.884l-3.154 13.104h59.888l9.165-54.06h16.753l-2.157-13.091h-25.451zM555.48 700.077H501.225l2.16 13.105h63.664l-66.06-272.258h-8.39M719.826 440.922l-58.185 248.82-2.413 10.332h-49.312l2.944 13.106h57.905l63.606-272.017-.093-.241h-14.452zM626.385 518.656l-11.905-77.733-4.516.001 14.126 92.095 2.295-14.363zM923.863 440.922L874.28 564.579v135.495H824.431v13.106h58.624V588.47l59.167-147.548h-18.359z" fill="#fff" fill-rule="nonzero"/><path d="M734.277 440.926l.093.242.059-.242h-.152z" fill="#fff" fill-rule="nonzero"/><path fill="#fff" d="M178.493 778.8h1641.123v10.012H178.493z"/><path d="M340.226 839.474l-7.606 44.984h11.409v-44.984h-3.803zm15.4-9.491v74.698H344.79v-7.84H332.62v7.84h-11.407v-20.223l10.077-54.475h24.337zM376.542 892.197h11.407v-49.523h-11.407v49.523zm20.153-59.119c.887 1.31 1.713 3.58 2.473 6.81v55.3c-1.078 3.373-2.03 5.506-2.852 6.398-.826.896-2.79 1.926-5.895 3.096h-25.287v-74.493h25.858c2.978.757 4.88 1.72 5.703 2.89M420.271 830.187l5.704 49.63 5.705-49.63h11.409l-11.41 74.493h-11.408l-11.407-74.493h11.407zM475.408 855.057v-12.381h-11.407v19.295h10.268v10.936H464v19.294h11.407V879.82h11.409v18.674c0 1.722-.556 3.184-1.664 4.385-1.109 1.205-2.457 1.807-4.04 1.807h-22.816c-1.586 0-2.932-.602-4.042-1.807-1.11-1.2-1.663-2.663-1.663-4.385v-62.112c0-1.718.554-3.18 1.663-4.385 1.11-1.203 2.456-1.806 4.042-1.806h22.815c1.584 0 2.932.603 4.041 1.806 1.108 1.205 1.664 2.667 1.664 4.385v18.675h-11.409zM502.027 830.187h5.514v43.953l11.597-43.953h5.705c1.584 0 2.932.604 4.041 1.805 1.108 1.206 1.663 2.669 1.663 4.387v68.301h-11.409v-37.246L507.92 904.68h-11.597v-68.301c0-1.718.553-3.18 1.663-4.387 1.108-1.201 2.457-1.805 4.041-1.805M540.052 830.187h34.225v74.493h-11.41v-62.008h-11.406v10.834h-11.409v-23.319zM616.296 902.98c-1.14 1.136-2.471 1.702-3.993 1.702h-22.816c-1.584 0-2.932-.601-4.04-1.806-1.11-1.201-1.665-2.663-1.665-4.385v-68.303h11.41v62.01h11.406v-62.01h11.409V898.8c0 1.65-.57 3.043-1.711 4.18M650.33 842.674h-11.407v18.57h11.407v-18.57zm11.409 62.008h-11.41l-11.406-31.055v31.055h-11.41v-74.493h28.521c1.582 0 2.932.602 4.04 1.805 1.11 1.206 1.665 2.668 1.665 4.386v31.055c0 1.72-.556 3.184-1.665 4.385-1.108 1.205-2.458 1.807-4.04 1.807h-5.704l11.409 31.055zM694.058 855.057v-12.381h-11.407v19.295h10.268v10.936H682.65v19.294h11.407V879.82h11.409v18.674c0 1.722-.556 3.184-1.664 4.385-1.109 1.205-2.457 1.807-4.04 1.807h-22.816c-1.586 0-2.932-.602-4.042-1.807-1.11-1.2-1.663-2.663-1.663-4.385v-62.112c0-1.718.554-3.18 1.663-4.385 1.11-1.203 2.456-1.806 4.042-1.806h22.815c1.584 0 2.932.603 4.041 1.806 1.108 1.205 1.664 2.667 1.664 4.385v18.675h-11.409zM779.618 879.813v24.866h-34.225v-74.495H756.8v62.01h11.41v-12.38h11.408zM821.636 902.98c-1.14 1.136-2.471 1.702-3.993 1.702h-22.816c-1.584 0-2.932-.601-4.04-1.806-1.11-1.201-1.665-2.663-1.665-4.385v-68.303h11.41v62.01h11.408v-62.01h11.407V898.8c0 1.65-.57 3.043-1.711 4.18M855.671 842.674h-11.407v18.57h11.407v-18.57zm11.407 55.817c0 1.721-.555 3.183-1.663 4.386-1.11 1.203-2.457 1.805-4.041 1.805h-28.52v-24.866h11.409v12.38h11.408v-18.57h-17.113c-1.584 0-2.931-.6-4.041-1.806-1.11-1.2-1.663-2.665-1.663-4.385V836.38c0-1.718.554-3.18 1.663-4.386 1.11-1.203 2.457-1.805 4.041-1.805h22.816c1.584 0 2.932.602 4.041 1.805 1.108 1.206 1.663 2.668 1.663 4.386v62.11zM899.4 842.674h-11.407v18.57H899.4v-18.57zm11.409 55.817c0 1.721-.556 3.183-1.665 4.386-1.108 1.203-2.456 1.805-4.04 1.805h-28.52v-24.866h11.409v12.38H899.4v-18.57h-17.112c-1.585 0-2.931-.6-4.04-1.806-1.11-1.2-1.664-2.665-1.664-4.385V836.38c0-1.718.554-3.18 1.663-4.386 1.11-1.203 2.456-1.805 4.041-1.805h22.816c1.584 0 2.932.602 4.04 1.805 1.11 1.206 1.665 2.668 1.665 4.386v62.11zM939.136 839.474l-7.606 44.984h11.409v-44.984h-3.803zm15.4-9.491v74.698H943.7v-7.84H931.53v7.84h-11.407v-20.223l10.077-54.475h24.337zM986.86 842.674h-11.408v18.57h11.409v-18.57zm11.41 55.817c0 1.721-.558 3.183-1.666 4.386-1.11 1.203-2.457 1.805-4.04 1.805h-28.521v-24.866h11.409v12.38h11.409v-18.57h-17.114c-1.584 0-2.931-.6-4.039-1.806-1.11-1.2-1.665-2.665-1.665-4.385V836.38c0-1.718.556-3.18 1.665-4.386 1.108-1.203 2.455-1.805 4.04-1.805h22.815c1.584 0 2.932.602 4.041 1.805 1.108 1.206 1.666 2.668 1.666 4.386v62.11zM1030.59 855.057v-12.381h-11.409v19.295h10.266v10.936h-10.266v19.294h11.409V879.82h11.409v18.674c0 1.722-.558 3.184-1.667 4.385-1.11 1.205-2.454 1.807-4.04 1.807h-22.813c-1.586 0-2.934-.602-4.042-1.807-1.11-1.2-1.663-2.663-1.663-4.385v-62.112c0-1.718.554-3.18 1.663-4.385 1.108-1.203 2.456-1.806 4.042-1.806h22.814c1.585 0 2.93.603 4.039 1.806 1.11 1.205 1.667 2.667 1.667 4.385v18.675h-11.409zM1100.75 839.474l-7.606 44.984h11.407v-44.984h-3.801zm15.4-9.491v74.698h-10.839v-7.84h-12.167v7.84h-11.407v-20.223l10.077-54.475h24.337zM1131.36 830.187h5.514v43.953l11.596-43.953h5.706c1.584 0 2.93.604 4.04 1.805 1.109 1.206 1.663 2.669 1.663 4.387v68.301h-11.41v-37.246l-11.216 37.246h-11.597v-68.301c0-1.718.552-3.18 1.663-4.387 1.108-1.201 2.455-1.805 4.041-1.805M1180.785 892.197h11.412v-49.523h-11.412v49.523zm20.16-59.119c.883 1.31 1.712 3.58 2.47 6.81v55.3c-1.076 3.373-2.028 5.506-2.857 6.398-.812.896-2.787 1.926-5.892 3.096h-25.276v-74.493h25.858c2.981.757 4.869 1.72 5.698 2.89M1254.938 861.244h11.413v-18.57h-11.413v18.57zm22.825 6.191c0 1.72-.564 3.184-1.658 4.385-1.111 1.205-2.47 1.807-4.04 1.807h-17.127v31.055h-11.394v-74.493h28.522c1.57 0 2.928.602 4.04 1.805 1.093 1.206 1.657 2.668 1.657 4.386v31.055zM1310.078 842.674h-11.413v18.57h11.413v-18.57zm11.412 62.008h-11.412l-11.413-31.055v31.055h-11.394v-74.493h28.522c1.57 0 2.928.602 4.039 1.805 1.094 1.206 1.658 2.668 1.658 4.386v31.055c0 1.72-.564 3.184-1.658 4.385-1.111 1.205-2.47 1.807-4.04 1.807h-5.714l11.412 31.055zM1353.628 854.746h-11.412v23.523h11.412v-23.523zm6.791-8.77c.723.482 1.323.928 1.764 1.34.811.826 1.764 2.34 2.84 4.54v29.303c-.247.963-.512 1.79-.794 2.476a8.075 8.075 0 0 1-1.094 1.856 8.726 8.726 0 0 1-1.675 1.547c-.653.483-1.5 1-2.523 1.548h-5.309v5.779h11.024v10.317h-33.46v-10.73h11.394v-5.366h-5.31c-1.78-1.374-3.104-2.542-4.003-3.506-.882-.963-1.711-2.272-2.47-3.921v-28.477c1.076-2.545 2.029-4.263 2.858-5.16.44-.48 1.023-.98 1.746-1.495a26.975 26.975 0 0 1 2.628-1.6h4.94v-4.953h-11.413v-9.285h33.09v9.285h-11.412v4.953h4.569c1.005.552 1.887 1.067 2.61 1.549M1374.72 830.187h34.225v74.493h-11.407v-62.008h-11.41v10.834h-11.408v-23.319zM1441.27 855.057v-12.381h-11.409v19.295h10.268v10.936h-10.268v19.294h11.409V879.82h11.407v18.674c0 1.722-.556 3.184-1.665 4.385-1.108 1.205-2.455 1.807-4.04 1.807h-22.813c-1.586 0-2.934-.602-4.042-1.807-1.11-1.2-1.665-2.663-1.665-4.385v-62.112c0-1.718.556-3.18 1.665-4.385 1.108-1.203 2.456-1.806 4.042-1.806h22.814c1.584 0 2.931.603 4.039 1.806 1.11 1.205 1.665 2.667 1.665 4.385v18.675h-11.407zM1485 855.057v-12.381h-11.409v49.525H1485V879.82h11.409v18.674c0 1.722-.558 3.184-1.664 4.385-1.109 1.205-2.458 1.807-4.04 1.807h-22.816c-1.586 0-2.932-.602-4.04-1.807-1.111-1.2-1.667-2.663-1.667-4.385v-62.112c0-1.718.556-3.18 1.667-4.385 1.108-1.203 2.454-1.806 4.04-1.806h22.815c1.583 0 2.932.603 4.041 1.806 1.106 1.205 1.664 2.667 1.664 4.385v18.675H1485zM1505.91 830.187h34.223v74.493h-11.407v-62.008h-11.407v10.834h-11.409v-23.319zM1572.46 842.677V892.2h11.409v12.485h-34.227V892.2h11.41v-49.523h-11.41v-12.485h34.227v12.485h-11.409zM1616.007 854.746h-11.413v23.523h11.413v-23.523zm6.79-8.77c.724.482 1.324.928 1.765 1.34.811.826 1.763 2.34 2.857 4.54v29.303c-.264.963-.53 1.79-.811 2.476a7.49 7.49 0 0 1-1.094 1.856c-.44.553-1.005 1.069-1.676 1.547-.652.483-1.499 1-2.504 1.548h-5.327v5.779h11.024v10.317h-33.461v-10.73h11.395v-5.366h-5.31c-1.781-1.374-3.104-2.542-4.004-3.506-.882-.963-1.71-2.272-2.469-3.921v-28.477c1.076-2.545 2.028-4.263 2.857-5.16.441-.48 1.024-.98 1.764-1.495a24.594 24.594 0 0 1 2.61-1.6h4.94v-4.953h-11.413v-9.285h33.091v9.285h-11.412v4.953h4.568c1.006.552 1.888 1.067 2.61 1.549M1642.81 830.187h5.514v43.953l11.6-43.953h5.704c1.582 0 2.931.604 4.04 1.805 1.107 1.206 1.662 2.669 1.662 4.387v68.301h-11.407v-37.246l-11.218 37.246h-11.598v-68.301c0-1.718.554-3.18 1.664-4.387 1.107-1.201 2.457-1.805 4.039-1.805" fill="#fff" fill-rule="nonzero"/><path d="M1041.11 465.357v170.768h4.253c31.194 0 46.789-30.634 46.789-91.899 0-23.678-3.366-42.751-10.077-57.189-6.72-14.464-17.733-21.68-33.012-21.68h-7.953zm-60.094-54.4h75.262c22.551 0 41.292 5.761 56.206 17.276 14.917 11.5 25.55 27.883 31.9 49.161 6.35 21.28 9.521 44.76 9.521 70.448 0 43.212-8.972 77.85-26.897 103.952-17.942 26.077-44.233 39.126-78.874 39.126h-67.118V410.957zM1179.05 410.953h59.912v185.432c0 14.713 1.879 25.799 5.64 33.22 3.755 7.417 9.396 11.133 16.915 11.133 7.892 0 13.778-3.376 17.666-10.13 3.88-6.756 5.819-16.884 5.819-30.406v-189.25h60.277V603.82c0 29.16-7.364 51.708-22.096 67.633-14.729 15.919-35.47 23.867-62.22 23.867-25.892 0-46.009-7.687-60.37-23.065-14.367-15.395-21.543-38.205-21.543-68.435V410.953zM1370.06 410.955h162.916v56.81h-52.325V690.92h-60.103V467.765h-50.488v-56.81z" fill="#f37920" fill-rule="nonzero"/><path fill="#f37920" d="M1561.273 410.958h60.652v279.965h-60.652z"/><path d="M1659.45 410.955h147.003v56.41h-86.907v51.57h80.987v54.579h-80.987v60.198h86.907v57.208H1659.45V410.955zM1830.49 607.237c19.847 20.061 38.583 30.094 56.215 30.094 8.992 0 16.699-3.14 23.121-9.428 6.398-6.29 9.606-13.91 9.606-22.874 0-7.232-2.277-13.647-6.84-19.276-4.688-5.61-13.425-11.922-26.22-18.914-18.105-9.69-31.909-20.488-41.425-32.392-9.636-11.889-14.457-26.993-14.457-45.3 0-23.25 7.521-42.86 22.569-58.83 15.039-15.979 34.944-23.966 59.718-23.966 17.016 0 34.694 4.948 53.069 14.852v66.829c-16.274-16.988-31.867-25.487-46.784-25.487-7.396 0-13.795 2.397-19.225 7.23-5.425 4.81-8.14 10.637-8.14 17.452 0 6.69 2.23 12.441 6.662 17.262 4.306 4.822 12.326 10.042 24.033 15.67 19.35 9.365 34.013 20.077 44.015 32.103 9.97 12.178 14.97 28.56 14.97 49.163 0 25.95-8.592 48.098-25.787 66.416-17.201 18.334-38.191 27.485-62.963 27.485-19.236 0-39.945-6.281-62.137-18.861v-69.228z" fill="#f37920" fill-rule="nonzero"/><path d="M1464.45 83.946c-12.665 55.035-93.87 98.924-116.854 77.202l26.492-49.798c-17.122 8.373-27.346 16.985-58.819 20.604-9.805-10.987-19.597-23.412-20.3-36.33 8.053 1.278 19.265-2.287 19.609-19.397 4.55-10.67 5.953-14.866 5.953-14.866s-11.903 4.528-19.613 5.497c-10.15 3.877-15.752 8.073-17.157 10.985-5.251-.984-2.798-15.2-10.503-16.482-7.7-.315-14.712 1.932-19.962 8.725-89.125-34.733-106.46-67.205-172.64-69.648-66.187-2.4-111.365 32-174.393 29.577 0 0-40.978.475-90.351-10.67-28.238-3.898-81.423 5.825-118.193 46.052-41.496 38.278-33.65 84.924-30.463 139.111.15 2.482-1.838 8.25-1.645 9.883.407 3.449 4.944 9.056 9.306 8.409 3.286-.492 4.11-11.677 4.11-11.677s-7.047-31.839-4.944-55.092c0 0 4.725 47.985 17.333 65.432 2.623 19.372 3.678 34.397-9.978 59.62-5.251 11.143-1.048 21.129 7.883 25.106 4.337 8.07 11.636 30.415 9.214 34.883-3.093 5.711-6.048 18.732-6.048 18.732h49.079s-2.701-15.104-8.547-20.025c-4.303-3.625-6.716-39.086-6.716-39.086l5.803-11.144s40.287 46.923 33.837 55.546c-1.874 2.507-5.186 14.71-5.186 14.71h41.613s-4.11-14.621-7.408-17.763c-4.685-4.46-5.232-10.454-12.672-35.853-2.967-10.144-1.05-60.489-1.05-60.489l25.217-41.684s44.124 50.878 122.393 51.372c46.226-4.846 109.785-27.133 109.785-27.133s-2.11 17.445 7.877 20.34c-1.056 9.706-6.83 37.329-4.725 40.227.518 5.334 3.626 45.385 3.626 45.385s-1.582 4.704-4.152 10.238c-2.014 4.355-3.29 15.36-3.29 15.36h56.399s-2.438-17.502-10.079-24.123c-4.036-3.496-5.55-12.013-3.635-31.82 8.398-24.233 8.398-45.086 17.328-54.773 8.407-12.603 18.916-13.57 23.635-41.686 15.767-5.809 59.889-35.01 99.282-31.567 8.93 15.58 28.122 55.854 110.067 65.066-1.493-7.186 8.025-2.22 7.681-.105-.007.053-.573 4.443 9.991-2.7 6.687-4.524 16.189-14.53 13.564-33.589 0 0 110.53-24.433 102.246-120.562" fill="#fff" fill-rule="nonzero"/><path d="M1292.47 139.056c-.885 1.01-3.043.755-4.822-.567-1.786-1.323-2.516-3.214-1.636-4.225.88-1.009 3.038-.757 4.823.566 1.78 1.327 2.515 3.218 1.635 4.226" fill="#414042" fill-rule="nonzero"/><path d="M1298.22 141.178l-3.42-.859c.017-.08 1.873-7.794-2.729-10.019-2.055-.99-4.057-.52-6.597.074-3.515.826-7.888 1.856-13.337-1.344l1.785-3.04c4.23 2.481 7.395 1.739 10.744.95 2.833-.665 5.76-1.351 8.938.184 7.193 3.474 4.725 13.624 4.616 14.054M1281.99 136.024l-3.293 1.265c.114.298 2.882 7.334 10.354 8.167l.39-3.507c-5.304-.59-7.365-5.708-7.451-5.925M1017.4 193.579c-21.419-34.259-4.4-77.229 3.912-94.11.22-.45.37-.749.427-.885l1.021.427-.978-.64c1.049-1.517 2.36-.806 2.504-.72 1.438.843.776 2.188.192 3.375-8.052 16.353-24.567 57.928-4.088 90.681l-2.99 1.872zM814.844 178.789l-2.711-2.257c19.553-23.5 13.785-48.865 13.723-49.117l3.43-.82c.267 1.104 6.23 27.35-14.442 52.194M1141.32 30.329c-8.128-1.7-13.192-4.168-19.054-7.028-5.037-2.455-10.749-5.24-19.752-8.218-39.985-13.23-76.976 3.678-77.344 3.853l-1.494-3.196c.38-.18 38.585-17.694 79.948-4.006 9.227 3.053 15.051 5.891 20.188 8.396 5.884 2.87 10.532 5.135 18.231 6.745l-.723 3.454z" fill="#414042" fill-rule="nonzero"/></svg>