<?xml version="1.0" encoding="UTF-8" standalone="no"?>
<!DOCTYPE svg PUBLIC "-//W3C//DTD SVG 1.1//EN" "http://www.w3.org/Graphics/SVG/1.1/DTD/svg11.dtd">
<svg width="100%" height="100%" viewBox="0 0 660 210" version="1.1" xmlns="http://www.w3.org/2000/svg" xmlns:xlink="http://www.w3.org/1999/xlink" xml:space="preserve" xmlns:serif="http://www.serif.com/" style="fill-rule:evenodd;clip-rule:evenodd;stroke-linejoin:round;stroke-miterlimit:2;">
    <g transform="matrix(1.3151,0,0,1.3151,-1470.43,-2896.54)">
        <path d="M1465.01,2352.58C1464.34,2352.18 1463.02,2351.72 1460.99,2351.17C1459.73,2350.85 1459.29,2350.51 1459.29,2350.3L1459.6,2349.76C1459.87,2349.6 1460.19,2349.52 1460.58,2349.52C1460.93,2349.52 1461.45,2349.61 1462.14,2349.79C1462.93,2350.01 1463.55,2350.12 1464.01,2350.12C1464.68,2350.12 1465.25,2349.9 1465.7,2349.48C1466.13,2349.07 1466.35,2348.57 1466.35,2347.99C1466.35,2347.25 1465.96,2346.23 1464.1,2345.64C1463.16,2345.35 1462.05,2345.21 1460.78,2345.21C1458.81,2345.21 1457.18,2345.67 1455.92,2346.58C1454.55,2347.55 1453.86,2348.9 1453.86,2350.6C1453.86,2352.27 1454.65,2353.53 1456.21,2354.36C1456.5,2354.52 1457.23,2354.83 1460.21,2355.67C1461.01,2355.88 1461.95,2356.25 1461.95,2356.8C1461.95,2357.3 1461.75,2357.78 1460.36,2357.78C1459.86,2357.78 1459.16,2357.63 1458.27,2357.35C1457.25,2357.03 1456.5,2356.87 1456,2356.87C1455.28,2356.87 1454.65,2357.12 1454.2,2357.6C1453.77,2358.06 1453.55,2358.6 1453.55,2359.21C1453.55,2360.28 1454.47,2361.1 1456.26,2361.65C1457.48,2362.02 1458.75,2362.21 1460.05,2362.21C1462.16,2362.21 1463.9,2361.75 1465.2,2360.84C1466.64,2359.84 1467.37,2358.41 1467.37,2356.6C1467.37,2354.83 1466.58,2353.48 1465.01,2352.58ZM1358.64,2352.58C1357.96,2352.18 1356.65,2351.72 1354.61,2351.17C1353.36,2350.85 1352.91,2350.51 1352.91,2350.3L1353.23,2349.76C1353.5,2349.6 1353.81,2349.52 1354.2,2349.52C1354.55,2349.52 1355.08,2349.61 1355.76,2349.79C1356.56,2350.01 1357.17,2350.12 1357.63,2350.12C1358.3,2350.12 1358.88,2349.9 1359.33,2349.48C1359.76,2349.07 1359.98,2348.57 1359.98,2347.99C1359.98,2347.25 1359.59,2346.23 1357.73,2345.64C1356.79,2345.35 1355.67,2345.21 1354.4,2345.21C1352.44,2345.21 1350.8,2345.67 1349.55,2346.58C1348.18,2347.55 1347.48,2348.9 1347.48,2350.6C1347.48,2352.27 1348.28,2353.53 1349.84,2354.36C1350.12,2354.52 1350.86,2354.83 1353.84,2355.67C1354.63,2355.88 1355.57,2356.25 1355.57,2356.8C1355.57,2357.3 1355.38,2357.78 1353.98,2357.78C1353.49,2357.78 1352.79,2357.63 1351.9,2357.35C1350.87,2357.03 1350.13,2356.87 1349.62,2356.87C1348.9,2356.87 1348.28,2357.12 1347.83,2357.6C1347.4,2358.06 1347.18,2358.6 1347.18,2359.21C1347.18,2360.28 1348.09,2361.1 1349.89,2361.65C1351.1,2362.02 1352.38,2362.21 1353.68,2362.21C1355.79,2362.21 1357.52,2361.75 1358.83,2360.84C1360.27,2359.84 1361,2358.41 1361,2356.6C1361,2354.83 1360.2,2353.48 1358.64,2352.58ZM1336.85,2352.58C1336.18,2352.18 1334.86,2351.72 1332.83,2351.17C1331.58,2350.85 1331.13,2350.51 1331.13,2350.3L1331.44,2349.76C1331.71,2349.6 1332.03,2349.52 1332.42,2349.52C1332.77,2349.52 1333.3,2349.61 1333.98,2349.79C1334.78,2350.01 1335.39,2350.12 1335.85,2350.12C1336.52,2350.12 1337.09,2349.9 1337.54,2349.48C1337.98,2349.07 1338.2,2348.57 1338.2,2347.99C1338.2,2347.25 1337.8,2346.23 1335.94,2345.64C1335,2345.35 1333.89,2345.21 1332.62,2345.21C1330.65,2345.21 1329.02,2345.67 1327.77,2346.58C1326.4,2347.55 1325.7,2348.9 1325.7,2350.6C1325.7,2352.27 1326.49,2353.53 1328.05,2354.36C1328.34,2354.52 1329.08,2354.83 1332.05,2355.67C1332.85,2355.88 1333.79,2356.25 1333.79,2356.8C1333.79,2357.3 1333.6,2357.78 1332.2,2357.78C1331.7,2357.78 1331,2357.63 1330.11,2357.35C1329.09,2357.03 1328.35,2356.87 1327.84,2356.87C1327.12,2356.87 1326.49,2357.12 1326.04,2357.6C1325.61,2358.06 1325.4,2358.6 1325.4,2359.21C1325.4,2360.28 1326.31,2361.1 1328.1,2361.65C1329.32,2362.02 1330.59,2362.21 1331.9,2362.21C1334,2362.21 1335.74,2361.75 1337.04,2360.84C1338.48,2359.84 1339.21,2358.41 1339.21,2356.6C1339.21,2354.83 1338.42,2353.48 1336.85,2352.58ZM1385.35,2347.65C1383.65,2346.03 1381.35,2345.21 1378.51,2345.21C1375.66,2345.21 1373.35,2346.03 1371.66,2347.65C1370.06,2349.2 1369.25,2351.24 1369.25,2353.7C1369.25,2356.16 1370.06,2358.19 1371.66,2359.74C1373.35,2361.38 1375.66,2362.21 1378.51,2362.21C1381.35,2362.21 1383.65,2361.38 1385.35,2359.74C1386.96,2358.19 1387.78,2356.16 1387.78,2353.7C1387.78,2351.24 1386.96,2349.2 1385.35,2347.65ZM1296.86,2357.65C1296.43,2357.24 1295.85,2357.04 1295.13,2357.04C1294.65,2357.04 1293.97,2357.17 1293.04,2357.43C1292.23,2357.66 1291.6,2357.78 1291.17,2357.78C1289.99,2357.78 1289.09,2357.37 1288.41,2356.53C1287.82,2355.78 1287.52,2354.82 1287.52,2353.7C1287.52,2352.49 1287.85,2351.49 1288.5,2350.74C1289.21,2349.91 1290.2,2349.51 1291.52,2349.51C1291.78,2349.51 1292.27,2349.57 1293.14,2349.86C1293.97,2350.13 1294.59,2350.26 1295.03,2350.26C1295.69,2350.26 1296.26,2350.03 1296.7,2349.58C1297.12,2349.15 1297.33,2348.66 1297.33,2348.12C1297.33,2347.34 1296.91,2346.29 1294.94,2345.68C1293.96,2345.37 1292.78,2345.21 1291.42,2345.21C1288.62,2345.21 1286.34,2346.03 1284.63,2347.64C1282.95,2349.24 1282.09,2351.28 1282.09,2353.7C1282.09,2356.12 1282.92,2358.14 1284.54,2359.72C1286.25,2361.37 1288.54,2362.21 1291.35,2362.21C1292.69,2362.21 1293.92,2362.02 1295.01,2361.66C1296.65,2361.12 1297.48,2360.27 1297.48,2359.14C1297.48,2358.54 1297.27,2358.03 1296.86,2357.65ZM1273.68,2357.65C1273.25,2357.24 1272.67,2357.04 1271.95,2357.04C1271.47,2357.04 1270.79,2357.17 1269.86,2357.43C1269.05,2357.66 1268.42,2357.78 1267.99,2357.78C1266.81,2357.78 1265.91,2357.37 1265.23,2356.53C1264.64,2355.78 1264.34,2354.82 1264.34,2353.7C1264.34,2352.49 1264.67,2351.49 1265.32,2350.74C1266.03,2349.91 1267.02,2349.51 1268.34,2349.51C1268.6,2349.51 1269.09,2349.57 1269.96,2349.86C1270.79,2350.13 1271.41,2350.26 1271.85,2350.26C1272.51,2350.26 1273.08,2350.03 1273.52,2349.58C1273.93,2349.15 1274.15,2348.66 1274.15,2348.12C1274.15,2347.34 1273.73,2346.29 1271.76,2345.68C1270.79,2345.37 1269.6,2345.21 1268.25,2345.21C1265.44,2345.21 1263.16,2346.03 1261.45,2347.64C1259.77,2349.24 1258.91,2351.28 1258.91,2353.7C1258.91,2356.12 1259.74,2358.14 1261.36,2359.72C1263.08,2361.37 1265.36,2362.21 1268.17,2362.21C1269.51,2362.21 1270.74,2362.02 1271.83,2361.66C1273.47,2361.12 1274.3,2360.27 1274.3,2359.14C1274.3,2358.54 1274.09,2358.03 1273.68,2357.65ZM1424.15,2346.11C1423.7,2345.66 1423.05,2345.43 1422.24,2345.43C1421.45,2345.43 1420.81,2345.66 1420.35,2346.11C1419.9,2346.53 1419.67,2347.09 1419.67,2347.77L1419.67,2359.65C1419.67,2360.32 1419.9,2360.88 1420.35,2361.31C1420.81,2361.76 1421.45,2361.98 1422.24,2361.98C1423.05,2361.98 1423.7,2361.76 1424.15,2361.3C1424.59,2360.88 1424.81,2360.32 1424.81,2359.65L1424.81,2347.77C1424.81,2347.1 1424.59,2346.54 1424.15,2346.11ZM1239.81,2358.9C1239.59,2359.48 1239.17,2360.63 1239.15,2360.66C1238.49,2361.75 1237.5,2361.98 1236.8,2361.98C1236.12,2361.98 1235.55,2361.82 1235.12,2361.52C1234.58,2361.18 1234.3,2360.68 1234.3,2360.07C1234.3,2358.96 1234.92,2357.04 1236.21,2354.2L1238.81,2348.68C1239.28,2347.59 1239.67,2346.86 1240,2346.46C1240.67,2345.63 1241.57,2345.2 1242.69,2345.2C1243.82,2345.2 1244.74,2345.62 1245.4,2346.45C1245.75,2346.86 1246.15,2347.58 1246.61,2348.67L1249.23,2354.2C1250.5,2357.04 1251.13,2358.96 1251.13,2360.07C1251.13,2360.67 1250.86,2361.17 1250.35,2361.51C1249.88,2361.82 1249.3,2361.98 1248.63,2361.98C1247.6,2361.98 1246.78,2361.52 1246.26,2360.62C1246.26,2360.62 1245.79,2359.37 1245.62,2358.9L1239.81,2358.9ZM1403.86,2345.56C1405.72,2345.56 1407.28,2346.03 1408.49,2346.96C1409.72,2347.9 1410.34,2349.19 1410.34,2350.79C1410.34,2352.01 1409.92,2353.06 1409.09,2353.93C1408.46,2354.59 1407.66,2355.07 1406.7,2355.35C1407.45,2356.01 1408.56,2356.99 1408.57,2357C1409.92,2358.28 1410.55,2359.19 1410.55,2359.88C1410.55,2360.48 1410.28,2360.99 1409.74,2361.39C1409.23,2361.78 1408.61,2361.98 1407.92,2361.98C1406.98,2361.98 1406.19,2361.63 1405.57,2360.95C1405.57,2360.95 1403.03,2358.18 1401.7,2356.73L1401.78,2358.26C1401.78,2361.33 1400.28,2361.98 1399.01,2361.98C1398.22,2361.98 1397.58,2361.75 1397.12,2361.31C1396.67,2360.88 1396.44,2360.32 1396.44,2359.64L1396.44,2347.78C1396.44,2347.16 1396.68,2346.62 1397.17,2346.2C1397.66,2345.78 1398.28,2345.56 1399.01,2345.56L1403.86,2345.56ZM1442.55,2345.56C1443.29,2345.56 1443.9,2345.74 1444.38,2346.11C1444.87,2346.49 1445.12,2347.01 1445.12,2347.66C1445.12,2348.66 1444.46,2349.86 1441.29,2349.86L1439.62,2349.8L1438.96,2349.76L1438.96,2351.55L1439.53,2351.52L1441.06,2351.46C1444.13,2351.46 1444.78,2352.66 1444.78,2353.65C1444.78,2354.66 1444.13,2355.86 1441.06,2355.86L1439.56,2355.81L1438.96,2355.78L1438.96,2357.62L1439.65,2357.59L1441.39,2357.51C1444.6,2357.51 1445.27,2358.74 1445.27,2359.76C1445.27,2360.41 1445.02,2360.93 1444.53,2361.31C1444.05,2361.67 1443.44,2361.86 1442.7,2361.86L1436.38,2361.86C1435.63,2361.86 1435.01,2361.64 1434.53,2361.21C1434.06,2360.78 1433.82,2360.25 1433.82,2359.63L1433.82,2347.78C1433.82,2347.16 1434.06,2346.63 1434.53,2346.21C1435.01,2345.77 1435.63,2345.56 1436.38,2345.56L1442.55,2345.56ZM1314.4,2345.56C1315.13,2345.56 1315.74,2345.74 1316.22,2346.11C1316.72,2346.49 1316.97,2347.01 1316.97,2347.66C1316.97,2348.66 1316.3,2349.86 1313.13,2349.86L1311.46,2349.8L1310.8,2349.76L1310.8,2351.55L1311.38,2351.52L1312.9,2351.46C1315.97,2351.46 1316.62,2352.66 1316.62,2353.65C1316.62,2354.66 1315.97,2355.86 1312.9,2355.86L1311.4,2355.81L1310.8,2355.78L1310.8,2357.62L1311.5,2357.59L1313.23,2357.51C1316.44,2357.51 1317.11,2358.74 1317.11,2359.76C1317.11,2360.41 1316.86,2360.93 1316.37,2361.31C1315.89,2361.67 1315.28,2361.86 1314.55,2361.86L1308.23,2361.86C1307.48,2361.86 1306.85,2361.64 1306.37,2361.21C1305.9,2360.78 1305.66,2360.25 1305.66,2359.63L1305.66,2347.78C1305.66,2347.16 1305.9,2346.63 1306.37,2346.21C1306.85,2345.77 1307.48,2345.56 1308.23,2345.56L1314.4,2345.56ZM1190.99,2311.3C1196.94,2311.3 1203.16,2315.32 1205.36,2322.59C1208.66,2315.98 1244.26,2239.54 1244.26,2239.54C1252.85,2219.07 1273.76,2215.76 1283.89,2238.22C1294.23,2260.45 1309.86,2293.15 1309.86,2293.15L1309.86,2238.22C1309.86,2224.79 1327.47,2213.56 1341.12,2234.03C1354.76,2254.51 1367.53,2272.62 1367.53,2272.62L1393.73,2233.6C1405.62,2214.22 1423,2223.47 1423.44,2237.78L1423.44,2321.87C1423.44,2345.86 1393.51,2346.3 1393.51,2322.09L1393.51,2286.65L1368.19,2323.18C1356.1,2339.84 1340.01,2330.86 1339.58,2318.69L1339.58,2317.7C1339.68,2314.88 1340.62,2311.92 1342.66,2309.1C1342.66,2309.1 1347.16,2302.69 1348.74,2300.32C1350.29,2297.99 1349.95,2298.36 1347.94,2295.45C1344.62,2290.63 1339.58,2283.78 1339.58,2283.78L1339.58,2317.7C1339.57,2318.03 1339.57,2318.36 1339.58,2318.69L1339.58,2324.51C1336.94,2345.64 1310.96,2342.34 1309.64,2326.49C1296.87,2342.34 1279.92,2343.44 1263.85,2333.09L1248.66,2322.31C1237.16,2313.08 1248.54,2290.62 1265.62,2298.75L1281.9,2309.1C1281.9,2309.1 1286.09,2311.96 1283.67,2306.68C1281.24,2301.39 1266.94,2270.14 1266.94,2270.14C1266.94,2270.14 1265.4,2263.75 1262.75,2269.26C1260.11,2274.76 1224.01,2351.15 1224.01,2351.15C1213,2372.93 1188.57,2355.76 1197.82,2337.49C1194.08,2340.58 1191.43,2339.92 1191.43,2339.92L1166.56,2339.92C1146.75,2339.92 1130.46,2318.13 1141.03,2295.89L1169.64,2235.58C1180.42,2214 1205.3,2226.33 1196.28,2246.36L1168.54,2304.91C1168.54,2304.91 1165.02,2311.3 1168.32,2311.3L1190.99,2311.3ZM1547.25,2202.56C1569.05,2202.56 1580.93,2216.87 1588.2,2230.95L1612.41,2282.02C1633.98,2324.07 1606.47,2361.27 1567.06,2361.27L1513.75,2361.27C1506.71,2361.27 1507.37,2351.59 1513.98,2351.59L1571.9,2351.59C1602.28,2350.26 1621.88,2318.12 1603.6,2285.77C1603.6,2285.77 1585.12,2245.48 1579.17,2233.6C1573.23,2221.71 1562.22,2211.8 1547.48,2212.02L1190.61,2212.02C1175.86,2211.8 1164.86,2221.71 1158.91,2233.6C1152.97,2245.48 1134.48,2285.77 1134.48,2285.77C1116.21,2318.12 1135.8,2350.26 1166.18,2351.59L1189.95,2351.59C1196.56,2351.59 1197.22,2361.27 1190.17,2361.27L1171.02,2361.27C1131.62,2361.27 1104.1,2324.07 1125.67,2282.02L1149.89,2230.95C1157.15,2216.87 1169.04,2202.56 1190.83,2202.56L1547.25,2202.56ZM1457.18,2322.75C1457.18,2344.76 1427.47,2345.42 1427.47,2322.3L1427.47,2263.53C1427.47,2239.76 1450.8,2222.37 1471.28,2222.37C1491.3,2222.37 1514.04,2238.5 1514.04,2266.9L1527.4,2238.44C1537.31,2215.99 1559.1,2215.99 1568.12,2237.34L1595.86,2295.89C1605.63,2314.22 1588.29,2344.79 1561.93,2338.99C1559.8,2338.52 1556.23,2337.21 1553.54,2335.55L1533.57,2322.3C1518.82,2311.52 1534.01,2288.41 1550.74,2298.1L1566.15,2308.44C1566.15,2308.44 1570.11,2311.08 1567.9,2305.8C1565.7,2300.51 1549.85,2267.72 1549.85,2267.72C1549.85,2267.72 1548.32,2263.31 1546.34,2267.72C1544.35,2272.12 1506.93,2352.03 1506.93,2352.03C1497.47,2369.85 1471.71,2358.18 1480.08,2339.92L1500.1,2296.55L1480.13,2308.42C1460.33,2318.68 1451.1,2290.75 1465.61,2282.97L1474.13,2278.06C1487.75,2270.73 1486.02,2252.08 1470.61,2252.08C1456.96,2252.08 1457.18,2265.73 1457.18,2265.73L1457.18,2322.75ZM1381.42,2356.73C1380.74,2357.61 1379.79,2358.04 1378.51,2358.04C1377.22,2358.04 1376.26,2357.61 1375.59,2356.73C1374.98,2355.95 1374.68,2354.92 1374.68,2353.7C1374.68,2352.47 1374.98,2351.46 1375.58,2350.68C1376.26,2349.8 1377.22,2349.37 1378.51,2349.37C1379.79,2349.37 1380.74,2349.8 1381.42,2350.68C1382.04,2351.46 1382.35,2352.47 1382.35,2353.7C1382.35,2354.92 1382.04,2355.94 1381.42,2356.73ZM1244.08,2354.7C1243.82,2353.99 1243.25,2352.4 1242.77,2351.07C1242.26,2352.39 1241.65,2353.98 1241.37,2354.7L1244.08,2354.7ZM1403.69,2349.72L1401.58,2349.72L1401.58,2352.18L1403.69,2352.18C1404.16,2352.18 1404.52,2352.06 1404.8,2351.84C1405.07,2351.61 1405.2,2351.31 1405.2,2350.92L1404.79,2350.06C1404.51,2349.83 1404.15,2349.72 1403.69,2349.72Z" style="fill:white;fill-rule:nonzero;"/>
    </g>
</svg>
