<svg viewBox="0 0 2500 1900" xmlns="http://www.w3.org/2000/svg" fill-rule="evenodd" clip-rule="evenodd" stroke-linejoin="round" stroke-miterlimit="1.414"><path d="M1174.63 1534.09H441.328v-522.81l-.418-1.05c0-274.147-189.254-505.189-440.91-575.505V.718L6.312.95C354.506 57.34 644.205 289.206 779.057 604c34.337-70.042 102.909-114.887 186.155-114.887 63.098 0 120.088 27.633 158.738 71.542 39.97-45.535 97.75-71.637 158.33-71.542 116.45 0 209.2 94.447 209.2 210.96v85.713c84.26-174.621 263.37-295.088 470.23-295.088 287.94 0 519.76 233.403 519.76 521.332l.11 887.24h-521.03c-339.54 0-636.83-190.64-785.92-470.83v-3.36l-1.11 1.27c.37.7.74 1.39 1.11 2.09v105.65zm787.09-1.52c-287.94 0-521.33-233.44-521.33-521.33V699.094c0-87.656-70.19-157.165-157.86-157.165-87.72 0-158.78 71.095-158.78 158.799 0-87.718-71.11-158.784-158.768-158.784s-158.738 69.494-158.738 157.161v259.42s-.966-13.715-3.805-43.913c-39.31-418.435-344.72-759.422-746.61-849.04l-2.177 1.572v321.813c258.532 87.615 442.41 332.31 442.41 620.463v469.45H1120.2v-423.42c-.01-.11-.04-.65-.03-.67 0 .02.01.07.02.16l.01.19v.32c.01.07.01.01 0-.32l.08 1.29c26.52 438.28 395.35 789.08 840.27 789.08l99.99-.84v-312.09h-98.82zm466.8 311.55l.64-835.2c0-259.389-208.72-469.686-468.13-469.686-259.36 0-469.67 210.297-469.67 469.686 0 259.41 210.31 469.67 469.67 469.67l.89.28h154.37v365.25h312.23z" fill="#fff"/><path d="M737.012 172.479c11.41-11.425 18.103-17.95 20.124-19.633a60.578 60.578 0 0 1 16.539-10.077 46.644 46.644 0 0 1 17.565-3.615c9.771 0 18.209 2.865 25.253 8.546 7.044 5.651 11.761 13.921 14.151 24.764 11.685-13.707 21.578-22.666 29.68-26.923a52.68 52.68 0 0 1 24.855-6.387c8.314 0 15.651 2.16 22.107 6.387 6.412 4.257 11.477 11.24 15.256 20.918 2.515 6.586 3.731 16.939 3.731 31.043v67.26c0 9.787.744 16.479 2.22 20.093a14.307 14.307 0 0 0 6.341 6.386c3.081 1.747 8.021 2.68 15.012 2.68v6.111h-77.12v-6.11h3.262c6.693 0 11.931-1.334 15.698-3.951 2.619-1.809 4.487-4.717 5.59-8.668.46-1.93.705-7.458.705-16.556v-67.26c0-12.758-1.516-21.73-4.595-26.97-4.427-7.273-11.516-10.887-21.287-10.887-6.064 0-12.113 1.516-18.164 4.472-6.109 3.032-13.445 8.605-22.113 16.83l-.351 1.884.35 7.336v74.595c0 10.66.644 17.306 1.809 19.924 1.225 2.62 3.445 4.84 6.752 6.57 3.263 1.747 8.914 2.68 16.877 2.68v6.111h-78.976v-6.11c8.683 0 14.61-1.042 17.873-3.094 3.199-2.022 5.466-5.115 6.691-9.19.597-1.99.873-7.58.873-16.907v-67.26c0-12.757-1.868-21.914-5.635-27.443-5.008-7.273-12.008-10.95-20.966-10.95-6.172 0-12.22 1.639-18.27 4.946-9.418 5.008-16.708 10.66-21.823 16.892v83.815c0 10.2.75 16.908 2.145 19.926a14.555 14.555 0 0 0 6.294 6.921c2.787 1.53 8.438 2.328 16.984 2.328v6.11h-77.23v-6.11c7.15 0 12.16-.812 15.008-2.328a14.638 14.638 0 0 0 6.461-7.335c1.455-3.385 2.207-9.863 2.207-19.512V204.99c0-17.182-.521-28.238-1.516-33.246-.813-3.797-2.099-6.356-3.784-7.75-1.684-1.455-4.028-2.158-6.999-2.158-3.2 0-6.983.872-11.409 2.557l-2.557-6.173 47.03-19.096h7.336v33.355h.016zm301.618-33.325c23.638 0 42.612 9.022 56.976 26.968 12.164 15.378 18.209 33.02 18.209 52.882 0 14.028-3.368 28.178-10.06 42.497-6.705 14.334-15.947 25.176-27.697 32.435a73.21 73.21 0 0 1-39.288 10.889c-23.563 0-42.25-9.372-56.115-28.117a87.487 87.487 0 0 1-17.55-53.232c0-14.38 3.548-28.592 10.644-42.744 7.097-14.15 16.478-24.625 28.048-31.393a71.627 71.627 0 0 1 36.822-10.185h.01zm-5.28 11.134c-6.014 0-12.037 1.746-18.167 5.36-6.035 3.615-10.975 9.847-14.725 18.852-3.76 8.974-5.63 20.506-5.63 34.595 0 22.772 4.536 42.39 13.555 58.868 9.02 16.479 20.961 24.764 35.729 24.764 10.995 0 20.079-4.549 27.303-13.646 7.15-9.126 10.709-24.747 10.709-46.937 0-27.765-5.939-49.603-17.933-65.516-8.032-10.918-18.327-16.34-30.841-16.34zm148.85-57.841v51.302h36.493v11.945H1182.2v101.382c0 10.137 1.455 16.936 4.366 20.443 2.837 3.553 6.587 5.3 11.134 5.3 3.761 0 7.373-1.165 10.932-3.506 3.496-2.33 6.247-5.76 8.234-10.308h6.64c-4.048 11.134-9.615 19.51-16.903 25.176-7.277 5.636-14.788 8.44-22.512 8.44a30.205 30.205 0 0 1-15.362-4.367 26.181 26.181 0 0 1-11.049-12.449c-2.38-5.36-3.601-13.691-3.601-24.994V155.71h-24.67v-5.604c6.216-2.512 12.622-6.755 19.145-12.696a101.436 101.436 0 0 0 17.476-21.272c2.593-4.303 6.28-12.22 10.932-23.691h5.238zm128.018 46.707c23.649 0 42.634 9.022 56.987 26.968 12.175 15.378 18.209 33.02 18.209 52.882 0 14.028-3.347 28.178-10.04 42.497-6.693 14.32-15.967 25.176-27.707 32.435a73.218 73.218 0 0 1-39.298 10.889c-23.563 0-42.24-9.372-56.073-28.117a87.206 87.206 0 0 1-17.582-53.232c0-14.38 3.548-28.592 10.634-42.744 7.097-14.15 16.489-24.625 28.058-31.393a71.658 71.658 0 0 1 36.812-10.185zm-5.27 11.134c-5.991 0-12.026 1.746-18.166 5.36-6.056 3.615-10.975 9.847-14.725 18.852-3.76 8.974-5.62 20.506-5.62 34.595 0 22.772 4.526 42.39 13.524 58.868 9.041 16.479 20.972 24.764 35.75 24.764 11.006 0 20.079-4.549 27.303-13.646 7.16-9.126 10.709-24.747 10.709-46.937 0-27.765-5.96-49.603-17.944-65.516-8.021-10.918-18.305-16.34-30.83-16.34zm149.213-11.134v35.178c13.057-23.477 26.486-35.178 40.244-35.178 6.204 0 11.388 1.915 15.521 5.697 4.08 3.845 6.098 8.286 6.098 13.216 0 4.488-1.445 8.21-4.398 11.303a14.171 14.171 0 0 1-10.613 4.61c-3.952 0-8.446-1.991-13.365-5.896-4.94-3.906-8.606-5.866-11.017-5.866-2.03 0-4.24 1.103-6.608 3.368-5.153 4.656-10.454 12.36-15.862 23.08v74.887c0 8.607 1.052 15.192 3.209 19.633 1.53 3.078 4.132 5.652 7.861 7.673 3.772 2.036 9.126 3.093 16.191 3.093v6.11h-79.987v-6.11c7.989 0 13.917-1.287 17.774-3.799 2.847-1.806 4.802-4.716 5.991-8.668.532-1.96.83-7.458.83-16.584v-60.569c0-18.177-.351-29.005-1.127-32.496-.69-3.446-2.072-6.002-4.08-7.581a11.535 11.535 0 0 0-7.436-2.388c-3.506 0-7.448.872-11.942 2.556l-1.657-6.17 47.255-19.1h7.118zm208.813 0v200.972c0 10.014.722 16.478 2.103 19.34a15.01 15.01 0 0 0 6.407 6.631c2.868 1.578 8.488 2.39 16.945 2.39v6.294h-78.808v-6.293h3.261c6.406 0 11.22-.935 14.47-2.742 2.305-1.271 4.111-3.493 5.503-6.74 1.318-3.2 2.008-9.494 2.008-18.865v-67.216c-10.348 12.298-19.389 20.69-27.112 25.162a47.2 47.2 0 0 1-24.031 6.753c-15.14 0-28.632-6.876-40.52-20.613-11.867-13.814-17.827-32.205-17.827-55.331 0-26.494 7.873-48.041 23.607-64.763 15.627-16.648 34.548-24.98 56.731-24.98 6.47 0 12.451.936 17.923 2.728 5.418 1.806 10.284 4.548 14.65 8.208a149.788 149.788 0 0 0 18.932-10.935h5.758zm-28.11 123.051v-73.387c0-8.56-1.106-15.252-3.294-20.137-2.22-4.901-6.183-9.02-11.867-12.466a37.052 37.052 0 0 0-19.272-5.115c-12.674 0-23.628 5.42-32.732 16.248-9.062 10.782-13.673 27.137-13.673 49.099 0 21.087 4.643 37.045 13.917 47.994 9.243 10.89 20.42 16.372 33.519 16.372 6.703 0 12.685-1.456 17.848-4.367 5.259-2.94 10.432-7.656 15.553-14.241zm201.386-118.456v94.703c0 18.103.372 29.174 1.285 33.203.84 4.073 2.178 6.86 4.07 8.437a9.745 9.745 0 0 0 6.586 2.389c3.527 0 7.5-.934 11.899-2.91l2.38 5.989-46.724 19.28h-7.618v-33.078c-13.46 14.564-23.691 23.692-30.724 27.442a46.572 46.572 0 0 1-22.31 5.636c-8.765 0-16.319-2.512-22.788-7.564a39.707 39.707 0 0 1-13.408-19.557c-2.496-7.978-3.697-19.219-3.697-33.784v-69.772c0-7.38-.807-12.511-2.39-15.375a16.016 16.016 0 0 0-7.118-6.57c-3.081-1.516-8.765-2.22-16.924-2.098v-6.357h54.702v104.614c0 14.548 2.571 24.105 7.628 28.653 5.057 4.593 11.155 6.876 18.326 6.876 4.877 0 10.412-1.577 16.606-4.594 6.215-3.094 13.556-8.975 22.097-17.582v-88.593c0-8.851-1.636-14.839-4.897-17.994-3.272-3.078-9.934-4.779-20.196-5.007v-6.357h53.215v-.03zm126.148 133.786c-16 12.405-26.071 19.573-30.214 21.486a45.669 45.669 0 0 1-19.559 4.303c-10.826 0-19.697-3.72-26.698-11.134-6.97-7.395-10.486-17.12-10.486-29.157 0-7.642 1.71-14.228 5.121-19.817 4.675-7.673 12.738-14.979 24.286-21.839 11.527-6.815 30.725-15.084 57.55-24.87v-6.157c0-15.558-2.444-26.279-7.373-32.098-4.961-5.758-12.175-8.669-21.598-8.669-7.15 0-12.866 1.915-17.041 5.82-4.313 3.845-6.46 8.27-6.46 13.278l.32 9.894c0 5.236-1.329 9.264-4.017 12.128-2.666 2.832-6.15 4.241-10.475 4.241a13.245 13.245 0 0 1-10.347-4.425c-2.699-2.955-4.048-6.983-4.048-12.113 0-9.787 5.025-18.745 15.011-26.954 10.019-8.162 24.042-12.282 42.145-12.282 13.843 0 25.21 2.328 34.093 6.984 6.714 3.552 11.643 9.081 14.852 16.585 2.06 4.9 3.017 14.854 3.017 29.986v53.048c0 14.916.308 24.074.903 27.444.563 3.307 1.498 5.589 2.783 6.707a6.787 6.787 0 0 0 4.547 1.746 9.017 9.017 0 0 0 4.781-1.24c2.359-1.456 6.97-5.652 13.78-12.467v9.556c-12.675 17.062-24.86 25.622-36.483 25.622-5.525 0-9.955-1.93-13.29-5.836-3.305-3.813-4.973-10.459-5.1-19.77zm0-11.072V206.89c-17.168 6.86-28.228 11.7-33.221 14.486-9.04 5.007-15.437 10.246-19.272 15.713a29.99 29.99 0 0 0-5.832 17.933c0 8.161 2.454 14.977 7.33 20.383 4.898 5.36 10.55 8.101 16.903 8.101 8.669.016 20.005-5.68 34.092-17.044v.001zm120.188-209.025v207.34c0 9.786.765 16.263 2.167 19.465 1.382 3.156 3.58 5.575 6.555 7.229 2.986 1.606 8.468 2.496 16.542 2.496v6.11h-76.556v-6.11c7.192 0 12.058-.752 14.63-2.268a14.469 14.469 0 0 0 6.15-7.335c1.477-3.37 2.22-9.908 2.22-19.572V122.815c0-17.644-.414-28.486-1.157-32.498-.808-4.012-2.093-6.814-3.825-8.27a10.066 10.066 0 0 0-6.746-2.205c-2.964 0-6.714.874-11.24 2.726l-2.9-5.988 46.575-19.112h7.585v-.03zm83.037 0c4.78 0 8.86 1.684 12.228 5.007 3.336 3.385 4.993 7.458 4.993 12.222 0 4.777-1.657 8.85-4.983 12.296-3.378 3.37-7.447 5.115-12.238 5.115-4.792 0-8.85-1.745-12.292-5.115a16.99 16.99 0 0 1-5.11-12.296c0-4.779 1.7-8.853 5.078-12.222 3.293-3.308 7.437-5.007 12.324-5.007zm14.161 81.716v125.608c0 9.787.68 16.264 2.157 19.511a14.916 14.916 0 0 0 6.268 7.274c2.783 1.594 7.936 2.39 15.288 2.39v6.11h-75.887v-6.11c7.67 0 12.78-.752 15.32-2.268a14.77 14.77 0 0 0 6.225-7.334c1.594-3.37 2.327-9.91 2.327-19.573v-60.277c0-16.937-.51-27.902-1.508-32.91-.85-3.66-2.093-6.17-3.804-7.566-1.657-1.455-4.005-2.158-6.958-2.158-3.198 0-7.065.873-11.612 2.558l-2.359-6.173 47.021-19.097h7.522v.015zm88.497-46.707v51.302h36.483v11.945h-36.483v101.382c0 10.137 1.466 16.936 4.356 20.443 2.858 3.553 6.587 5.3 11.134 5.3 3.76 0 7.394-1.165 10.921-3.506 3.506-2.33 6.247-5.76 8.234-10.308h6.64c-4.048 11.134-9.604 19.51-16.903 25.176-7.277 5.636-14.788 8.44-22.501 8.44-5.27 0-10.38-1.456-15.384-4.367a26.483 26.483 0 0 1-11.07-12.449c-2.39-5.36-3.58-13.691-3.58-24.994V155.71h-24.68v-5.604c6.226-2.512 12.622-6.755 19.156-12.696a101.95 101.95 0 0 0 17.433-21.272c2.635-4.303 6.29-12.22 10.954-23.691h5.29zm42.761 51.302h72.806v6.356h-3.548c-5.11 0-8.946 1.103-11.517 3.307a10.57 10.57 0 0 0-3.824 8.286c0 4.424 1.859 10.581 5.641 18.393l37.991 78.852 34.963-86.311c1.934-4.717 2.88-9.311 2.88-13.86a7.81 7.81 0 0 0-1.17-4.578 9.393 9.393 0 0 0-4.238-2.986c-1.987-.752-5.365-1.103-10.263-1.103v-6.356h50.814v6.356c-4.185.459-7.447 1.347-9.731 2.74-2.263 1.349-4.76 3.906-7.5 7.673-1.042 1.577-2.954 5.941-5.812 13.11l-63.541 155.96c-6.152 15.146-14.226 26.556-24.138 34.305-9.955 7.748-19.537 11.593-28.78 11.593-6.683 0-12.207-1.93-16.51-5.836-4.302-3.828-6.459-8.269-6.459-13.276 0-4.778 1.562-8.608 4.643-11.517 3.134-2.91 7.436-4.364 12.918-4.364 3.75 0 8.86 1.27 15.32 3.782 4.547 1.685 7.373 2.573 8.563 2.573 3.389 0 7.086-1.807 11.166-5.298 4.037-3.554 8.095-10.37 12.175-20.508l11.133-27.09-56.115-117.92a95.037 95.037 0 0 0-8.191-13.11c-2.858-4.012-5.185-6.707-7.001-8.04-2.614-1.806-6.789-3.43-12.621-4.777v-6.356h-.054z" fill="#fff"/></svg>